<?xml version="1.0" encoding="UTF-8"?>
<!DOCTYPE svg PUBLIC "-//W3C//DTD SVG 1.1//EN" "http://www.w3.org/Graphics/SVG/1.1/DTD/svg11.dtd">
<svg xmlns="http://www.w3.org/2000/svg" version="1.1" width="420px" height="487px" style="shape-rendering:geometricPrecision; text-rendering:geometricPrecision; image-rendering:optimizeQuality; fill-rule:evenodd; clip-rule:evenodd" xmlns:xlink="http://www.w3.org/1999/xlink">
<g><path style="opacity:1" fill="#403d3a" d="M 250.5,-0.5 C 252.5,-0.5 254.5,-0.5 256.5,-0.5C 257.833,0.166667 259.167,0.833333 260.5,1.5C 256.946,2.24871 253.28,3.08205 249.5,4C 254.5,4.33333 259.5,4.66667 264.5,5C 267.426,5.68701 268.759,7.52034 268.5,10.5C 261.46,10.5867 254.46,10.0867 247.5,9C 246.584,8.72158 245.918,8.22158 245.5,7.5C 246.058,6.21009 247.058,5.37675 248.5,5C 246.618,4.80192 244.952,4.30192 243.5,3.5C 245.449,1.43695 247.782,0.103618 250.5,-0.5 Z"/></g>
<g><path style="opacity:1" fill="#2c2825" d="M 237.5,11.5 C 236.236,13.2701 234.736,14.9368 233,16.5C 232.667,16.1667 232.333,15.8333 232,15.5C 231.493,16.9961 231.993,18.1627 233.5,19C 231.546,22.749 228.379,24.5824 224,24.5C 216.956,23.7356 209.789,23.4023 202.5,23.5C 202.649,22.448 202.483,21.448 202,20.5C 200.829,21.8932 199.329,22.7265 197.5,23C 193.517,23.6404 189.517,24.1404 185.5,24.5C 183.36,24.4439 181.694,23.7773 180.5,22.5C 184.505,18.7549 189.338,16.7549 195,16.5C 198.139,17.4257 201.306,17.5923 204.5,17C 206.235,13.5334 208.235,10.2001 210.5,7C 220.544,2.93533 229.544,4.43533 237.5,11.5 Z"/></g>
<g><path style="opacity:0.998" fill="#1a1714" d="M 243.5,3.5 C 244.952,4.30192 246.618,4.80192 248.5,5C 247.058,5.37675 246.058,6.21009 245.5,7.5C 243.418,8.58487 243.084,10.0849 244.5,12C 253.151,13.5365 261.817,13.7032 270.5,12.5C 270.942,11.2613 271.609,10.2613 272.5,9.5C 273.117,9.61071 273.617,9.94404 274,10.5C 275.313,14.4204 276.313,18.4204 277,22.5C 278.666,19.6688 280.832,17.3355 283.5,15.5C 283.369,16.3764 283.702,17.0431 284.5,17.5C 285.939,16.9366 287.439,16.6032 289,16.5C 294.323,17.2487 299.656,17.9154 305,18.5C 307.121,18.3025 308.954,17.6358 310.5,16.5C 313.178,21.5251 312.845,26.5251 309.5,31.5C 310.185,33.5473 311.351,35.2139 313,36.5C 315.099,35.7135 317.266,35.3801 319.5,35.5C 317.889,37.0946 315.889,38.2612 313.5,39C 315.351,40.6837 317.018,42.5171 318.5,44.5C 321.109,45.2305 323.776,45.7305 326.5,46C 329.456,50.0926 332.956,50.5926 337,47.5C 341.191,49.4789 343.025,48.1455 342.5,43.5C 345.763,47.0211 346.263,51.0211 344,55.5C 342.293,57.0375 340.793,58.7041 339.5,60.5C 337.135,61.0084 334.801,61.6751 332.5,62.5C 322.017,52.914 311.85,53.2474 302,63.5C 301.257,65.4406 301.424,67.2739 302.5,69C 310.939,70.1078 319.272,71.6078 327.5,73.5C 329.833,73.3333 332.167,73.1667 334.5,73C 335.249,71.2663 335.749,69.433 336,67.5C 336.642,69.7619 337.475,71.9285 338.5,74C 343.417,75.0825 348.084,76.7492 352.5,79C 355.924,79.7466 359.257,79.58 362.5,78.5C 362.5,79.1667 362.5,79.8333 362.5,80.5C 354.207,81.1963 345.873,81.0296 337.5,80C 336.692,79.6924 336.025,79.1924 335.5,78.5C 336.246,77.2638 336.579,75.9305 336.5,74.5C 326.137,74.3732 315.804,74.8732 305.5,76C 302.637,77.3635 300.637,79.5302 299.5,82.5C 302.977,83.1672 306.311,83.8339 309.5,84.5C 305.818,84.3347 302.152,84.5014 298.5,85C 298,85.5 297.5,86 297,86.5C 297.643,93.7882 300.476,100.122 305.5,105.5C 309.096,108.132 313.096,108.965 317.5,108C 318.715,105.625 320.381,103.791 322.5,102.5C 322.5,103.833 322.5,105.167 322.5,106.5C 321.836,108.487 320.669,110.154 319,111.5C 318.546,118.216 318.212,124.883 318,131.5C 320.999,134.461 324.499,136.627 328.5,138C 331.636,139.041 334.136,138.207 336,135.5C 337.149,132.607 337.649,129.607 337.5,126.5C 339.848,131.23 343.515,133.23 348.5,132.5C 351.223,137.289 351.89,142.289 350.5,147.5C 349.031,148.218 348.031,149.885 347.5,152.5C 341.79,153.725 337.29,152.059 334,147.5C 334.055,145.085 334.388,142.752 335,140.5C 332.263,141.61 329.429,141.777 326.5,141C 323.333,138.5 320.167,136 317,133.5C 317.284,126.181 317.284,118.847 317,111.5C 313.927,112.617 310.76,112.784 307.5,112C 302.863,110.899 298.363,109.399 294,107.5C 292.404,108.497 290.904,109.663 289.5,111C 286.118,111.824 282.784,111.657 279.5,110.5C 270.748,105.243 264.748,97.7429 261.5,88C 261.914,85.0044 263.248,82.5044 265.5,80.5C 271.226,77.782 277.226,76.9486 283.5,78C 284.571,78.8518 285.571,79.6851 286.5,80.5C 271.434,78.8717 266.767,84.8717 272.5,98.5C 283.595,110.72 290.928,108.72 294.5,92.5C 294.167,88.1703 292.5,84.5037 289.5,81.5C 290.885,80.4264 292.051,79.0931 293,77.5C 294.428,68.5127 299.095,61.8461 307,57.5C 307.333,54.5 307.667,51.5 308,48.5C 310.483,45.2113 311.483,41.5446 311,37.5C 309.647,38.7042 307.981,39.3708 306,39.5C 298.572,37.826 291.072,37.326 283.5,38C 281.675,39.4659 281.175,41.2992 282,43.5C 286.378,45.096 289.878,47.7626 292.5,51.5C 292.275,55.7499 290.108,58.7499 286,60.5C 279.829,61.635 273.662,61.4684 267.5,60C 264.461,58.2948 262.128,55.9615 260.5,53C 261.461,50.4096 262.128,47.7429 262.5,45C 262.546,43.272 262.046,41.772 261,40.5C 260.103,45.8986 256.937,48.5653 251.5,48.5C 243.011,46.6178 235.178,43.2845 228,38.5C 228.108,45.6897 228.941,52.6897 230.5,59.5C 229.833,60.5 229.167,61.5 228.5,62.5C 228.167,62.5 227.833,62.5 227.5,62.5C 226.951,58.253 224.618,55.4197 220.5,54C 213.234,52.3413 205.901,51.008 198.5,50C 197.584,49.7216 196.918,49.2216 196.5,48.5C 203.508,48.6663 210.508,48.4996 217.5,48C 219.286,47.2155 220.786,46.0488 222,44.5C 222.975,41.2397 224.142,38.073 225.5,35C 224.833,34.3333 224.167,33.6667 223.5,33C 217.92,31.4826 212.253,31.1492 206.5,32C 204.881,32.2355 203.881,33.0689 203.5,34.5C 200.705,35.063 198.372,36.3963 196.5,38.5C 191.203,37.7255 185.87,37.3921 180.5,37.5C 176.5,32.5 176.5,27.5 180.5,22.5C 181.694,23.7773 183.36,24.4439 185.5,24.5C 189.517,24.1404 193.517,23.6404 197.5,23C 199.329,22.7265 200.829,21.8932 202,20.5C 202.483,21.448 202.649,22.448 202.5,23.5C 209.789,23.4023 216.956,23.7356 224,24.5C 228.379,24.5824 231.546,22.749 233.5,19C 231.993,18.1627 231.493,16.9961 232,15.5C 232.333,15.8333 232.667,16.1667 233,16.5C 234.736,14.9368 236.236,13.2701 237.5,11.5C 238.608,8.20588 240.608,5.53921 243.5,3.5 Z"/></g>
<g><path style="opacity:1" fill="#2d2a26" d="M 260.5,1.5 C 265.322,2.99773 269.322,5.66439 272.5,9.5C 271.609,10.2613 270.942,11.2613 270.5,12.5C 261.817,13.7032 253.151,13.5365 244.5,12C 243.084,10.0849 243.418,8.58487 245.5,7.5C 245.918,8.22158 246.584,8.72158 247.5,9C 254.46,10.0867 261.46,10.5867 268.5,10.5C 268.759,7.52034 267.426,5.68701 264.5,5C 259.5,4.66667 254.5,4.33333 249.5,4C 253.28,3.08205 256.946,2.24871 260.5,1.5 Z"/></g>
<g><path style="opacity:1" fill="#2b2825" d="M 310.5,16.5 C 308.954,17.6358 307.121,18.3025 305,18.5C 299.656,17.9154 294.323,17.2487 289,16.5C 287.439,16.6032 285.939,16.9366 284.5,17.5C 283.702,17.0431 283.369,16.3764 283.5,15.5C 287.47,11.2424 292.47,9.24238 298.5,9.5C 304.12,9.30219 308.12,11.6355 310.5,16.5 Z"/></g>
<g><path style="opacity:1" fill="#423f3d" d="M 253.5,27.5 C 253.298,33.7034 249.964,37.0367 243.5,37.5C 240.041,37.1089 236.707,36.2755 233.5,35C 231.393,33.7365 230.393,31.9032 230.5,29.5C 237.604,22.423 245.271,21.7563 253.5,27.5 Z"/></g>
<g><path style="opacity:1" fill="#3d3a37" d="M 288.5,24.5 C 295.289,23.8183 301.122,25.8183 306,30.5C 306.774,33.727 305.441,35.0603 302,34.5C 299.453,34.2382 296.953,33.7382 294.5,33C 292.833,30 290.5,27.6667 287.5,26C 288.056,25.6174 288.389,25.1174 288.5,24.5 Z"/></g>
<g><path style="opacity:1" fill="#3f3c39" d="M 196.5,38.5 C 198.372,36.3963 200.705,35.063 203.5,34.5C 208.317,32.592 213.317,32.092 218.5,33C 218.957,33.414 219.291,33.914 219.5,34.5C 218.974,37.843 217.974,41.0097 216.5,44C 210.098,46.4297 203.432,47.0963 196.5,46C 193.914,43.506 193.914,41.006 196.5,38.5 Z"/></g>
<g><path style="opacity:1" fill="#15110e" d="M 292.5,51.5 C 297.14,56.2542 296.473,60.0875 290.5,63C 282.125,63.7385 273.792,63.4051 265.5,62C 263.04,60.5422 260.873,58.7089 259,56.5C 257.904,58.4587 257.404,60.6253 257.5,63C 258.654,68.1398 259.654,73.3065 260.5,78.5C 252.928,79.3657 245.428,80.699 238,82.5C 232.915,81.9894 228.582,79.9894 225,76.5C 224.472,79.2187 224.972,81.7187 226.5,84C 226.327,86.0208 225.66,87.8541 224.5,89.5C 215.716,93.8761 206.383,95.7094 196.5,95C 187.34,97.7225 178.006,99.3891 168.5,100C 170.626,101.286 172.959,102.119 175.5,102.5C 178.449,101.698 181.449,101.364 184.5,101.5C 184.167,102.167 183.833,102.833 183.5,103.5C 177.6,106.401 173.933,111.068 172.5,117.5C 171.596,118.209 171.263,119.209 171.5,120.5C 168.737,120.744 166.571,122.077 165,124.5C 161.419,128.909 160.085,133.909 161,139.5C 162.305,142.306 164.472,143.14 167.5,142C 170.578,139.174 172.911,135.841 174.5,132C 171.423,125.497 172.423,124.83 177.5,130C 181.833,130.667 186.167,130.667 190.5,130C 191.09,128.491 191.756,126.991 192.5,125.5C 196.374,128.991 200.707,129.491 205.5,127C 214.969,125.195 220.802,119.695 223,110.5C 225.734,129.372 234.067,132.372 248,119.5C 250.493,113.114 249.993,107.114 246.5,101.5C 250.026,102.36 252.693,104.36 254.5,107.5C 255.417,106.873 256.417,106.539 257.5,106.5C 252.543,112.485 252.21,118.818 256.5,125.5C 258.028,126.861 259.695,128.028 261.5,129C 266.537,129.663 271.537,129.496 276.5,128.5C 274.608,132.315 271.441,133.982 267,133.5C 260.5,133.672 255.166,131.339 251,126.5C 249.661,129.094 247.494,130.594 244.5,131C 235.704,133.126 228.704,130.626 223.5,123.5C 215.131,129.905 205.798,132.238 195.5,130.5C 194.289,131.274 194.289,132.107 195.5,133C 189.106,135.184 182.939,134.684 177,131.5C 176.19,135.358 176.357,139.024 177.5,142.5C 172.985,144.337 169.319,147.337 166.5,151.5C 164.833,152.167 163.167,152.833 161.5,153.5C 162.705,150.003 162.205,147.003 160,144.5C 159.667,142.5 159.333,140.5 159,138.5C 157.287,137.122 155.953,135.455 155,133.5C 154.674,129.47 154.674,125.47 155,121.5C 149.99,116.417 149.157,110.751 152.5,104.5C 152.575,107.206 152.908,109.873 153.5,112.5C 154.873,112.657 156.207,112.49 157.5,112C 158.763,109.614 160.597,107.781 163,106.5C 163.695,104.278 164.528,102.111 165.5,100C 164.711,98.3745 163.711,96.8745 162.5,95.5C 172.785,95.9992 182.452,93.6658 191.5,88.5C 192.314,86.2338 192.814,83.9005 193,81.5C 192.938,86.6938 195.105,90.5271 199.5,93C 207.689,94.0801 215.355,92.5801 222.5,88.5C 222.869,83.0999 223.869,78.0999 225.5,73.5C 230.692,79.4483 237.026,80.9483 244.5,78C 247.368,75.9682 250.368,74.1349 253.5,72.5C 254.641,70.5787 254.808,68.5787 254,66.5C 248.462,59.1573 241.295,56.8239 232.5,59.5C 231.833,59.5 231.167,59.5 230.5,59.5C 228.941,52.6897 228.108,45.6897 228,38.5C 235.178,43.2845 243.011,46.6178 251.5,48.5C 256.937,48.5653 260.103,45.8986 261,40.5C 262.046,41.772 262.546,43.272 262.5,45C 262.128,47.7429 261.461,50.4096 260.5,53C 262.128,55.9615 264.461,58.2948 267.5,60C 273.662,61.4684 279.829,61.635 286,60.5C 290.108,58.7499 292.275,55.7499 292.5,51.5 Z"/></g>
<g><path style="opacity:1" fill="#262320" d="M 253.5,27.5 C 258.883,29.3212 259.883,32.6546 256.5,37.5C 250.741,41.8307 244.408,42.6641 237.5,40C 235.004,38.9196 232.67,37.5862 230.5,36C 229.189,33.7265 229.189,31.5598 230.5,29.5C 230.393,31.9032 231.393,33.7365 233.5,35C 236.707,36.2755 240.041,37.1089 243.5,37.5C 249.964,37.0367 253.298,33.7034 253.5,27.5 Z"/></g>
<g><path style="opacity:1" fill="#2e2b28" d="M 342.5,43.5 C 343.025,48.1455 341.191,49.4789 337,47.5C 332.956,50.5926 329.456,50.0926 326.5,46C 323.776,45.7305 321.109,45.2305 318.5,44.5C 317.018,42.5171 315.351,40.6837 313.5,39C 315.889,38.2612 317.889,37.0946 319.5,35.5C 326.558,34.0099 333.225,35.1766 339.5,39C 341.141,40.129 342.141,41.629 342.5,43.5 Z"/></g>
<g><path style="opacity:1" fill="#231f1c" d="M 196.5,48.5 C 195.5,48.5 194.5,48.5 193.5,48.5C 194.07,52.9115 196.403,56.0782 200.5,58C 199.833,58.1667 199.167,58.3333 198.5,58.5C 188.59,56.9681 178.59,55.9681 168.5,55.5C 167.306,54.2008 166.306,52.8675 165.5,51.5C 168.614,44.7168 173.614,40.0501 180.5,37.5C 185.87,37.3921 191.203,37.7255 196.5,38.5C 193.914,41.006 193.914,43.506 196.5,46C 203.432,47.0963 210.098,46.4297 216.5,44C 217.974,41.0097 218.974,37.843 219.5,34.5C 219.291,33.914 218.957,33.414 218.5,33C 213.317,32.092 208.317,32.592 203.5,34.5C 203.881,33.0689 204.881,32.2355 206.5,32C 212.253,31.1492 217.92,31.4826 223.5,33C 224.167,33.6667 224.833,34.3333 225.5,35C 224.142,38.073 222.975,41.2397 222,44.5C 220.786,46.0488 219.286,47.2155 217.5,48C 210.508,48.4996 203.508,48.6663 196.5,48.5 Z"/></g>
<g><path style="opacity:1" fill="#44413e" d="M 281.5,45.5 C 282.609,45.5569 283.609,45.8902 284.5,46.5C 286.782,54.2329 283.782,57.8996 275.5,57.5C 271.351,57.6874 269.017,55.6874 268.5,51.5C 269.046,49.8653 269.38,48.1986 269.5,46.5C 273.452,45.7279 277.452,45.3946 281.5,45.5 Z"/></g>
<g><path style="opacity:1" fill="#35322f" d="M 181.5,38.5 C 183.833,38.5 186.167,38.5 188.5,38.5C 188.643,40.2624 188.309,41.9291 187.5,43.5C 182.49,49.1726 176.157,51.5059 168.5,50.5C 170.897,44.4371 175.231,40.4371 181.5,38.5 Z"/></g>
<g><path style="opacity:1" fill="#34312e" d="M 281.5,45.5 C 277.452,45.3946 273.452,45.7279 269.5,46.5C 269.38,48.1986 269.046,49.8653 268.5,51.5C 269.017,55.6874 271.351,57.6874 275.5,57.5C 283.782,57.8996 286.782,54.2329 284.5,46.5C 287.312,46.9792 288.645,48.6459 288.5,51.5C 287.861,54.3227 286.527,56.8227 284.5,59C 280.167,59.6667 275.833,59.6667 271.5,59C 263.937,56.0048 262.603,51.3381 267.5,45C 272.397,42.8716 277.064,43.0383 281.5,45.5 Z"/></g>
<g><path style="opacity:0.998" fill="#120e0b" d="M 196.5,48.5 C 196.918,49.2216 197.584,49.7216 198.5,50C 205.901,51.008 213.234,52.3413 220.5,54C 224.618,55.4197 226.951,58.253 227.5,62.5C 226.026,63.4363 225.026,64.7697 224.5,66.5C 218.703,66.4481 212.703,66.6147 206.5,67C 203.166,68.3314 200.166,70.1647 197.5,72.5C 196.534,70.604 196.201,68.604 196.5,66.5C 192.154,66.3343 187.821,66.501 183.5,67C 182.263,67.2321 181.263,67.7321 180.5,68.5C 173.267,71.7336 167.6,76.7336 163.5,83.5C 162.262,85.2143 161.595,87.2143 161.5,89.5C 160.5,89.5 159.5,89.5 158.5,89.5C 151.639,87.4401 149.306,83.1068 151.5,76.5C 158.558,75.8873 164.725,73.2206 170,68.5C 172.367,64.351 171.201,61.6843 166.5,60.5C 165.701,57.5701 165.368,54.5701 165.5,51.5C 166.306,52.8675 167.306,54.2008 168.5,55.5C 178.59,55.9681 188.59,56.9681 198.5,58.5C 199.167,58.3333 199.833,58.1667 200.5,58C 196.403,56.0782 194.07,52.9115 193.5,48.5C 194.5,48.5 195.5,48.5 196.5,48.5 Z"/></g>
<g><path style="opacity:1" fill="#272421" d="M 339.5,60.5 C 347.311,62.1584 354.145,65.825 360,71.5C 361.411,73.6504 362.245,75.9837 362.5,78.5C 359.257,79.58 355.924,79.7466 352.5,79C 348.084,76.7492 343.417,75.0825 338.5,74C 337.475,71.9285 336.642,69.7619 336,67.5C 335.749,69.433 335.249,71.2663 334.5,73C 332.167,73.1667 329.833,73.3333 327.5,73.5C 319.272,71.6078 310.939,70.1078 302.5,69C 301.424,67.2739 301.257,65.4406 302,63.5C 311.85,53.2474 322.017,52.914 332.5,62.5C 334.801,61.6751 337.135,61.0084 339.5,60.5 Z"/></g>
<g><path style="opacity:1" fill="#403d3b" d="M 316.5,58.5 C 322.291,57.4888 327.124,59.1555 331,63.5C 332.362,68.1372 330.696,70.4705 326,70.5C 318.326,69.8843 315.16,65.8843 316.5,58.5 Z"/></g>
<g><path style="opacity:1" fill="#26231f" d="M 166.5,60.5 C 171.201,61.6843 172.367,64.351 170,68.5C 164.725,73.2206 158.558,75.8873 151.5,76.5C 154.419,69.2471 159.419,63.9137 166.5,60.5 Z"/></g>
<g><path style="opacity:1" fill="#413e3c" d="M 230.5,59.5 C 231.167,59.5 231.833,59.5 232.5,59.5C 237.337,59.1162 242.003,59.7829 246.5,61.5C 250.455,65.3715 250.455,69.2049 246.5,73C 244.381,73.0976 242.714,73.9309 241.5,75.5C 230.924,79.0739 226.091,75.4073 227,64.5C 227.717,63.9558 228.217,63.2891 228.5,62.5C 229.167,61.5 229.833,60.5 230.5,59.5 Z"/></g>
<g><path style="opacity:1" fill="#2f2b29" d="M 180.5,68.5 C 184.976,68.8222 186.476,71.1556 185,75.5C 181.5,80.3333 177.333,84.5 172.5,88C 169.773,88.8184 167.106,88.6517 164.5,87.5C 163.754,86.2638 163.421,84.9305 163.5,83.5C 167.6,76.7336 173.267,71.7336 180.5,68.5 Z"/></g>
<g><path style="opacity:1" fill="#2a2724" d="M 232.5,59.5 C 241.295,56.8239 248.462,59.1573 254,66.5C 254.808,68.5787 254.641,70.5787 253.5,72.5C 250.368,74.1349 247.368,75.9682 244.5,78C 237.026,80.9483 230.692,79.4483 225.5,73.5C 224.781,71.2362 224.448,68.9029 224.5,66.5C 225.026,64.7697 226.026,63.4363 227.5,62.5C 227.833,62.5 228.167,62.5 228.5,62.5C 228.217,63.2891 227.717,63.9558 227,64.5C 226.091,75.4073 230.924,79.0739 241.5,75.5C 242.714,73.9309 244.381,73.0976 246.5,73C 250.455,69.2049 250.455,65.3715 246.5,61.5C 242.003,59.7829 237.337,59.1162 232.5,59.5 Z"/></g>
<g><path style="opacity:1" fill="#201d19" d="M 224.5,66.5 C 224.448,68.9029 224.781,71.2362 225.5,73.5C 223.869,78.0999 222.869,83.0999 222.5,88.5C 215.355,92.5801 207.689,94.0801 199.5,93C 195.105,90.5271 192.938,86.6938 193,81.5C 192.814,83.9005 192.314,86.2338 191.5,88.5C 182.452,93.6658 172.785,95.9992 162.5,95.5C 163.711,96.8745 164.711,98.3745 165.5,100C 164.528,102.111 163.695,104.278 163,106.5C 160.597,107.781 158.763,109.614 157.5,112C 156.207,112.49 154.873,112.657 153.5,112.5C 152.908,109.873 152.575,107.206 152.5,104.5C 155.254,99.8336 157.254,94.8336 158.5,89.5C 159.5,89.5 160.5,89.5 161.5,89.5C 161.595,87.2143 162.262,85.2143 163.5,83.5C 163.421,84.9305 163.754,86.2638 164.5,87.5C 167.106,88.6517 169.773,88.8184 172.5,88C 177.333,84.5 181.5,80.3333 185,75.5C 186.476,71.1556 184.976,68.8222 180.5,68.5C 181.263,67.7321 182.263,67.2321 183.5,67C 187.821,66.501 192.154,66.3343 196.5,66.5C 196.201,68.604 196.534,70.604 197.5,72.5C 200.166,70.1647 203.166,68.3314 206.5,67C 212.703,66.6147 218.703,66.4481 224.5,66.5 Z"/></g>
<g><path style="opacity:1" fill="#383533" d="M 201.5,70.5 C 204.85,70.335 208.183,70.5017 211.5,71C 215.361,76.1715 215.194,81.3381 211,86.5C 206.491,91.4992 201.658,91.8325 196.5,87.5C 193.691,83.0183 193.857,78.6849 197,74.5C 198.992,73.6719 200.492,72.3386 201.5,70.5 Z"/></g>
<g><path style="opacity:1" fill="#110e0b" d="M 362.5,80.5 C 362.248,83.6653 360.582,85.6653 357.5,86.5C 356.67,89.8208 356.003,93.1542 355.5,96.5C 354.061,94.6397 352.395,92.973 350.5,91.5C 348.696,89.5047 346.696,87.8381 344.5,86.5C 343.653,85.0337 342.32,84.2004 340.5,84C 337.518,83.502 334.518,83.3354 331.5,83.5C 332.203,88.8523 332.536,94.1856 332.5,99.5C 335.373,100.875 338.373,101.875 341.5,102.5C 345.058,107.023 349.725,108.689 355.5,107.5C 355.082,110.439 353.582,112.772 351,114.5C 350.692,120.6 353.192,121.933 358.5,118.5C 359.309,116.929 359.643,115.262 359.5,113.5C 360.891,117.769 360.724,122.102 359,126.5C 355.714,128.974 352.214,130.974 348.5,132.5C 343.515,133.23 339.848,131.23 337.5,126.5C 336.3,116.969 331.3,110.302 322.5,106.5C 322.5,105.167 322.5,103.833 322.5,102.5C 323.695,96.2434 321.695,91.5767 316.5,88.5C 314.948,85.8881 312.614,84.5548 309.5,84.5C 306.311,83.8339 302.977,83.1672 299.5,82.5C 300.637,79.5302 302.637,77.3635 305.5,76C 315.804,74.8732 326.137,74.3732 336.5,74.5C 336.579,75.9305 336.246,77.2638 335.5,78.5C 336.025,79.1924 336.692,79.6924 337.5,80C 345.873,81.0296 354.207,81.1963 362.5,80.5 Z"/></g>
<g><path style="opacity:1" fill="#201c19" d="M 344.5,86.5 C 343.305,86.3225 342.138,85.9891 341,85.5C 339.268,85.7336 338.434,86.7336 338.5,88.5C 339.808,93.6355 342.475,97.8022 346.5,101C 348.441,101.743 350.274,101.576 352,100.5C 352.788,97.2281 352.288,94.2281 350.5,91.5C 352.395,92.973 354.061,94.6397 355.5,96.5C 355.783,102.501 357.116,108.167 359.5,113.5C 359.643,115.262 359.309,116.929 358.5,118.5C 353.192,121.933 350.692,120.6 351,114.5C 353.582,112.772 355.082,110.439 355.5,107.5C 349.725,108.689 345.058,107.023 341.5,102.5C 338.373,101.875 335.373,100.875 332.5,99.5C 332.536,94.1856 332.203,88.8523 331.5,83.5C 334.518,83.3354 337.518,83.502 340.5,84C 342.32,84.2004 343.653,85.0337 344.5,86.5 Z"/></g>
<g><path style="opacity:1" fill="#3c3936" d="M 286.5,80.5 C 287.609,80.5569 288.609,80.8902 289.5,81.5C 292.5,84.5037 294.167,88.1703 294.5,92.5C 290.928,108.72 283.595,110.72 272.5,98.5C 266.767,84.8717 271.434,78.8717 286.5,80.5 Z"/></g>
<g><path style="opacity:1" fill="#2f2c29" d="M 344.5,86.5 C 346.696,87.8381 348.696,89.5047 350.5,91.5C 352.288,94.2281 352.788,97.2281 352,100.5C 350.274,101.576 348.441,101.743 346.5,101C 342.475,97.8022 339.808,93.6355 338.5,88.5C 338.434,86.7336 339.268,85.7336 341,85.5C 342.138,85.9891 343.305,86.3225 344.5,86.5 Z"/></g>
<g><path style="opacity:1" fill="#25221f" d="M 309.5,84.5 C 312.614,84.5548 314.948,85.8881 316.5,88.5C 321.695,91.5767 323.695,96.2434 322.5,102.5C 320.381,103.791 318.715,105.625 317.5,108C 313.096,108.965 309.096,108.132 305.5,105.5C 300.476,100.122 297.643,93.7882 297,86.5C 297.5,86 298,85.5 298.5,85C 302.152,84.5014 305.818,84.3347 309.5,84.5 Z"/></g>
<g><path style="opacity:1" fill="#3a3734" d="M 316.5,88.5 C 317.995,90.3313 318.662,92.498 318.5,95C 318.202,97.8477 317.869,100.681 317.5,103.5C 310.026,103.858 305.693,100.358 304.5,93C 304.529,86.9035 307.529,84.9035 313.5,87C 314.244,88.0386 315.244,88.5386 316.5,88.5 Z"/></g>
<g><path style="opacity:1" fill="#1e1a17" d="M 198.5,109.5 C 204.935,109.558 210.935,108.058 216.5,105C 220.194,104.722 223.861,104.722 227.5,105C 228.614,103.43 229.947,102.097 231.5,101C 236.584,100.222 241.584,100.389 246.5,101.5C 249.993,107.114 250.493,113.114 248,119.5C 234.067,132.372 225.734,129.372 223,110.5C 220.802,119.695 214.969,125.195 205.5,127C 200.707,129.491 196.374,128.991 192.5,125.5C 191.756,126.991 191.09,128.491 190.5,130C 186.167,130.667 181.833,130.667 177.5,130C 172.423,124.83 171.423,125.497 174.5,132C 172.911,135.841 170.578,139.174 167.5,142C 164.472,143.14 162.305,142.306 161,139.5C 160.085,133.909 161.419,128.909 165,124.5C 166.571,122.077 168.737,120.744 171.5,120.5C 171.263,119.209 171.596,118.209 172.5,117.5C 171.995,121.163 173.495,123.497 177,124.5C 183.657,120.177 188.49,114.343 191.5,107C 189.609,104.198 186.942,103.032 183.5,103.5C 183.833,102.833 184.167,102.167 184.5,101.5C 188.768,100.627 193.102,100.294 197.5,100.5C 195.9,103.8 196.233,106.8 198.5,109.5 Z"/></g>
<g><path style="opacity:1" fill="#23201d" d="M 322.5,106.5 C 331.3,110.302 336.3,116.969 337.5,126.5C 337.649,129.607 337.149,132.607 336,135.5C 334.136,138.207 331.636,139.041 328.5,138C 324.499,136.627 320.999,134.461 318,131.5C 318.212,124.883 318.546,118.216 319,111.5C 320.669,110.154 321.836,108.487 322.5,106.5 Z"/></g>
<g><path style="opacity:1" fill="#292623" d="M 198.5,109.5 C 216.35,108.883 218.017,114.049 203.5,125C 192.124,126.431 188.958,121.931 194,111.5C 195.11,109.963 196.61,109.297 198.5,109.5 Z"/></g>
<g><path style="opacity:1" fill="#100d0a" d="M 289.5,81.5 C 288.609,80.8902 287.609,80.5569 286.5,80.5C 285.571,79.6851 284.571,78.8518 283.5,78C 277.226,76.9486 271.226,77.782 265.5,80.5C 263.248,82.5044 261.914,85.0044 261.5,88C 264.748,97.7429 270.748,105.243 279.5,110.5C 282.784,111.657 286.118,111.824 289.5,111C 290.904,109.663 292.404,108.497 294,107.5C 298.363,109.399 302.863,110.899 307.5,112C 310.76,112.784 313.927,112.617 317,111.5C 317.284,118.847 317.284,126.181 317,133.5C 320.167,136 323.333,138.5 326.5,141C 329.429,141.777 332.263,141.61 335,140.5C 334.388,142.752 334.055,145.085 334,147.5C 337.29,152.059 341.79,153.725 347.5,152.5C 348.031,149.885 349.031,148.218 350.5,147.5C 350.306,154.029 346.973,157.029 340.5,156.5C 341.323,164.254 339.323,171.087 334.5,177C 331.469,177.495 328.469,177.329 325.5,176.5C 324.644,180.883 322.31,184.216 318.5,186.5C 316.775,183.375 315.275,180.042 314,176.5C 308.527,171.027 303.027,165.527 297.5,160C 293.583,158.521 289.583,157.354 285.5,156.5C 279.331,148.099 270.997,143.432 260.5,142.5C 260.719,143.675 260.386,144.675 259.5,145.5C 252.897,137.522 244.563,134.522 234.5,136.5C 232.468,137.561 231.134,139.228 230.5,141.5C 228.641,139.808 226.641,138.308 224.5,137C 215.495,136.625 206.495,136.792 197.5,137.5C 195.94,137.481 194.44,137.148 193,136.5C 187.945,138.233 183.112,140.233 178.5,142.5C 178.167,142.5 177.833,142.5 177.5,142.5C 176.357,139.024 176.19,135.358 177,131.5C 182.939,134.684 189.106,135.184 195.5,133C 194.289,132.107 194.289,131.274 195.5,130.5C 205.798,132.238 215.131,129.905 223.5,123.5C 228.704,130.626 235.704,133.126 244.5,131C 247.494,130.594 249.661,129.094 251,126.5C 255.166,131.339 260.5,133.672 267,133.5C 271.441,133.982 274.608,132.315 276.5,128.5C 278.344,127.796 278.844,126.463 278,124.5C 274.57,119.977 271.903,114.977 270,109.5C 267.876,108.378 266.043,106.878 264.5,105C 261.788,104.174 259.455,104.674 257.5,106.5C 256.417,106.539 255.417,106.873 254.5,107.5C 252.693,104.36 250.026,102.36 246.5,101.5C 241.584,100.389 236.584,100.222 231.5,101C 229.947,102.097 228.614,103.43 227.5,105C 223.861,104.722 220.194,104.722 216.5,105C 210.935,108.058 204.935,109.558 198.5,109.5C 196.233,106.8 195.9,103.8 197.5,100.5C 193.102,100.294 188.768,100.627 184.5,101.5C 181.449,101.364 178.449,101.698 175.5,102.5C 172.959,102.119 170.626,101.286 168.5,100C 178.006,99.3891 187.34,97.7225 196.5,95C 206.383,95.7094 215.716,93.8761 224.5,89.5C 225.66,87.8541 226.327,86.0208 226.5,84C 224.972,81.7187 224.472,79.2187 225,76.5C 228.582,79.9894 232.915,81.9894 238,82.5C 245.428,80.699 252.928,79.3657 260.5,78.5C 259.654,73.3065 258.654,68.1398 257.5,63C 257.404,60.6253 257.904,58.4587 259,56.5C 260.873,58.7089 263.04,60.5422 265.5,62C 273.792,63.4051 282.125,63.7385 290.5,63C 296.473,60.0875 297.14,56.2542 292.5,51.5C 289.878,47.7626 286.378,45.096 282,43.5C 281.175,41.2992 281.675,39.4659 283.5,38C 291.072,37.326 298.572,37.826 306,39.5C 307.981,39.3708 309.647,38.7042 311,37.5C 311.483,41.5446 310.483,45.2113 308,48.5C 307.667,51.5 307.333,54.5 307,57.5C 299.095,61.8461 294.428,68.5127 293,77.5C 292.051,79.0931 290.885,80.4264 289.5,81.5 Z"/></g>
<g><path style="opacity:1" fill="#292623" d="M 183.5,103.5 C 186.942,103.032 189.609,104.198 191.5,107C 188.49,114.343 183.657,120.177 177,124.5C 173.495,123.497 171.995,121.163 172.5,117.5C 173.933,111.068 177.6,106.401 183.5,103.5 Z"/></g>
<g><path style="opacity:1" fill="#2f2c2a" d="M 230.5,105.5 C 239.66,104.492 243.494,108.492 242,117.5C 238.803,123.521 233.969,125.187 227.5,122.5C 227.496,120.158 226.663,118.158 225,116.5C 224.333,113.833 224.333,111.167 225,108.5C 226.876,107.391 228.709,106.391 230.5,105.5 Z"/></g>
<g><path style="opacity:1" fill="#211e1b" d="M 276.5,128.5 C 271.537,129.496 266.537,129.663 261.5,129C 259.695,128.028 258.028,126.861 256.5,125.5C 252.21,118.818 252.543,112.485 257.5,106.5C 259.455,104.674 261.788,104.174 264.5,105C 266.043,106.878 267.876,108.378 270,109.5C 271.903,114.977 274.57,119.977 278,124.5C 278.844,126.463 278.344,127.796 276.5,128.5 Z"/></g>
<g><path style="opacity:1" fill="#1e1b18" d="M 292.5,121.5 C 297.698,121.857 301.198,124.524 303,129.5C 303.495,131.473 303.662,133.473 303.5,135.5C 314.689,132.203 319.523,136.203 318,147.5C 315.866,157.556 310.199,160.223 301,155.5C 300.518,152.093 300.518,148.76 301,145.5C 292.327,150.166 284.327,149.166 277,142.5C 275.744,137.787 276.911,133.787 280.5,130.5C 286.23,129.766 290.23,126.766 292.5,121.5 Z"/></g>
<g><path style="opacity:1" fill="#2d2a27" d="M 291.5,130.5 C 295.841,129.52 298.174,131.187 298.5,135.5C 298.668,140.056 296.668,143.056 292.5,144.5C 289.079,143.027 287.079,140.361 286.5,136.5C 287.465,133.872 289.132,131.872 291.5,130.5 Z"/></g>
<g><path style="opacity:1" fill="#312e2b" d="M 234.5,136.5 C 241.794,137.632 248.794,139.798 255.5,143C 260.038,147.915 261.705,153.749 260.5,160.5C 262.124,160.64 263.29,159.973 264,158.5C 265.828,160.807 267.494,160.474 269,157.5C 269.728,154.77 269.562,152.103 268.5,149.5C 269.723,148.386 271.056,148.219 272.5,149C 275.861,150.584 278.694,152.75 281,155.5C 281.798,164.362 277.631,168.195 268.5,167C 265.209,167.984 262.043,169.151 259,170.5C 256.637,170.473 255.137,169.306 254.5,167C 250.324,166.573 246.158,166.073 242,165.5C 240.615,165.514 239.449,165.848 238.5,166.5C 236.194,166.993 233.861,167.326 231.5,167.5C 231.5,165.5 231.5,163.5 231.5,161.5C 224.792,160.657 218.125,159.491 211.5,158C 209.249,157.252 207.916,155.752 207.5,153.5C 210.866,156.458 214.866,157.958 219.5,158C 224.731,158.904 229.731,158.404 234.5,156.5C 234.258,159.681 234.258,162.681 234.5,165.5C 242.031,164.849 249.531,164.182 257,163.5C 257.867,159.044 257.534,154.711 256,150.5C 252.728,148.448 249.228,146.782 245.5,145.5C 244.104,143.267 242.271,141.601 240,140.5C 237.63,142.197 235.463,144.197 233.5,146.5C 230.632,144.468 227.632,142.635 224.5,141C 213.544,140.441 202.877,140.941 192.5,142.5C 193.861,140.473 195.527,138.806 197.5,137.5C 206.495,136.792 215.495,136.625 224.5,137C 226.641,138.308 228.641,139.808 230.5,141.5C 231.134,139.228 232.468,137.561 234.5,136.5 Z"/></g>
<g><path style="opacity:1" fill="#35322f" d="M 177.5,142.5 C 177.833,142.5 178.167,142.5 178.5,142.5C 182.061,142.748 185.728,142.915 189.5,143C 184.048,147.962 182.048,154.129 183.5,161.5C 181.09,162.389 178.59,163.055 176,163.5C 172.509,163.369 171.009,161.535 171.5,158C 171.925,155.378 172.425,152.878 173,150.5C 170.444,153.712 168.944,157.378 168.5,161.5C 169.323,163.805 170.656,165.805 172.5,167.5C 171.66,168.735 170.66,169.735 169.5,170.5C 168.542,170.953 167.708,171.619 167,172.5C 161.198,165.749 161.031,158.749 166.5,151.5C 169.319,147.337 172.985,144.337 177.5,142.5 Z"/></g>
<g><path style="opacity:1" fill="#25211e" d="M 234.5,136.5 C 244.563,134.522 252.897,137.522 259.5,145.5C 260.386,144.675 260.719,143.675 260.5,142.5C 270.997,143.432 279.331,148.099 285.5,156.5C 289.261,161.623 289.427,166.956 286,172.5C 283.543,173.978 281.043,175.311 278.5,176.5C 277.833,176.167 277.167,175.833 276.5,175.5C 278.138,172.696 279.971,170.029 282,167.5C 282.667,166.167 282.667,164.833 282,163.5C 279.124,166.487 275.958,168.987 272.5,171C 265.833,171.667 259.167,171.667 252.5,171C 248.173,168.504 243.506,167.004 238.5,166.5C 239.449,165.848 240.615,165.514 242,165.5C 246.158,166.073 250.324,166.573 254.5,167C 255.137,169.306 256.637,170.473 259,170.5C 262.043,169.151 265.209,167.984 268.5,167C 277.631,168.195 281.798,164.362 281,155.5C 278.694,152.75 275.861,150.584 272.5,149C 271.056,148.219 269.723,148.386 268.5,149.5C 269.562,152.103 269.728,154.77 269,157.5C 267.494,160.474 265.828,160.807 264,158.5C 263.29,159.973 262.124,160.64 260.5,160.5C 261.705,153.749 260.038,147.915 255.5,143C 248.794,139.798 241.794,137.632 234.5,136.5 Z"/></g>
<g><path style="opacity:1" fill="#383533" d="M 207.5,153.5 C 207.205,151.577 206.372,149.91 205,148.5C 204.503,151.146 204.336,153.813 204.5,156.5C 200.154,156.666 195.821,156.499 191.5,156C 185.842,151.107 186.175,146.607 192.5,142.5C 202.877,140.941 213.544,140.441 224.5,141C 227.632,142.635 230.632,144.468 233.5,146.5C 235.463,144.197 237.63,142.197 240,140.5C 242.271,141.601 244.104,143.267 245.5,145.5C 249.228,146.782 252.728,148.448 256,150.5C 257.534,154.711 257.867,159.044 257,163.5C 249.531,164.182 242.031,164.849 234.5,165.5C 234.258,162.681 234.258,159.681 234.5,156.5C 229.731,158.404 224.731,158.904 219.5,158C 214.866,157.958 210.866,156.458 207.5,153.5 Z"/></g>
<g><path style="opacity:1" fill="#2a2623" d="M 166.5,151.5 C 161.031,158.749 161.198,165.749 167,172.5C 167.708,171.619 168.542,170.953 169.5,170.5C 170.167,170.5 170.5,170.833 170.5,171.5C 163.183,181.803 157.183,192.803 152.5,204.5C 151.885,195.835 151.218,187.169 150.5,178.5C 150.505,176.304 150.838,174.304 151.5,172.5C 151.681,178.223 152.347,183.89 153.5,189.5C 153.46,191.429 153.127,193.262 152.5,195C 153.449,195.617 154.282,195.451 155,194.5C 156.79,190.673 157.956,186.673 158.5,182.5C 160.346,182.778 161.68,182.111 162.5,180.5C 157.708,174.215 156.208,167.215 158,159.5C 157.292,160.381 156.458,161.047 155.5,161.5C 156.542,158.07 158.542,155.403 161.5,153.5C 163.167,152.833 164.833,152.167 166.5,151.5 Z"/></g>
<g><path style="opacity:1" fill="#1e1a17" d="M 197.5,137.5 C 195.527,138.806 193.861,140.473 192.5,142.5C 186.175,146.607 185.842,151.107 191.5,156C 195.821,156.499 200.154,156.666 204.5,156.5C 204.336,153.813 204.503,151.146 205,148.5C 206.372,149.91 207.205,151.577 207.5,153.5C 207.916,155.752 209.249,157.252 211.5,158C 218.125,159.491 224.792,160.657 231.5,161.5C 231.5,163.5 231.5,165.5 231.5,167.5C 233.861,167.326 236.194,166.993 238.5,166.5C 243.506,167.004 248.173,168.504 252.5,171C 259.167,171.667 265.833,171.667 272.5,171C 275.958,168.987 279.124,166.487 282,163.5C 282.667,164.833 282.667,166.167 282,167.5C 279.971,170.029 278.138,172.696 276.5,175.5C 277.167,175.833 277.833,176.167 278.5,176.5C 281.043,175.311 283.543,173.978 286,172.5C 289.427,166.956 289.261,161.623 285.5,156.5C 289.583,157.354 293.583,158.521 297.5,160C 303.027,165.527 308.527,171.027 314,176.5C 315.275,180.042 316.775,183.375 318.5,186.5C 318.748,190.906 319.415,195.24 320.5,199.5C 320.663,201.857 320.497,204.19 320,206.5C 317.61,208.267 315.943,210.6 315,213.5C 313.295,220.657 311.128,227.657 308.5,234.5C 309.527,236.024 311.027,236.691 313,236.5C 317.159,234.177 318.326,235.177 316.5,239.5C 313.572,240.484 310.572,240.817 307.5,240.5C 307.5,236.5 307.5,232.5 307.5,228.5C 307.666,222.491 307.499,216.491 307,210.5C 306.365,205.757 304.865,201.424 302.5,197.5C 301.737,195.632 300.737,193.965 299.5,192.5C 298.952,190.606 297.952,188.94 296.5,187.5C 292.668,184.75 288.668,182.25 284.5,180C 266.366,175.44 248.033,171.773 229.5,169C 223.758,167.197 218.091,165.197 212.5,163C 204.214,161.546 195.881,161.213 187.5,162C 184.177,163.04 181.177,164.54 178.5,166.5C 177.508,166.328 176.842,166.662 176.5,167.5C 174.246,168.415 172.246,169.748 170.5,171.5C 170.5,170.833 170.167,170.5 169.5,170.5C 170.66,169.735 171.66,168.735 172.5,167.5C 170.656,165.805 169.323,163.805 168.5,161.5C 168.944,157.378 170.444,153.712 173,150.5C 172.425,152.878 171.925,155.378 171.5,158C 171.009,161.535 172.509,163.369 176,163.5C 178.59,163.055 181.09,162.389 183.5,161.5C 182.048,154.129 184.048,147.962 189.5,143C 185.728,142.915 182.061,142.748 178.5,142.5C 183.112,140.233 187.945,138.233 193,136.5C 194.44,137.148 195.94,137.481 197.5,137.5 Z"/></g>
<g><path style="opacity:1" fill="#3a3734" d="M 151.5,172.5 C 152.555,168.725 153.888,165.058 155.5,161.5C 156.458,161.047 157.292,160.381 158,159.5C 156.208,167.215 157.708,174.215 162.5,180.5C 161.68,182.111 160.346,182.778 158.5,182.5C 157.956,186.673 156.79,190.673 155,194.5C 154.282,195.451 153.449,195.617 152.5,195C 153.127,193.262 153.46,191.429 153.5,189.5C 152.347,183.89 151.681,178.223 151.5,172.5 Z"/></g>
<g><path style="opacity:1" fill="#865e41" d="M 203.5,165.5 C 199.833,165.164 196.5,165.997 193.5,168C 190.984,170.863 188.817,174.03 187,177.5C 184.287,185.186 182.12,193.019 180.5,201C 180.691,205.019 182.691,207.186 186.5,207.5C 182.486,207.334 178.486,207.501 174.5,208C 172.934,208.608 171.6,209.442 170.5,210.5C 169.167,210.5 167.833,210.5 166.5,210.5C 167.081,205.753 168.081,201.086 169.5,196.5C 168.8,187.99 169.966,179.656 173,171.5C 174.376,170.295 175.542,168.962 176.5,167.5C 176.842,166.662 177.508,166.328 178.5,166.5C 186.869,164.374 195.202,164.041 203.5,165.5 Z"/></g>
<g><path style="opacity:1" fill="#946f57" d="M 208.5,166.5 C 215.762,167.548 222.762,169.215 229.5,171.5C 218.02,169.329 208.52,172.662 201,181.5C 197.261,188.073 197.761,194.24 202.5,200C 221.634,216.07 241.134,216.57 261,201.5C 263.752,191.806 260.919,183.972 252.5,178C 250.5,177.667 248.5,177.333 246.5,177C 245.244,176.583 244.577,175.75 244.5,174.5C 249.303,174.994 253.97,175.994 258.5,177.5C 261.949,178.97 265.616,180.136 269.5,181C 271.283,182.739 272.95,184.572 274.5,186.5C 279.029,199.722 275.362,209.555 263.5,216C 250.61,217.524 237.944,219.857 225.5,223C 222.681,220.425 219.681,218.092 216.5,216C 208.662,212.276 200.662,208.943 192.5,206C 190.351,204.848 188.518,203.348 187,201.5C 186.336,197.304 186.503,193.138 187.5,189C 189.693,180.262 194.359,173.262 201.5,168C 203.677,166.798 206.011,166.298 208.5,166.5 Z"/></g>
<g><path style="opacity:1" fill="#8b664c" d="M 203.5,165.5 C 205.415,165.216 207.081,165.549 208.5,166.5C 206.011,166.298 203.677,166.798 201.5,168C 194.359,173.262 189.693,180.262 187.5,189C 186.503,193.138 186.336,197.304 187,201.5C 188.518,203.348 190.351,204.848 192.5,206C 200.662,208.943 208.662,212.276 216.5,216C 219.681,218.092 222.681,220.425 225.5,223C 237.944,219.857 250.61,217.524 263.5,216C 275.362,209.555 279.029,199.722 274.5,186.5C 272.95,184.572 271.283,182.739 269.5,181C 265.616,180.136 261.949,178.97 258.5,177.5C 263.523,178.006 268.523,178.673 273.5,179.5C 274.105,181.026 275.271,182.026 277,182.5C 281.648,195.144 280.148,207.144 272.5,218.5C 270.78,219.934 268.78,220.767 266.5,221C 258.438,221.136 250.438,221.803 242.5,223C 238.138,223.915 235.138,226.415 233.5,230.5C 226.602,228.41 219.602,227.91 212.5,229C 209.664,225.333 206.664,221.833 203.5,218.5C 209.128,218.413 209.795,216.58 205.5,213C 199.161,211.052 192.827,209.219 186.5,207.5C 182.691,207.186 180.691,205.019 180.5,201C 182.12,193.019 184.287,185.186 187,177.5C 188.817,174.03 190.984,170.863 193.5,168C 196.5,165.997 199.833,165.164 203.5,165.5 Z"/></g>
<g><path style="opacity:1" fill="#785032" d="M 176.5,167.5 C 175.542,168.962 174.376,170.295 173,171.5C 169.966,179.656 168.8,187.99 169.5,196.5C 168.081,201.086 167.081,205.753 166.5,210.5C 160.833,211.167 155.167,211.833 149.5,212.5C 151.06,210.046 152.06,207.38 152.5,204.5C 157.183,192.803 163.183,181.803 170.5,171.5C 172.246,169.748 174.246,168.415 176.5,167.5 Z"/></g>
<g><path style="opacity:1" fill="#4b290c" d="M 299.5,192.5 C 296.365,189.099 292.698,186.433 288.5,184.5C 283.574,182.636 278.574,180.969 273.5,179.5C 268.523,178.673 263.523,178.006 258.5,177.5C 253.97,175.994 249.303,174.994 244.5,174.5C 239.354,174.115 234.354,173.115 229.5,171.5C 222.762,169.215 215.762,167.548 208.5,166.5C 207.081,165.549 205.415,165.216 203.5,165.5C 195.202,164.041 186.869,164.374 178.5,166.5C 181.177,164.54 184.177,163.04 187.5,162C 195.881,161.213 204.214,161.546 212.5,163C 218.091,165.197 223.758,167.197 229.5,169C 248.033,171.773 266.366,175.44 284.5,180C 288.668,182.25 292.668,184.75 296.5,187.5C 297.952,188.94 298.952,190.606 299.5,192.5 Z"/></g>
<g><path style="opacity:1" fill="#9c7a64" d="M 229.5,171.5 C 234.354,173.115 239.354,174.115 244.5,174.5C 244.577,175.75 245.244,176.583 246.5,177C 248.5,177.333 250.5,177.667 252.5,178C 260.919,183.972 263.752,191.806 261,201.5C 241.134,216.57 221.634,216.07 202.5,200C 197.761,194.24 197.261,188.073 201,181.5C 208.52,172.662 218.02,169.329 229.5,171.5 Z"/></g>
<g><path style="opacity:1" fill="#282421" d="M 290.5,159.5 C 294.548,159.441 297.715,161.108 300,164.5C 301.507,167.701 303.007,170.868 304.5,174C 304.07,175.434 303.236,176.601 302,177.5C 296.359,176.561 290.859,176.561 285.5,177.5C 290.109,172.451 291.776,166.451 290.5,159.5 Z"/></g>
<g><path style="opacity:1" fill="#795234" d="M 288.5,184.5 C 292.698,186.433 296.365,189.099 299.5,192.5C 300.737,193.965 301.737,195.632 302.5,197.5C 303.135,200.493 303.301,203.493 303,206.5C 299.629,216.971 296.296,226.638 293,235.5C 292.722,236.416 292.222,237.082 291.5,237.5C 290.167,236.833 288.833,236.167 287.5,235.5C 287.489,233.983 286.823,232.816 285.5,232C 283.007,230.581 280.674,229.081 278.5,227.5C 279.794,226.71 280.961,225.71 282,224.5C 284.08,215.434 286.413,206.434 289,197.5C 289.706,193.113 289.54,188.78 288.5,184.5 Z"/></g>
<g><path style="opacity:1" fill="#1b1714" d="M 155.5,161.5 C 153.888,165.058 152.555,168.725 151.5,172.5C 150.838,174.304 150.505,176.304 150.5,178.5C 151.218,187.169 151.885,195.835 152.5,204.5C 152.06,207.38 151.06,210.046 149.5,212.5C 148.89,213.391 148.557,214.391 148.5,215.5C 145.541,221.863 143.041,228.529 141,235.5C 140.667,235.833 140.333,236.167 140,236.5C 139.768,235.263 139.268,234.263 138.5,233.5C 138.607,229.465 138.274,225.465 137.5,221.5C 139.965,214.073 141.132,206.407 141,198.5C 143.544,190.578 145.878,182.578 148,174.5C 149.533,169.501 152.033,165.167 155.5,161.5 Z"/></g>
<g><path style="opacity:1" fill="#845e43" d="M 273.5,179.5 C 278.574,180.969 283.574,182.636 288.5,184.5C 289.54,188.78 289.706,193.113 289,197.5C 286.413,206.434 284.08,215.434 282,224.5C 280.961,225.71 279.794,226.71 278.5,227.5C 269.332,225.188 259.998,224.188 250.5,224.5C 249.756,227.95 251.09,229.616 254.5,229.5C 249.921,230.746 245.588,232.746 241.5,235.5C 238.769,233.808 236.102,232.142 233.5,230.5C 235.138,226.415 238.138,223.915 242.5,223C 250.438,221.803 258.438,221.136 266.5,221C 268.78,220.767 270.78,219.934 272.5,218.5C 280.148,207.144 281.648,195.144 277,182.5C 275.271,182.026 274.105,181.026 273.5,179.5 Z"/></g>
<g><path style="opacity:1" fill="#674225" d="M 302.5,197.5 C 304.865,201.424 306.365,205.757 307,210.5C 307.499,216.491 307.666,222.491 307.5,228.5C 306.511,233.975 306.178,239.642 306.5,245.5C 301.016,243.593 296.016,240.927 291.5,237.5C 292.222,237.082 292.722,236.416 293,235.5C 296.296,226.638 299.629,216.971 303,206.5C 303.301,203.493 303.135,200.493 302.5,197.5 Z"/></g>
<g><path style="opacity:1" fill="#3e3027" d="M 186.5,207.5 C 192.827,209.219 199.161,211.052 205.5,213C 209.795,216.58 209.128,218.413 203.5,218.5C 193.17,213.168 182.17,210.501 170.5,210.5C 171.6,209.442 172.934,208.608 174.5,208C 178.486,207.501 182.486,207.334 186.5,207.5 Z"/></g>
<g><path style="opacity:1" fill="#392c23" d="M 278.5,227.5 C 280.674,229.081 283.007,230.581 285.5,232C 286.823,232.816 287.489,233.983 287.5,235.5C 277.04,230.675 266.04,228.675 254.5,229.5C 251.09,229.616 249.756,227.95 250.5,224.5C 259.998,224.188 269.332,225.188 278.5,227.5 Z"/></g>
<g><path style="opacity:1" fill="#8a6144" d="M 138.5,233.5 C 138.665,236.85 138.498,240.183 138,243.5C 137.71,245.044 137.044,246.377 136,247.5C 133.624,242.886 130.791,238.552 127.5,234.5C 125.591,233.652 123.591,233.318 121.5,233.5C 127.217,225.515 132.883,225.515 138.5,233.5 Z"/></g>
<g><path style="opacity:0.991" fill="#16120f" d="M 320.5,199.5 C 321.602,219.885 319.768,240.219 315,260.5C 313.671,263.829 311.837,266.829 309.5,269.5C 308.833,269.5 308.5,269.833 308.5,270.5C 307.542,270.953 306.708,271.619 306,272.5C 305.833,270.5 305.667,268.5 305.5,266.5C 306.826,257.883 307.493,249.216 307.5,240.5C 310.572,240.817 313.572,240.484 316.5,239.5C 318.326,235.177 317.159,234.177 313,236.5C 311.027,236.691 309.527,236.024 308.5,234.5C 311.128,227.657 313.295,220.657 315,213.5C 315.943,210.6 317.61,208.267 320,206.5C 320.497,204.19 320.663,201.857 320.5,199.5 Z"/></g>
<g><path style="opacity:1" fill="#b9b7b5" d="M 118.5,263.5 C 117.566,262.432 117.232,261.099 117.5,259.5C 119.379,258.659 121.379,258.325 123.5,258.5C 124.117,262.989 122.45,264.656 118.5,263.5 Z"/></g>
<g><path style="opacity:1" fill="#bc537f" d="M 166.5,210.5 C 167.833,210.5 169.167,210.5 170.5,210.5C 182.17,210.501 193.17,213.168 203.5,218.5C 206.664,221.833 209.664,225.333 212.5,229C 219.602,227.91 226.602,228.41 233.5,230.5C 236.102,232.142 238.769,233.808 241.5,235.5C 245.588,232.746 249.921,230.746 254.5,229.5C 266.04,228.675 277.04,230.675 287.5,235.5C 288.833,236.167 290.167,236.833 291.5,237.5C 296.016,240.927 301.016,243.593 306.5,245.5C 307.137,249.455 305.637,252.122 302,253.5C 301.162,263.203 298.329,272.203 293.5,280.5C 292.167,281.167 291.167,282.167 290.5,283.5C 287.159,285.503 283.825,287.503 280.5,289.5C 268.376,292.05 257.376,289.716 247.5,282.5C 236.998,271.161 233.665,257.827 237.5,242.5C 238.598,241.399 238.765,240.066 238,238.5C 231.515,232.886 224.015,231.052 215.5,233C 214.244,233.417 213.577,234.25 213.5,235.5C 212.331,244.846 208.665,253.179 202.5,260.5C 188.623,272.313 173.623,273.647 157.5,264.5C 154.423,261.431 151.756,258.097 149.5,254.5C 147.672,250.015 146.672,245.348 146.5,240.5C 146.789,234.219 147.789,228.053 149.5,222C 149.212,219.813 148.878,217.646 148.5,215.5C 148.557,214.391 148.89,213.391 149.5,212.5C 155.167,211.833 160.833,211.167 166.5,210.5 Z"/></g>
<g><path style="opacity:1" fill="#504c49" d="M 276.5,256.5 C 275.361,260.301 274.528,264.301 274,268.5C 273.5,269 273,269.5 272.5,270C 274.134,270.494 275.801,270.66 277.5,270.5C 277.5,270.833 277.5,271.167 277.5,271.5C 276.508,271.328 275.842,271.662 275.5,272.5C 273.265,272.795 271.265,272.461 269.5,271.5C 267.469,271.028 265.802,270.028 264.5,268.5C 265.605,267.4 266.938,266.733 268.5,266.5C 270.042,265.699 271.708,265.366 273.5,265.5C 273.952,261.837 274.452,258.17 275,254.5C 275.717,255.044 276.217,255.711 276.5,256.5 Z"/></g>
<g><path style="opacity:1" fill="#adacac" d="M 249.5,256.5 C 247.968,260.593 248.635,264.426 251.5,268C 250.552,268.483 249.552,268.649 248.5,268.5C 246.351,267.264 244.018,266.264 241.5,265.5C 240.699,263.958 240.366,262.292 240.5,260.5C 241.5,260.167 242.167,259.5 242.5,258.5C 244.429,256.852 246.429,255.185 248.5,253.5C 249.386,254.325 249.719,255.325 249.5,256.5 Z"/></g>
<g><path style="opacity:1" fill="#b4b4b4" d="M 276.5,256.5 C 281.703,259.004 283.703,263.004 282.5,268.5C 280.925,269.456 279.258,270.123 277.5,270.5C 275.801,270.66 274.134,270.494 272.5,270C 273,269.5 273.5,269 274,268.5C 274.528,264.301 275.361,260.301 276.5,256.5 Z"/></g>
<g><path style="opacity:1" fill="#2b2723" d="M 249.5,256.5 C 249.338,258.527 249.505,260.527 250,262.5C 250.419,261.328 251.085,260.328 252,259.5C 253.256,266.593 257.422,269.593 264.5,268.5C 265.802,270.028 267.469,271.028 269.5,271.5C 262.182,271.713 255.182,270.713 248.5,268.5C 249.552,268.649 250.552,268.483 251.5,268C 248.635,264.426 247.968,260.593 249.5,256.5 Z"/></g>
<g><path style="opacity:1" fill="#131110" d="M 263.5,246.5 C 265.611,247.736 267.611,249.236 269.5,251C 268.167,251.333 266.833,251.667 265.5,252C 270.896,255.948 271.896,260.781 268.5,266.5C 266.938,266.733 265.605,267.4 264.5,268.5C 257.422,269.593 253.256,266.593 252,259.5C 251.085,260.328 250.419,261.328 250,262.5C 249.505,260.527 249.338,258.527 249.5,256.5C 249.719,255.325 249.386,254.325 248.5,253.5C 246.429,255.185 244.429,256.852 242.5,258.5C 241.475,258.103 241.308,257.437 242,256.5C 247.335,249.249 254.502,245.916 263.5,246.5 Z"/></g>
<g><path style="opacity:1" fill="#272524" d="M 263.5,246.5 C 272.489,248.494 280.155,252.828 286.5,259.5C 287.914,261.054 289.581,262.388 291.5,263.5C 288.024,268.238 283.358,270.905 277.5,271.5C 277.5,271.167 277.5,270.833 277.5,270.5C 279.258,270.123 280.925,269.456 282.5,268.5C 283.703,263.004 281.703,259.004 276.5,256.5C 276.217,255.711 275.717,255.044 275,254.5C 274.452,258.17 273.952,261.837 273.5,265.5C 271.708,265.366 270.042,265.699 268.5,266.5C 271.896,260.781 270.896,255.948 265.5,252C 266.833,251.667 268.167,251.333 269.5,251C 267.611,249.236 265.611,247.736 263.5,246.5 Z"/></g>
<g><path style="opacity:1" fill="#523a2e" d="M 286.5,259.5 C 280.155,252.828 272.489,248.494 263.5,246.5C 254.502,245.916 247.335,249.249 242,256.5C 241.308,257.437 241.475,258.103 242.5,258.5C 242.167,259.5 241.5,260.167 240.5,260.5C 238.802,254.137 239.469,248.137 242.5,242.5C 246.168,241.099 250.001,240.432 254,240.5C 260.198,240.962 266.365,241.629 272.5,242.5C 272.5,243.5 272.5,244.5 272.5,245.5C 273.552,245.351 274.552,245.517 275.5,246C 275.167,246.333 274.833,246.667 274.5,247C 280.83,249.036 284.83,253.203 286.5,259.5 Z"/></g>
<g><path style="opacity:1" fill="#bababa" d="M 256.5,250.5 C 260.35,250.701 261.35,252.534 259.5,256C 256.763,257.08 255.096,256.246 254.5,253.5C 254.942,252.261 255.609,251.261 256.5,250.5 Z"/></g>
<g><path style="opacity:1" fill="#684e41" d="M 251.5,234.5 C 265.386,233.486 278.719,236.153 291.5,242.5C 293.934,243.771 295.434,245.771 296,248.5C 296.667,253.833 296.667,259.167 296,264.5C 295.434,266.723 294.6,268.723 293.5,270.5C 287.622,272.065 281.622,272.732 275.5,272.5C 275.842,271.662 276.508,271.328 277.5,271.5C 283.358,270.905 288.024,268.238 291.5,263.5C 289.581,262.388 287.914,261.054 286.5,259.5C 284.83,253.203 280.83,249.036 274.5,247C 274.833,246.667 275.167,246.333 275.5,246C 274.552,245.517 273.552,245.351 272.5,245.5C 272.5,244.5 272.5,243.5 272.5,242.5C 266.365,241.629 260.198,240.962 254,240.5C 250.001,240.432 246.168,241.099 242.5,242.5C 243.975,238.242 246.975,235.575 251.5,234.5 Z"/></g>
<g><path style="opacity:1" fill="#322e2a" d="M 181.5,234.5 C 178.5,234.167 177.167,235.5 177.5,238.5C 173.97,245.124 175.803,249.791 183,252.5C 187.477,252.267 190.81,250.267 193,246.5C 193.32,243.46 193.32,240.46 193,237.5C 195.063,239.734 197.229,241.734 199.5,243.5C 197.346,247.284 195.012,251.117 192.5,255C 193.056,255.383 193.389,255.883 193.5,256.5C 184.697,255.009 176.363,252.342 168.5,248.5C 169.552,248.649 170.552,248.483 171.5,248C 169.879,242.647 170.879,237.814 174.5,233.5C 174.56,232.957 174.893,232.624 175.5,232.5C 177.657,233.05 179.657,233.717 181.5,234.5 Z"/></g>
<g><path style="opacity:1" fill="#867274" d="M 291.5,242.5 C 278.719,236.153 265.386,233.486 251.5,234.5C 266.05,231.677 279.383,234.343 291.5,242.5 Z"/></g>
<g><path style="opacity:1" fill="#181716" d="M 203.5,248.5 C 203.672,249.492 203.338,250.158 202.5,250.5C 202.312,247.794 201.312,245.461 199.5,243.5C 197.229,241.734 195.063,239.734 193,237.5C 193.32,240.46 193.32,243.46 193,246.5C 190.81,250.267 187.477,252.267 183,252.5C 175.803,249.791 173.97,245.124 177.5,238.5C 180.067,241.266 182.067,240.766 183.5,237C 183.361,235.699 182.695,234.866 181.5,234.5C 179.657,233.717 177.657,233.05 175.5,232.5C 174.893,232.624 174.56,232.957 174.5,233.5C 169.636,234.015 165.469,236.015 162,239.5C 161.333,240.5 161.333,241.5 162,242.5C 163.376,243.705 164.542,245.038 165.5,246.5C 160.293,243.77 157.293,239.437 156.5,233.5C 158.735,233.795 160.735,233.461 162.5,232.5C 169.93,229.745 177.597,228.578 185.5,229C 195.503,231.835 201.503,238.335 203.5,248.5 Z"/></g>
<g><path style="opacity:1" fill="#654c3e" d="M 202.5,226.5 C 194.005,223.911 185.505,223.911 177,226.5C 175.856,226.089 174.689,225.756 173.5,225.5C 169.95,226.712 166.617,228.379 163.5,230.5C 162.702,230.957 162.369,231.624 162.5,232.5C 160.735,233.461 158.735,233.795 156.5,233.5C 157.293,239.437 160.293,243.77 165.5,246.5C 166.71,246.932 167.71,247.599 168.5,248.5C 166.409,248.318 164.409,248.652 162.5,249.5C 160.992,251.507 159.158,253.174 157,254.5C 156.329,253.748 155.496,253.414 154.5,253.5C 153.326,252.486 152.66,251.153 152.5,249.5C 150.429,237.642 154.762,228.976 165.5,223.5C 167.396,223.336 169.396,223.669 171.5,224.5C 179.073,222.631 186.74,222.131 194.5,223C 197.476,223.705 200.142,224.871 202.5,226.5 Z"/></g>
<g><path style="opacity:1" fill="#72594d" d="M 200.5,222.5 C 206.202,224.888 209.202,229.221 209.5,235.5C 208.858,241.47 206.858,246.803 203.5,251.5C 202.833,251.5 202.5,251.167 202.5,250.5C 203.338,250.158 203.672,249.492 203.5,248.5C 205.287,243.421 206.621,238.088 207.5,232.5C 205.676,230.592 204.009,228.592 202.5,226.5C 200.142,224.871 197.476,223.705 194.5,223C 186.74,222.131 179.073,222.631 171.5,224.5C 169.396,223.669 167.396,223.336 165.5,223.5C 154.762,228.976 150.429,237.642 152.5,249.5C 149.925,241.948 150.091,234.281 153,226.5C 153.697,224.416 154.864,222.749 156.5,221.5C 159.012,218.492 162.179,216.492 166,215.5C 178.089,215.099 189.589,217.432 200.5,222.5 Z"/></g>
<g><path style="opacity:1" fill="#b5b5b5" d="M 174.5,233.5 C 170.879,237.814 169.879,242.647 171.5,248C 170.552,248.483 169.552,248.649 168.5,248.5C 167.71,247.599 166.71,246.932 165.5,246.5C 164.542,245.038 163.376,243.705 162,242.5C 161.333,241.5 161.333,240.5 162,239.5C 165.469,236.015 169.636,234.015 174.5,233.5 Z"/></g>
<g><path style="opacity:1" fill="#c1c0c0" d="M 181.5,234.5 C 182.695,234.866 183.361,235.699 183.5,237C 182.067,240.766 180.067,241.266 177.5,238.5C 177.167,235.5 178.5,234.167 181.5,234.5 Z"/></g>
<g><path style="opacity:1" fill="#533a2d" d="M 202.5,226.5 C 204.009,228.592 205.676,230.592 207.5,232.5C 206.621,238.088 205.287,243.421 203.5,248.5C 201.503,238.335 195.503,231.835 185.5,229C 177.597,228.578 169.93,229.745 162.5,232.5C 162.369,231.624 162.702,230.957 163.5,230.5C 166.617,228.379 169.95,226.712 173.5,225.5C 174.689,225.756 175.856,226.089 177,226.5C 185.505,223.911 194.005,223.911 202.5,226.5 Z"/></g>
<g><path style="opacity:1" fill="#8a7574" d="M 200.5,222.5 C 189.589,217.432 178.089,215.099 166,215.5C 162.179,216.492 159.012,218.492 156.5,221.5C 157.203,219.284 158.536,217.451 160.5,216C 170.567,213.845 180.567,214.179 190.5,217C 194.346,218.086 197.68,219.919 200.5,222.5 Z"/></g>
<g><path style="opacity:1" fill="#553013" d="M 158.5,317.5 C 156.801,317.34 155.134,317.506 153.5,318C 152.529,319.481 151.196,320.315 149.5,320.5C 147.425,317.354 145.592,314.021 144,310.5C 141.638,302.381 138.971,294.381 136,286.5C 135.5,286 135,285.5 134.5,285C 131.305,284.819 128.305,284.319 125.5,283.5C 127.302,282.542 129.302,281.875 131.5,281.5C 133.167,281.5 134.833,281.5 136.5,281.5C 136.334,273.493 136.5,265.493 137,257.5C 137.511,255.122 138.178,252.788 139,250.5C 138.834,261.691 140.167,272.691 143,283.5C 147.376,295.248 152.542,306.581 158.5,317.5 Z"/></g>
<g><path style="opacity:1" fill="#7d5436" d="M 121.5,234.5 C 122.413,236.086 122.413,237.586 121.5,239C 123.503,241.002 125.836,242.502 128.5,243.5C 129.531,244.7 130.365,246.034 131,247.5C 131.358,256.509 131.858,265.509 132.5,274.5C 132.44,276.921 132.107,279.254 131.5,281.5C 129.302,281.875 127.302,282.542 125.5,283.5C 121.432,280.624 119.432,276.624 119.5,271.5C 120.473,271.987 121.473,272.487 122.5,273C 121.862,274.707 121.862,276.54 122.5,278.5C 126.198,279.32 128.531,277.987 129.5,274.5C 129.272,272.603 128.272,271.27 126.5,270.5C 125.548,268.955 125.215,267.288 125.5,265.5C 122.789,265.185 120.456,265.852 118.5,267.5C 118.5,266.167 118.5,264.833 118.5,263.5C 122.45,264.656 124.117,262.989 123.5,258.5C 121.379,258.325 119.379,258.659 117.5,259.5C 117.334,254.156 117.501,248.823 118,243.5C 118.119,239.995 119.286,236.995 121.5,234.5 Z"/></g>
<g><path style="opacity:1" fill="#7c6253" d="M 241.5,265.5 C 244.018,266.264 246.351,267.264 248.5,268.5C 255.182,270.713 262.182,271.713 269.5,271.5C 271.265,272.461 273.265,272.795 275.5,272.5C 281.622,272.732 287.622,272.065 293.5,270.5C 293.737,271.791 293.404,272.791 292.5,273.5C 291.448,273.351 290.448,273.517 289.5,274C 287.257,277.746 284.257,280.58 280.5,282.5C 268.768,284.018 257.768,282.018 247.5,276.5C 244.742,273.322 242.742,269.655 241.5,265.5 Z"/></g>
<g><path style="opacity:1" fill="#afaba8" d="M 119.5,271.5 C 118.766,270.292 118.433,268.959 118.5,267.5C 120.456,265.852 122.789,265.185 125.5,265.5C 125.215,267.288 125.548,268.955 126.5,270.5C 128.272,271.27 129.272,272.603 129.5,274.5C 128.531,277.987 126.198,279.32 122.5,278.5C 121.862,276.54 121.862,274.707 122.5,273C 121.473,272.487 120.473,271.987 119.5,271.5 Z"/></g>
<g><path style="opacity:1" fill="#633c21" d="M 148.5,215.5 C 148.878,217.646 149.212,219.813 149.5,222C 147.789,228.053 146.789,234.219 146.5,240.5C 145.239,243.258 144.406,246.258 144,249.5C 143.333,256.167 143.333,262.833 144,269.5C 147.005,279.506 150.005,289.506 153,299.5C 155.513,306.027 158.68,312.193 162.5,318C 162.272,318.399 161.938,318.565 161.5,318.5C 160.391,318.443 159.391,318.11 158.5,317.5C 152.542,306.581 147.376,295.248 143,283.5C 140.167,272.691 138.834,261.691 139,250.5C 138.178,252.788 137.511,255.122 137,257.5C 136.5,265.493 136.334,273.493 136.5,281.5C 134.833,281.5 133.167,281.5 131.5,281.5C 132.107,279.254 132.44,276.921 132.5,274.5C 131.858,265.509 131.358,256.509 131,247.5C 130.365,246.034 129.531,244.7 128.5,243.5C 125.836,242.502 123.503,241.002 121.5,239C 122.413,237.586 122.413,236.086 121.5,234.5C 121.5,234.167 121.5,233.833 121.5,233.5C 123.591,233.318 125.591,233.652 127.5,234.5C 130.791,238.552 133.624,242.886 136,247.5C 137.044,246.377 137.71,245.044 138,243.5C 138.498,240.183 138.665,236.85 138.5,233.5C 139.268,234.263 139.768,235.263 140,236.5C 140.333,236.167 140.667,235.833 141,235.5C 143.041,228.529 145.541,221.863 148.5,215.5 Z"/></g>
<g><path style="opacity:1" fill="#744f37" d="M 213.5,235.5 C 214.306,238.285 214.972,241.119 215.5,244C 214.059,249.487 212.725,254.987 211.5,260.5C 209.205,263.297 206.705,265.964 204,268.5C 203.333,269.5 203.333,270.5 204,271.5C 204.718,270.549 205.551,270.383 206.5,271C 202.952,273.591 201.618,277.091 202.5,281.5C 201.442,280.4 200.608,279.066 200,277.5C 198.668,282.585 199.835,286.919 203.5,290.5C 197.478,288.116 195.478,283.783 197.5,277.5C 196.833,277.167 196.167,276.833 195.5,276.5C 193.408,277.743 191.408,279.243 189.5,281C 187.167,281.333 184.833,281.667 182.5,282C 176.306,282.724 170.306,282.224 164.5,280.5C 161.046,277.052 157.046,274.385 152.5,272.5C 151.918,271.069 151.085,269.736 150,268.5C 149.501,263.845 149.334,259.179 149.5,254.5C 151.756,258.097 154.423,261.431 157.5,264.5C 158.343,268.918 161.01,271.751 165.5,273C 179.74,278.33 191.907,275.497 202,264.5C 202.49,263.207 202.657,261.873 202.5,260.5C 208.665,253.179 212.331,244.846 213.5,235.5 Z"/></g>
<g><path style="opacity:1" fill="#7b5336" d="M 323.5,273.5 C 320.222,274.391 316.889,275.224 313.5,276C 311.097,278.682 308.597,281.182 306,283.5C 305.833,282.167 305.667,280.833 305.5,279.5C 306.529,276.486 307.529,273.486 308.5,270.5C 309.167,270.5 309.5,270.167 309.5,269.5C 312.319,267.903 315.319,267.403 318.5,268C 321.079,269.076 322.746,270.909 323.5,273.5 Z"/></g>
<g><path style="opacity:1" fill="#927b72" d="M 292.5,273.5 C 283.845,286.325 272.178,289.825 257.5,284C 253.203,282.695 249.869,280.195 247.5,276.5C 257.768,282.018 268.768,284.018 280.5,282.5C 284.257,280.58 287.257,277.746 289.5,274C 290.448,273.517 291.448,273.351 292.5,273.5 Z"/></g>
<g><path style="opacity:1" fill="#774f32" d="M 323.5,288.5 C 322.201,293.764 319.868,298.431 316.5,302.5C 316.209,301.351 315.376,300.684 314,300.5C 310.997,300.743 309.83,302.41 310.5,305.5C 307.05,304.756 305.384,306.09 305.5,309.5C 303.833,309.5 302.167,309.5 300.5,309.5C 300.279,312.279 300.612,314.946 301.5,317.5C 296.507,319.681 294.673,318.014 296,312.5C 298.178,309.138 299.678,305.471 300.5,301.5C 304.666,297.176 307.833,292.176 310,286.5C 310.5,286 311,285.5 311.5,285C 314.833,284.333 318.167,284.333 321.5,285C 322.085,286.302 322.751,287.469 323.5,288.5 Z"/></g>
<g><path style="opacity:1" fill="#8b644d" d="M 247.5,282.5 C 257.376,289.716 268.376,292.05 280.5,289.5C 283.017,291.077 283.017,292.91 280.5,295C 271.179,296.428 262.179,295.095 253.5,291C 251.333,288.833 249.167,286.667 247,284.5C 246.308,283.563 246.475,282.897 247.5,282.5 Z"/></g>
<g><path style="opacity:1" fill="#7e583c" d="M 237.5,242.5 C 236.733,241.828 236.066,240.995 235.5,240C 233.567,239.749 231.734,239.249 230,238.5C 229.833,239.5 229.667,240.5 229.5,241.5C 230.922,244.103 232.589,246.603 234.5,249C 233.438,252.789 233.271,256.623 234,260.5C 234.933,267.658 236.433,274.658 238.5,281.5C 236.778,285.427 235.778,289.761 235.5,294.5C 235.709,295.086 236.043,295.586 236.5,296C 230.833,296.667 225.167,296.667 219.5,296C 217.618,295.802 215.952,295.302 214.5,294.5C 221.956,296.057 228.123,294.057 233,288.5C 233.667,285.833 233.667,283.167 233,280.5C 231.177,286.832 227.01,289.165 220.5,287.5C 215.324,287.698 210.324,286.864 205.5,285C 204.29,283.961 203.29,282.794 202.5,281.5C 201.618,277.091 202.952,273.591 206.5,271C 205.551,270.383 204.718,270.549 204,271.5C 203.333,270.5 203.333,269.5 204,268.5C 206.705,265.964 209.205,263.297 211.5,260.5C 212.725,254.987 214.059,249.487 215.5,244C 214.972,241.119 214.306,238.285 213.5,235.5C 213.577,234.25 214.244,233.417 215.5,233C 224.015,231.052 231.515,232.886 238,238.5C 238.765,240.066 238.598,241.399 237.5,242.5 Z"/></g>
<g><path style="opacity:1" fill="#522e11" d="M 307.5,228.5 C 307.5,232.5 307.5,236.5 307.5,240.5C 307.493,249.216 306.826,257.883 305.5,266.5C 305.667,268.5 305.833,270.5 306,272.5C 306.708,271.619 307.542,270.953 308.5,270.5C 307.529,273.486 306.529,276.486 305.5,279.5C 305.667,280.833 305.833,282.167 306,283.5C 308.597,281.182 311.097,278.682 313.5,276C 316.889,275.224 320.222,274.391 323.5,273.5C 324.783,278.469 324.783,283.469 323.5,288.5C 322.751,287.469 322.085,286.302 321.5,285C 318.167,284.333 314.833,284.333 311.5,285C 311,285.5 310.5,286 310,286.5C 307.833,292.176 304.666,297.176 300.5,301.5C 299.678,305.471 298.178,309.138 296,312.5C 294.673,318.014 296.507,319.681 301.5,317.5C 305.349,317.981 307.349,316.314 307.5,312.5C 308.5,312.5 309.5,312.5 310.5,312.5C 306.371,321.74 300.037,323.74 291.5,318.5C 287.326,320.237 283.993,322.903 281.5,326.5C 279.325,326.682 277.325,327.349 275.5,328.5C 273.575,328.41 272.408,327.41 272,325.5C 266.26,330.618 260.426,335.618 254.5,340.5C 238.099,351.876 220.099,356.543 200.5,354.5C 210.835,355.25 220.835,353.75 230.5,350C 243.178,343.332 255.178,335.665 266.5,327C 274,317.833 281.5,308.667 289,299.5C 292.916,293.616 294.416,287.283 293.5,280.5C 298.329,272.203 301.162,263.203 302,253.5C 305.637,252.122 307.137,249.455 306.5,245.5C 306.178,239.642 306.511,233.975 307.5,228.5 Z"/></g>
<g><path style="opacity:1" fill="#b3b0ad" d="M 316.5,302.5 C 316.771,304.38 316.104,305.713 314.5,306.5C 312.952,306.821 312.285,307.821 312.5,309.5C 312.573,311.027 311.906,312.027 310.5,312.5C 309.5,312.5 308.5,312.5 307.5,312.5C 307.349,316.314 305.349,317.981 301.5,317.5C 300.612,314.946 300.279,312.279 300.5,309.5C 302.167,309.5 303.833,309.5 305.5,309.5C 305.384,306.09 307.05,304.756 310.5,305.5C 309.83,302.41 310.997,300.743 314,300.5C 315.376,300.684 316.209,301.351 316.5,302.5 Z"/></g>
<g><path style="opacity:1" fill="#683c1b" d="M 314.5,306.5 C 314.068,307.71 313.401,308.71 312.5,309.5C 312.285,307.821 312.952,306.821 314.5,306.5 Z"/></g>
<g><path style="opacity:1" fill="#916b51" d="M 138.5,361.5 C 136.536,364.705 134.869,368.038 133.5,371.5C 133.351,368.393 133.851,365.393 135,362.5C 138.276,356.892 141.943,351.558 146,346.5C 146.497,344.19 146.663,341.857 146.5,339.5C 145.448,339.351 144.448,339.517 143.5,340C 141.6,342.335 139.6,344.502 137.5,346.5C 137.343,345.127 137.51,343.793 138,342.5C 143.474,335.058 149.308,327.891 155.5,321C 157.134,320.506 158.801,320.34 160.5,320.5C 160.662,322.527 160.495,324.527 160,326.5C 155.323,330.507 152.323,335.507 151,341.5C 146.061,347.718 141.894,354.385 138.5,361.5 Z"/></g>
<g><path style="opacity:1" fill="#754e32" d="M 237.5,242.5 C 233.665,257.827 236.998,271.161 247.5,282.5C 246.475,282.897 246.308,283.563 247,284.5C 249.167,286.667 251.333,288.833 253.5,291C 262.179,295.095 271.179,296.428 280.5,295C 283.017,292.91 283.017,291.077 280.5,289.5C 283.825,287.503 287.159,285.503 290.5,283.5C 288.851,293.973 284.018,302.639 276,309.5C 275.881,313.421 274.048,316.088 270.5,317.5C 268.31,319.856 266.31,322.356 264.5,325C 250.522,335.156 235.522,343.489 219.5,350C 210.754,353.294 202.087,353.294 193.5,350C 183.306,342.473 174.473,333.639 167,323.5C 166.209,324.745 165.709,326.078 165.5,327.5C 156.17,339.511 147.17,351.844 138.5,364.5C 134.825,379.188 137.325,379.855 146,366.5C 148.121,362.593 149.955,358.593 151.5,354.5C 152.167,354.5 152.5,354.167 152.5,353.5C 162.261,350.047 168.261,353.381 170.5,363.5C 169.883,363.389 169.383,363.056 169,362.5C 167.894,365.726 166.061,368.393 163.5,370.5C 161.255,375.997 158.255,380.997 154.5,385.5C 153.691,387.071 153.357,388.738 153.5,390.5C 152.387,389.054 152.22,387.387 153,385.5C 155.925,376.984 159.925,368.984 165,361.5C 165.965,358.637 165.298,356.304 163,354.5C 160.213,353.483 157.38,353.316 154.5,354C 151.328,360.836 147.495,367.336 143,373.5C 140.536,376.604 137.702,378.27 134.5,378.5C 133.532,376.393 133.198,374.059 133.5,371.5C 134.869,368.038 136.536,364.705 138.5,361.5C 148.031,348.948 156.698,335.781 164.5,322C 163.929,320.401 162.929,319.234 161.5,318.5C 161.938,318.565 162.272,318.399 162.5,318C 158.68,312.193 155.513,306.027 153,299.5C 150.005,289.506 147.005,279.506 144,269.5C 143.333,262.833 143.333,256.167 144,249.5C 144.406,246.258 145.239,243.258 146.5,240.5C 146.672,245.348 147.672,250.015 149.5,254.5C 149.334,259.179 149.501,263.845 150,268.5C 151.085,269.736 151.918,271.069 152.5,272.5C 151.351,272.791 150.684,273.624 150.5,275C 154.477,283.786 158.31,292.619 162,301.5C 168.604,314.365 176.938,326.032 187,336.5C 190.552,339.719 194.385,342.552 198.5,345C 201.833,345.667 205.167,345.667 208.5,345C 216.167,340.667 223.833,336.333 231.5,332C 234.833,331.667 238.167,331.333 241.5,331C 253.824,324.835 264.158,316.335 272.5,305.5C 269.001,303.889 265.334,302.889 261.5,302.5C 257.713,303.995 253.713,304.662 249.5,304.5C 247.735,303.539 245.735,303.205 243.5,303.5C 242.962,301.883 242.629,300.216 242.5,298.5C 246.487,298.652 249.821,297.985 252.5,296.5C 247.139,292.081 242.472,287.081 238.5,281.5C 236.433,274.658 234.933,267.658 234,260.5C 233.271,256.623 233.438,252.789 234.5,249C 232.589,246.603 230.922,244.103 229.5,241.5C 229.667,240.5 229.833,239.5 230,238.5C 231.734,239.249 233.567,239.749 235.5,240C 236.066,240.995 236.733,241.828 237.5,242.5 Z"/></g>
<g><path style="opacity:1" fill="#593415" d="M 165.5,327.5 C 169.927,333.102 174.593,338.602 179.5,344C 183.939,345.968 187.939,348.468 191.5,351.5C 180.992,348.485 172.326,342.652 165.5,334C 164.451,333.508 163.451,333.674 162.5,334.5C 161.227,335.257 161.227,335.923 162.5,336.5C 159.139,342.184 155.806,347.851 152.5,353.5C 151.833,353.5 151.5,353.833 151.5,354.5C 149.955,358.593 148.121,362.593 146,366.5C 137.325,379.855 134.825,379.188 138.5,364.5C 147.17,351.844 156.17,339.511 165.5,327.5 Z"/></g>
<g><path style="opacity:1" fill="#855e43" d="M 152.5,272.5 C 157.046,274.385 161.046,277.052 164.5,280.5C 162.144,279.425 159.811,279.425 157.5,280.5C 161.568,291.972 166.735,302.972 173,313.5C 181.446,320.612 189.279,328.446 196.5,337C 200.502,340.329 204.335,340.163 208,336.5C 208.667,335.167 208.667,333.833 208,332.5C 204.366,329.076 200.366,326.076 196,323.5C 195.133,319.825 193.633,316.492 191.5,313.5C 207.062,323.586 223.062,324.086 239.5,315C 240.692,312.645 242.359,310.812 244.5,309.5C 245.167,309.167 245.833,308.833 246.5,308.5C 246.557,307.391 246.89,306.391 247.5,305.5C 248.167,305.167 248.833,304.833 249.5,304.5C 253.713,304.662 257.713,303.995 261.5,302.5C 265.334,302.889 269.001,303.889 272.5,305.5C 264.158,316.335 253.824,324.835 241.5,331C 238.167,331.333 234.833,331.667 231.5,332C 223.833,336.333 216.167,340.667 208.5,345C 205.167,345.667 201.833,345.667 198.5,345C 194.385,342.552 190.552,339.719 187,336.5C 176.938,326.032 168.604,314.365 162,301.5C 158.31,292.619 154.477,283.786 150.5,275C 150.684,273.624 151.351,272.791 152.5,272.5 Z"/></g>
<g><path style="opacity:1" fill="#623523" d="M 182.5,299.5 C 186.622,301.787 189.955,304.954 192.5,309C 200.919,315.852 210.586,318.185 221.5,316C 225.383,315.987 228.716,314.82 231.5,312.5C 235.677,311.747 239.677,310.414 243.5,308.5C 244.107,308.624 244.44,308.957 244.5,309.5C 242.359,310.812 240.692,312.645 239.5,315C 223.062,324.086 207.062,323.586 191.5,313.5C 189.205,310.703 186.705,308.036 184,305.5C 182.872,303.655 182.372,301.655 182.5,299.5 Z"/></g>
<g><path style="opacity:1" fill="#936f57" d="M 246.5,308.5 C 247.857,307.315 249.357,306.315 251,305.5C 254.646,305.974 257.479,307.64 259.5,310.5C 255.974,318.415 249.974,322.582 241.5,323C 241.167,322.667 240.833,322.333 240.5,322C 242.172,317.317 244.172,312.817 246.5,308.5 Z"/></g>
<g><path style="opacity:1" fill="#6f4234" d="M 221.5,302.5 C 214.744,303.722 208.077,304.722 201.5,305.5C 194.861,303.096 188.694,299.763 183,295.5C 182.333,296.167 182.333,296.833 183,297.5C 187.167,300.333 190.667,303.833 193.5,308C 205.495,314.779 218.162,316.279 231.5,312.5C 228.716,314.82 225.383,315.987 221.5,316C 210.586,318.185 200.919,315.852 192.5,309C 189.955,304.954 186.622,301.787 182.5,299.5C 181.883,299.389 181.383,299.056 181,298.5C 180.764,296.236 180.264,294.069 179.5,292C 193.516,295.504 207.516,299.004 221.5,302.5 Z"/></g>
<g><path style="opacity:1" fill="#7f4e44" d="M 201.5,305.5 C 216.846,310.8 232.18,310.8 247.5,305.5C 246.89,306.391 246.557,307.391 246.5,308.5C 245.833,308.833 245.167,309.167 244.5,309.5C 244.44,308.957 244.107,308.624 243.5,308.5C 239.677,310.414 235.677,311.747 231.5,312.5C 218.162,316.279 205.495,314.779 193.5,308C 190.667,303.833 187.167,300.333 183,297.5C 182.333,296.833 182.333,296.167 183,295.5C 188.694,299.763 194.861,303.096 201.5,305.5 Z"/></g>
<g><path style="opacity:1" fill="#5f3224" d="M 221.5,302.5 C 228.813,303.187 236.146,303.521 243.5,303.5C 245.735,303.205 247.735,303.539 249.5,304.5C 248.833,304.833 248.167,305.167 247.5,305.5C 232.18,310.8 216.846,310.8 201.5,305.5C 208.077,304.722 214.744,303.722 221.5,302.5 Z"/></g>
<g><path style="opacity:1" fill="#532f10" d="M 202.5,281.5 C 203.29,282.794 204.29,283.961 205.5,285C 210.324,286.864 215.324,287.698 220.5,287.5C 227.01,289.165 231.177,286.832 233,280.5C 233.667,283.167 233.667,285.833 233,288.5C 228.123,294.057 221.956,296.057 214.5,294.5C 210.586,293.613 206.919,292.28 203.5,290.5C 199.835,286.919 198.668,282.585 200,277.5C 200.608,279.066 201.442,280.4 202.5,281.5 Z"/></g>
<g><path style="opacity:1" fill="#97735c" d="M 209.5,272.5 C 212.85,272.335 216.183,272.502 219.5,273C 222.166,275.335 225.166,277.169 228.5,278.5C 229.614,279.723 229.781,281.056 229,282.5C 222.599,284.965 216.099,285.131 209.5,283C 208.447,280.754 207.114,278.754 205.5,277C 206.344,274.993 207.677,273.493 209.5,272.5 Z"/></g>
<g><path style="opacity:1" fill="#8d684e" d="M 203.5,290.5 C 206.919,292.28 210.586,293.613 214.5,294.5C 215.952,295.302 217.618,295.802 219.5,296C 225.167,296.667 230.833,296.667 236.5,296C 236.043,295.586 235.709,295.086 235.5,294.5C 235.778,289.761 236.778,285.427 238.5,281.5C 242.472,287.081 247.139,292.081 252.5,296.5C 249.821,297.985 246.487,298.652 242.5,298.5C 242.629,300.216 242.962,301.883 243.5,303.5C 236.146,303.521 228.813,303.187 221.5,302.5C 207.516,299.004 193.516,295.504 179.5,292C 180.264,294.069 180.764,296.236 181,298.5C 181.383,299.056 181.883,299.389 182.5,299.5C 182.372,301.655 182.872,303.655 184,305.5C 186.705,308.036 189.205,310.703 191.5,313.5C 193.633,316.492 195.133,319.825 196,323.5C 200.366,326.076 204.366,329.076 208,332.5C 208.667,333.833 208.667,335.167 208,336.5C 204.335,340.163 200.502,340.329 196.5,337C 189.279,328.446 181.446,320.612 173,313.5C 166.735,302.972 161.568,291.972 157.5,280.5C 159.811,279.425 162.144,279.425 164.5,280.5C 170.306,282.224 176.306,282.724 182.5,282C 184.833,281.667 187.167,281.333 189.5,281C 191.408,279.243 193.408,277.743 195.5,276.5C 196.167,276.833 196.833,277.167 197.5,277.5C 195.478,283.783 197.478,288.116 203.5,290.5 Z"/></g>
<g><path style="opacity:1" fill="#8d6954" d="M 202.5,260.5 C 202.657,261.873 202.49,263.207 202,264.5C 191.907,275.497 179.74,278.33 165.5,273C 161.01,271.751 158.343,268.918 157.5,264.5C 173.623,273.647 188.623,272.313 202.5,260.5 Z"/></g>
<g><path style="opacity:1" fill="#936e56" d="M 211.5,260.5 C 213.98,256.231 215.98,251.731 217.5,247C 227.797,242.942 231.797,246.108 229.5,256.5C 229.401,259.999 230.068,263.332 231.5,266.5C 224.848,267.477 218.181,267.477 211.5,266.5C 211.5,264.5 211.5,262.5 211.5,260.5 Z"/></g>
<g><path style="opacity:1" fill="#7c6151" d="M 168.5,248.5 C 176.363,252.342 184.697,255.009 193.5,256.5C 195.735,256.205 197.735,256.539 199.5,257.5C 196.56,260.977 192.893,263.477 188.5,265C 177.654,268.144 167.654,266.477 158.5,260C 156.915,257.931 155.581,255.764 154.5,253.5C 155.496,253.414 156.329,253.748 157,254.5C 159.158,253.174 160.992,251.507 162.5,249.5C 164.409,248.652 166.409,248.318 168.5,248.5 Z"/></g>
<g><path style="opacity:1" fill="#afadad" d="M 199.5,243.5 C 201.312,245.461 202.312,247.794 202.5,250.5C 202.5,251.167 202.833,251.5 203.5,251.5C 202.66,253.853 201.326,255.853 199.5,257.5C 197.735,256.539 195.735,256.205 193.5,256.5C 193.389,255.883 193.056,255.383 192.5,255C 195.012,251.117 197.346,247.284 199.5,243.5 Z"/></g>
<g><path style="opacity:1" fill="#855d3f" d="M 158.5,317.5 C 159.391,318.11 160.391,318.443 161.5,318.5C 162.929,319.234 163.929,320.401 164.5,322C 156.698,335.781 148.031,348.948 138.5,361.5C 141.894,354.385 146.061,347.718 151,341.5C 152.323,335.507 155.323,330.507 160,326.5C 160.495,324.527 160.662,322.527 160.5,320.5C 158.801,320.34 157.134,320.506 155.5,321C 149.308,327.891 143.474,335.058 138,342.5C 137.51,343.793 137.343,345.127 137.5,346.5C 135.008,349.469 132.508,352.469 130,355.5C 129.275,357.949 128.275,360.283 127,362.5C 124.511,364.469 122.678,366.802 121.5,369.5C 121.446,366.033 122.946,363.366 126,361.5C 127.144,358.92 127.978,356.253 128.5,353.5C 128.5,352.833 128.5,352.167 128.5,351.5C 130.701,351.142 132.035,349.808 132.5,347.5C 131.738,343.889 131.238,340.222 131,336.5C 130.113,333.612 128.446,331.279 126,329.5C 124.97,329.836 124.47,330.503 124.5,331.5C 123.682,326.62 126.015,323.954 131.5,323.5C 135.974,324.072 139.974,325.738 143.5,328.5C 145.878,326.122 147.878,323.455 149.5,320.5C 151.196,320.315 152.529,319.481 153.5,318C 155.134,317.506 156.801,317.34 158.5,317.5 Z"/></g>
<g><path style="opacity:1" fill="#99765f" d="M 128.5,326.5 C 133.668,326.591 138.334,328.091 142.5,331C 139.969,333.95 137.802,337.117 136,340.5C 134.173,336.857 131.839,333.523 129,330.5C 128.51,329.207 128.343,327.873 128.5,326.5 Z"/></g>
<g><path style="opacity:1" fill="#694123" d="M 128.5,351.5 C 129.018,350.423 129.352,349.256 129.5,348C 127.967,342.44 126.3,336.94 124.5,331.5C 124.47,330.503 124.97,329.836 126,329.5C 128.446,331.279 130.113,333.612 131,336.5C 131.238,340.222 131.738,343.889 132.5,347.5C 132.035,349.808 130.701,351.142 128.5,351.5 Z"/></g>
<g><path style="opacity:1" fill="#4c2909" d="M 281.5,326.5 C 271.78,339.707 259.113,349.04 243.5,354.5C 244.087,357.88 245.421,360.88 247.5,363.5C 247.953,364.458 248.619,365.292 249.5,366C 251.949,366.725 254.283,367.725 256.5,369C 257.171,369.986 257.171,371.153 256.5,372.5C 255.662,372.842 255.328,373.508 255.5,374.5C 255.5,375.167 255.167,375.5 254.5,375.5C 249.075,374.586 243.742,375.42 238.5,378C 227.919,379.77 217.419,381.937 207,384.5C 202.883,384.185 199.049,383.185 195.5,381.5C 187.639,376.738 179.306,372.738 170.5,369.5C 168.484,369.516 167.484,370.516 167.5,372.5C 166.312,373.364 165.145,374.364 164,375.5C 161.631,380.663 159.131,385.663 156.5,390.5C 155.5,390.5 154.5,390.5 153.5,390.5C 153.357,388.738 153.691,387.071 154.5,385.5C 158.255,380.997 161.255,375.997 163.5,370.5C 166.061,368.393 167.894,365.726 169,362.5C 169.383,363.056 169.883,363.389 170.5,363.5C 172.173,362.657 173.34,361.324 174,359.5C 174.835,355.821 175.668,352.155 176.5,348.5C 172.133,344.132 167.467,340.132 162.5,336.5C 161.227,335.923 161.227,335.257 162.5,334.5C 163.451,333.674 164.451,333.508 165.5,334C 172.326,342.652 180.992,348.485 191.5,351.5C 194.084,353.472 197.084,354.472 200.5,354.5C 220.099,356.543 238.099,351.876 254.5,340.5C 260.426,335.618 266.26,330.618 272,325.5C 272.408,327.41 273.575,328.41 275.5,328.5C 277.325,327.349 279.325,326.682 281.5,326.5 Z"/></g>
<g><path style="opacity:1" fill="#643f22" d="M 293.5,280.5 C 294.416,287.283 292.916,293.616 289,299.5C 281.5,308.667 274,317.833 266.5,327C 255.178,335.665 243.178,343.332 230.5,350C 220.835,353.75 210.835,355.25 200.5,354.5C 197.084,354.472 194.084,353.472 191.5,351.5C 187.939,348.468 183.939,345.968 179.5,344C 174.593,338.602 169.927,333.102 165.5,327.5C 165.709,326.078 166.209,324.745 167,323.5C 174.473,333.639 183.306,342.473 193.5,350C 202.087,353.294 210.754,353.294 219.5,350C 235.522,343.489 250.522,335.156 264.5,325C 266.31,322.356 268.31,319.856 270.5,317.5C 274.048,316.088 275.881,313.421 276,309.5C 284.018,302.639 288.851,293.973 290.5,283.5C 291.167,282.167 292.167,281.167 293.5,280.5 Z"/></g>
<g><path style="opacity:1" fill="#1f103b" d="M 247.5,363.5 C 255.087,363.565 262.42,364.898 269.5,367.5C 265.573,369.707 261.239,371.374 256.5,372.5C 257.171,371.153 257.171,369.986 256.5,369C 254.283,367.725 251.949,366.725 249.5,366C 248.619,365.292 247.953,364.458 247.5,363.5 Z"/></g>
<g><path style="opacity:1" fill="#9a7761" d="M 133.5,371.5 C 133.198,374.059 133.532,376.393 134.5,378.5C 136.068,379.473 137.735,379.64 139.5,379C 145.518,373.646 150.852,367.646 155.5,361C 156.448,360.517 157.448,360.351 158.5,360.5C 158.662,362.527 158.495,364.527 158,366.5C 154.029,375.084 150.862,383.917 148.5,393C 140.726,396.404 136.059,393.904 134.5,385.5C 133.311,384.571 131.978,384.238 130.5,384.5C 130.047,380.046 127.713,377.046 123.5,375.5C 121.787,374.365 121.12,372.698 121.5,370.5C 121.5,370.167 121.5,369.833 121.5,369.5C 122.678,366.802 124.511,364.469 127,362.5C 128.275,360.283 129.275,357.949 130,355.5C 132.508,352.469 135.008,349.469 137.5,346.5C 139.6,344.502 141.6,342.335 143.5,340C 144.448,339.517 145.448,339.351 146.5,339.5C 146.663,341.857 146.497,344.19 146,346.5C 141.943,351.558 138.276,356.892 135,362.5C 133.851,365.393 133.351,368.393 133.5,371.5 Z"/></g>
<g><path style="opacity:1" fill="#7c5940" d="M 254.5,375.5 C 254.573,377.027 253.906,378.027 252.5,378.5C 249.15,378.335 245.817,378.502 242.5,379C 228.111,384.784 213.111,386.784 197.5,385C 192.938,383.239 188.438,381.406 184,379.5C 183.235,379.57 182.735,379.903 182.5,380.5C 181.596,379.791 181.263,378.791 181.5,377.5C 185.941,379.373 190.608,380.707 195.5,381.5C 199.049,383.185 202.883,384.185 207,384.5C 217.419,381.937 227.919,379.77 238.5,378C 243.742,375.42 249.075,374.586 254.5,375.5 Z"/></g>
<g><path style="opacity:1" fill="#98755f" d="M 252.5,378.5 C 244.659,390.934 233.326,398.101 218.5,400C 204.144,402.657 191.144,399.823 179.5,391.5C 181.09,388.053 182.09,384.387 182.5,380.5C 182.735,379.903 183.235,379.57 184,379.5C 188.438,381.406 192.938,383.239 197.5,385C 213.111,386.784 228.111,384.784 242.5,379C 245.817,378.502 249.15,378.335 252.5,378.5 Z"/></g>
<g><path style="opacity:1" fill="#5b371a" d="M 183.5,420.5 C 187.204,414.692 189.537,408.358 190.5,401.5C 191.152,402.449 191.486,403.615 191.5,405C 191,408.665 190,412.165 188.5,415.5C 187.737,417.368 186.737,419.035 185.5,420.5C 179.152,429.675 170.485,433.342 159.5,431.5C 157.016,429.517 154.683,427.35 152.5,425C 145.677,422.671 139.511,419.171 134,414.5C 135.738,418.328 137.238,422.328 138.5,426.5C 136.345,426.628 134.345,426.128 132.5,425C 127.333,419.833 122.167,414.667 117,409.5C 115.241,405.356 113.408,401.356 111.5,397.5C 110.85,395.565 110.517,393.565 110.5,391.5C 110.5,390.167 110.5,388.833 110.5,387.5C 110.5,387.167 110.5,386.833 110.5,386.5C 111.583,386.539 112.583,386.873 113.5,387.5C 114.641,384.938 115.474,382.272 116,379.5C 120.12,384.448 123.62,389.782 126.5,395.5C 133.751,399.527 139.251,405.194 143,412.5C 147.955,413.95 152.789,415.783 157.5,418C 158.863,419.945 159.697,422.112 160,424.5C 165.088,427.371 170.588,428.204 176.5,427C 179.331,425.334 181.664,423.168 183.5,420.5 Z"/></g>
<g><path style="opacity:1" fill="#734d2f" d="M 128.5,353.5 C 127.978,356.253 127.144,358.92 126,361.5C 122.946,363.366 121.446,366.033 121.5,369.5C 121.5,369.833 121.5,370.167 121.5,370.5C 119.45,375.369 120.617,379.369 125,382.5C 128.573,390.603 134.24,396.936 142,401.5C 142.36,403.421 143.194,405.088 144.5,406.5C 149.774,408.976 155.108,411.143 160.5,413C 162.042,416.334 163.042,419.834 163.5,423.5C 168.04,425.151 172.707,425.651 177.5,425C 179.114,422.873 181.114,421.373 183.5,420.5C 181.664,423.168 179.331,425.334 176.5,427C 170.588,428.204 165.088,427.371 160,424.5C 159.697,422.112 158.863,419.945 157.5,418C 152.789,415.783 147.955,413.95 143,412.5C 139.251,405.194 133.751,399.527 126.5,395.5C 123.62,389.782 120.12,384.448 116,379.5C 115.474,382.272 114.641,384.938 113.5,387.5C 112.583,386.873 111.583,386.539 110.5,386.5C 114.689,374.45 120.689,363.45 128.5,353.5 Z"/></g>
<g><path style="opacity:1" fill="#5a4990" d="M 216.5,486.5 C 202.5,486.5 188.5,486.5 174.5,486.5C 170.099,472.632 165.099,458.965 159.5,445.5C 160.949,444.828 162.282,444.161 163.5,443.5C 175.582,440.417 182.915,432.751 185.5,420.5C 186.737,419.035 187.737,417.368 188.5,415.5C 212.199,420.924 233.866,416.591 253.5,402.5C 257.745,398.843 261.412,394.676 264.5,390C 275.497,389.321 286.497,390.321 297.5,393C 299.286,393.785 300.786,394.951 302,396.5C 302.81,403.737 300.644,409.904 295.5,415C 286.186,417.666 276.853,420.332 267.5,423C 257.231,427.376 249.064,434.209 243,443.5C 238.255,453.324 233.255,462.99 228,472.5C 224.68,477.647 220.847,482.314 216.5,486.5 Z"/></g>
<g><path style="opacity:1" fill="#8c664c" d="M 153.5,390.5 C 154.5,390.5 155.5,390.5 156.5,390.5C 159.131,385.663 161.631,380.663 164,375.5C 165.145,374.364 166.312,373.364 167.5,372.5C 173.478,371.162 177.478,373.496 179.5,379.5C 176.059,386.299 172.893,393.299 170,400.5C 169.204,403.039 169.371,405.372 170.5,407.5C 170.833,408.167 171.167,408.833 171.5,409.5C 169.883,408.962 168.216,408.629 166.5,408.5C 166.187,411.247 166.52,413.914 167.5,416.5C 169.712,415.953 171.379,416.953 172.5,419.5C 174.421,420.641 176.421,420.808 178.5,420C 180.087,417.594 181.753,415.428 183.5,413.5C 180.432,422.972 174.432,425.138 165.5,420C 163.977,417.566 162.977,414.899 162.5,412C 156.477,410.487 150.81,408.154 145.5,405C 144.887,402.853 144.221,400.686 143.5,398.5C 137.182,397.305 133.682,393.638 133,387.5C 132,386.833 131,386.167 130,385.5C 128.531,381.523 126.365,378.19 123.5,375.5C 127.713,377.046 130.047,380.046 130.5,384.5C 131.978,384.238 133.311,384.571 134.5,385.5C 136.059,393.904 140.726,396.404 148.5,393C 150.862,383.917 154.029,375.084 158,366.5C 158.495,364.527 158.662,362.527 158.5,360.5C 157.448,360.351 156.448,360.517 155.5,361C 150.852,367.646 145.518,373.646 139.5,379C 137.735,379.64 136.068,379.473 134.5,378.5C 137.702,378.27 140.536,376.604 143,373.5C 147.495,367.336 151.328,360.836 154.5,354C 157.38,353.316 160.213,353.483 163,354.5C 165.298,356.304 165.965,358.637 165,361.5C 159.925,368.984 155.925,376.984 153,385.5C 152.22,387.387 152.387,389.054 153.5,390.5 Z"/></g>
<g><path style="opacity:1" fill="#664125" d="M 195.5,381.5 C 190.608,380.707 185.941,379.373 181.5,377.5C 181.263,378.791 181.596,379.791 182.5,380.5C 182.09,384.387 181.09,388.053 179.5,391.5C 177.992,393.181 176.992,395.181 176.5,397.5C 173.483,400.198 171.483,403.531 170.5,407.5C 169.371,405.372 169.204,403.039 170,400.5C 172.893,393.299 176.059,386.299 179.5,379.5C 177.478,373.496 173.478,371.162 167.5,372.5C 167.484,370.516 168.484,369.516 170.5,369.5C 179.306,372.738 187.639,376.738 195.5,381.5 Z"/></g>
<g><path style="opacity:1" fill="#4a387d" d="M 269.5,367.5 C 270.837,368.315 271.837,369.482 272.5,371C 284.263,373.271 295.597,376.771 306.5,381.5C 307.425,382.357 308.092,383.357 308.5,384.5C 311.989,391.478 315.489,398.478 319,405.5C 321.23,409.962 322.897,414.628 324,419.5C 327.031,437.781 329.698,456.115 332,474.5C 333.813,472.528 334.98,472.528 335.5,474.5C 335.177,478.519 334.844,482.519 334.5,486.5C 319.833,486.5 305.167,486.5 290.5,486.5C 289.084,474.82 289.25,463.153 291,451.5C 294.93,439.209 298.764,426.875 302.5,414.5C 302.376,413.893 302.043,413.56 301.5,413.5C 302.197,409.044 303.364,404.71 305,400.5C 305.667,396.167 305.667,391.833 305,387.5C 303.421,385.959 301.587,384.792 299.5,384C 290.612,381.361 281.612,379.195 272.5,377.5C 271.833,377.833 271.167,378.167 270.5,378.5C 269.527,381.779 268.027,384.779 266,387.5C 267.051,383.724 268.218,379.89 269.5,376C 268.663,374.989 268.33,373.822 268.5,372.5C 263.99,372.271 259.657,372.938 255.5,374.5C 255.328,373.508 255.662,372.842 256.5,372.5C 261.239,371.374 265.573,369.707 269.5,367.5 Z"/></g>
<g><path style="opacity:1" fill="#98745d" d="M 169.5,378.5 C 171.948,378.085 173.281,379.085 173.5,381.5C 172.14,386.553 169.973,391.219 167,395.5C 167.138,402.025 164.138,406.358 158,408.5C 154.688,405.593 150.854,403.926 146.5,403.5C 146.523,401.073 147.023,398.74 148,396.5C 149.972,395.695 151.472,394.361 152.5,392.5C 155.428,391.516 158.428,391.183 161.5,391.5C 163.386,386.737 166.052,382.404 169.5,378.5 Z"/></g>
<g><path style="opacity:1" fill="#49367d" d="M 110.5,391.5 C 110.517,393.565 110.85,395.565 111.5,397.5C 111.5,398.5 111.5,399.5 111.5,400.5C 106.936,406.614 103.102,413.281 100,420.5C 96.1726,431.157 91.6726,441.49 86.5,451.5C 86.7093,452.086 87.0426,452.586 87.5,453C 89.5,453.333 91.5,453.667 93.5,454C 90.8333,454.333 88.1667,454.667 85.5,455C 83.5965,457.877 82.5965,461.044 82.5,464.5C 85.7273,464.676 88.7273,465.343 91.5,466.5C 91.5,467.833 90.8333,468.5 89.5,468.5C 88.2921,467.766 86.9587,467.433 85.5,467.5C 81.9792,466.09 78.3125,464.923 74.5,464C 76.0015,460.995 77.0015,457.829 77.5,454.5C 78.5,454.5 79.5,454.5 80.5,454.5C 80.3398,452.801 80.5065,451.134 81,449.5C 85.8745,437.868 90.5412,426.201 95,414.5C 99.4758,407.711 103.476,400.711 107,393.5C 107.816,392.177 108.983,391.511 110.5,391.5 Z"/></g>
<g><path style="opacity:1" fill="#57458c" d="M 301.5,413.5 C 300.833,415.167 300.167,416.833 299.5,418.5C 297.013,422.803 294.513,427.136 292,431.5C 288.392,435.783 284.726,440.117 281,444.5C 277.742,451.354 274.742,458.354 272,465.5C 270.319,472.557 268.486,479.557 266.5,486.5C 249.833,486.5 233.167,486.5 216.5,486.5C 220.847,482.314 224.68,477.647 228,472.5C 233.255,462.99 238.255,453.324 243,443.5C 249.064,434.209 257.231,427.376 267.5,423C 276.853,420.332 286.186,417.666 295.5,415C 300.644,409.904 302.81,403.737 302,396.5C 300.786,394.951 299.286,393.785 297.5,393C 286.497,390.321 275.497,389.321 264.5,390C 261.412,394.676 257.745,398.843 253.5,402.5C 233.866,416.591 212.199,420.924 188.5,415.5C 190,412.165 191,408.665 191.5,405C 191.486,403.615 191.152,402.449 190.5,401.5C 186.83,396.782 182.163,395.449 176.5,397.5C 176.992,395.181 177.992,393.181 179.5,391.5C 191.144,399.823 204.144,402.657 218.5,400C 233.326,398.101 244.659,390.934 252.5,378.5C 253.906,378.027 254.573,377.027 254.5,375.5C 255.167,375.5 255.5,375.167 255.5,374.5C 259.657,372.938 263.99,372.271 268.5,372.5C 268.33,373.822 268.663,374.989 269.5,376C 268.218,379.89 267.051,383.724 266,387.5C 268.027,384.779 269.527,381.779 270.5,378.5C 271.167,378.167 271.833,377.833 272.5,377.5C 281.612,379.195 290.612,381.361 299.5,384C 301.587,384.792 303.421,385.959 305,387.5C 305.667,391.833 305.667,396.167 305,400.5C 303.364,404.71 302.197,409.044 301.5,413.5 Z"/></g>
<g><path style="opacity:1" fill="#59468c" d="M 111.5,400.5 C 112.349,404.551 113.515,408.551 115,412.5C 117.393,415.952 119.226,419.619 120.5,423.5C 111.081,438.006 101.414,452.339 91.5,466.5C 88.7273,465.343 85.7273,464.676 82.5,464.5C 82.5965,461.044 83.5965,457.877 85.5,455C 88.1667,454.667 90.8333,454.333 93.5,454C 91.5,453.667 89.5,453.333 87.5,453C 87.0426,452.586 86.7093,452.086 86.5,451.5C 91.6726,441.49 96.1726,431.157 100,420.5C 103.102,413.281 106.936,406.614 111.5,400.5 Z"/></g>
<g><path style="opacity:1" fill="#39256b" d="M 110.5,387.5 C 110.5,388.833 110.5,390.167 110.5,391.5C 108.983,391.511 107.816,392.177 107,393.5C 103.476,400.711 99.4758,407.711 95,414.5C 90.5412,426.201 85.8745,437.868 81,449.5C 80.5065,451.134 80.3398,452.801 80.5,454.5C 79.5,454.5 78.5,454.5 77.5,454.5C 77.0015,457.829 76.0015,460.995 74.5,464C 78.3125,464.923 81.9792,466.09 85.5,467.5C 81.4517,467.395 77.4517,467.728 73.5,468.5C 73.0173,471.658 72.0173,474.658 70.5,477.5C 68.5726,474.863 68.0726,471.863 69,468.5C 75.441,454.518 81.1077,440.184 86,425.5C 91.9354,411.271 100.102,398.604 110.5,387.5 Z"/></g>
<g><path style="opacity:1" fill="#80593c" d="M 121.5,370.5 C 121.12,372.698 121.787,374.365 123.5,375.5C 126.365,378.19 128.531,381.523 130,385.5C 131,386.167 132,386.833 133,387.5C 133.682,393.638 137.182,397.305 143.5,398.5C 144.221,400.686 144.887,402.853 145.5,405C 150.81,408.154 156.477,410.487 162.5,412C 162.977,414.899 163.977,417.566 165.5,420C 174.432,425.138 180.432,422.972 183.5,413.5C 187.223,409.606 188.223,405.106 186.5,400C 183.833,399.333 181.167,399.333 178.5,400C 177.076,403.911 174.743,407.078 171.5,409.5C 171.167,408.833 170.833,408.167 170.5,407.5C 171.483,403.531 173.483,400.198 176.5,397.5C 182.163,395.449 186.83,396.782 190.5,401.5C 189.537,408.358 187.204,414.692 183.5,420.5C 181.114,421.373 179.114,422.873 177.5,425C 172.707,425.651 168.04,425.151 163.5,423.5C 163.042,419.834 162.042,416.334 160.5,413C 155.108,411.143 149.774,408.976 144.5,406.5C 143.194,405.088 142.36,403.421 142,401.5C 134.24,396.936 128.573,390.603 125,382.5C 120.617,379.369 119.45,375.369 121.5,370.5 Z"/></g>
<g><path style="opacity:1" fill="#98745d" d="M 183.5,413.5 C 181.753,415.428 180.087,417.594 178.5,420C 176.421,420.808 174.421,420.641 172.5,419.5C 171.379,416.953 169.712,415.953 167.5,416.5C 166.52,413.914 166.187,411.247 166.5,408.5C 168.216,408.629 169.883,408.962 171.5,409.5C 174.743,407.078 177.076,403.911 178.5,400C 181.167,399.333 183.833,399.333 186.5,400C 188.223,405.106 187.223,409.606 183.5,413.5 Z"/></g>
<g><path style="opacity:1" fill="#502d0f" d="M 111.5,397.5 C 113.408,401.356 115.241,405.356 117,409.5C 122.167,414.667 127.333,419.833 132.5,425C 134.345,426.128 136.345,426.628 138.5,426.5C 137.238,422.328 135.738,418.328 134,414.5C 139.511,419.171 145.677,422.671 152.5,425C 154.683,427.35 157.016,429.517 159.5,431.5C 170.485,433.342 179.152,429.675 185.5,420.5C 182.915,432.751 175.582,440.417 163.5,443.5C 160.428,443.183 157.428,443.516 154.5,444.5C 147.822,458.522 141.155,472.522 134.5,486.5C 132.167,486.5 129.833,486.5 127.5,486.5C 132.908,475.102 138.408,463.768 144,452.5C 150.014,447.76 149.18,444.093 141.5,441.5C 138.01,438.589 134.344,435.922 130.5,433.5C 128.402,430.076 125.402,427.743 121.5,426.5C 120.614,425.675 120.281,424.675 120.5,423.5C 119.226,419.619 117.393,415.952 115,412.5C 113.515,408.551 112.349,404.551 111.5,400.5C 111.5,399.5 111.5,398.5 111.5,397.5 Z"/></g>
<g><path style="opacity:1" fill="#4b397f" d="M 299.5,418.5 C 297.557,427.241 294.057,435.241 289,442.5C 283.399,456.635 280.233,471.301 279.5,486.5C 275.167,486.5 270.833,486.5 266.5,486.5C 268.486,479.557 270.319,472.557 272,465.5C 274.742,458.354 277.742,451.354 281,444.5C 284.726,440.117 288.392,435.783 292,431.5C 294.513,427.136 297.013,422.803 299.5,418.5 Z"/></g>
<g><path style="opacity:1" fill="#38256a" d="M 308.5,384.5 C 317.245,395.131 323.745,407.131 328,420.5C 331.968,435.973 334.968,451.639 337,467.5C 340.728,473.638 341.228,479.971 338.5,486.5C 337.167,486.5 335.833,486.5 334.5,486.5C 334.844,482.519 335.177,478.519 335.5,474.5C 334.98,472.528 333.813,472.528 332,474.5C 329.698,456.115 327.031,437.781 324,419.5C 322.897,414.628 321.23,409.962 319,405.5C 315.489,398.478 311.989,391.478 308.5,384.5 Z"/></g>
<g><path style="opacity:1" fill="#815a3d" d="M 130.5,433.5 C 134.344,435.922 138.01,438.589 141.5,441.5C 142.39,443.782 142.556,446.115 142,448.5C 134.062,460.707 126.895,473.374 120.5,486.5C 118.167,486.5 115.833,486.5 113.5,486.5C 120.7,471.925 129.033,458.092 138.5,445C 138.333,444.167 138.167,443.333 138,442.5C 135.357,441.024 133.19,439.024 131.5,436.5C 128.182,434.182 125.016,434.182 122,436.5C 120.864,440.243 119.53,443.91 118,447.5C 109.641,460.224 101.808,473.224 94.5,486.5C 91.1667,486.5 87.8333,486.5 84.5,486.5C 93.4312,470.292 103.598,454.958 115,440.5C 116.072,437.782 117.238,435.115 118.5,432.5C 119.548,431.617 120.715,430.95 122,430.5C 125.034,431.127 127.868,432.127 130.5,433.5 Z"/></g>
<g><path style="opacity:1" fill="#886146" d="M 113.5,486.5 C 107.167,486.5 100.833,486.5 94.5,486.5C 101.808,473.224 109.641,460.224 118,447.5C 119.53,443.91 120.864,440.243 122,436.5C 125.016,434.182 128.182,434.182 131.5,436.5C 133.19,439.024 135.357,441.024 138,442.5C 138.167,443.333 138.333,444.167 138.5,445C 129.033,458.092 120.7,471.925 113.5,486.5 Z"/></g>
<g><path style="opacity:1" fill="#4f3c82" d="M 163.5,443.5 C 162.282,444.161 160.949,444.828 159.5,445.5C 165.099,458.965 170.099,472.632 174.5,486.5C 161.167,486.5 147.833,486.5 134.5,486.5C 141.155,472.522 147.822,458.522 154.5,444.5C 157.428,443.516 160.428,443.183 163.5,443.5 Z"/></g>
<g><path style="opacity:1" fill="#392769" d="M 301.5,413.5 C 302.043,413.56 302.376,413.893 302.5,414.5C 298.764,426.875 294.93,439.209 291,451.5C 289.25,463.153 289.084,474.82 290.5,486.5C 286.833,486.5 283.167,486.5 279.5,486.5C 280.233,471.301 283.399,456.635 289,442.5C 294.057,435.241 297.557,427.241 299.5,418.5C 300.167,416.833 300.833,415.167 301.5,413.5 Z"/></g>
<g><path style="opacity:1" fill="#764f31" d="M 120.5,423.5 C 120.281,424.675 120.614,425.675 121.5,426.5C 125.402,427.743 128.402,430.076 130.5,433.5C 127.868,432.127 125.034,431.127 122,430.5C 120.715,430.95 119.548,431.617 118.5,432.5C 117.238,435.115 116.072,437.782 115,440.5C 103.598,454.958 93.4312,470.292 84.5,486.5C 82.8333,486.5 81.1667,486.5 79.5,486.5C 83.2343,480.755 86.5677,474.755 89.5,468.5C 90.8333,468.5 91.5,467.833 91.5,466.5C 101.414,452.339 111.081,438.006 120.5,423.5 Z"/></g>
<g><path style="opacity:1" fill="#6b4629" d="M 141.5,441.5 C 149.18,444.093 150.014,447.76 144,452.5C 138.408,463.768 132.908,475.102 127.5,486.5C 125.167,486.5 122.833,486.5 120.5,486.5C 126.895,473.374 134.062,460.707 142,448.5C 142.556,446.115 142.39,443.782 141.5,441.5 Z"/></g>
<g><path style="opacity:1" fill="#886145" d="M 85.5,467.5 C 86.9587,467.433 88.2921,467.766 89.5,468.5C 86.5677,474.755 83.2343,480.755 79.5,486.5C 75.5,486.5 71.5,486.5 67.5,486.5C 68.2163,483.402 69.2163,480.402 70.5,477.5C 72.0173,474.658 73.0173,471.658 73.5,468.5C 77.4517,467.728 81.4517,467.395 85.5,467.5 Z"/></g>
</svg>
