<?xml version="1.0" encoding="UTF-8"?>
<!DOCTYPE svg PUBLIC "-//W3C//DTD SVG 1.1//EN" "http://www.w3.org/Graphics/SVG/1.1/DTD/svg11.dtd">
<svg xmlns="http://www.w3.org/2000/svg" version="1.1" width="420px" height="447px" style="shape-rendering:geometricPrecision; text-rendering:geometricPrecision; image-rendering:optimizeQuality; fill-rule:evenodd; clip-rule:evenodd" xmlns:xlink="http://www.w3.org/1999/xlink">
<g><path style="opacity:1" fill="#363230" d="M 141.5,9.5 C 142.582,11.9785 141.582,13.4785 138.5,14C 132.577,15.3041 126.577,15.8041 120.5,15.5C 120.33,14.1779 120.663,13.0113 121.5,12C 117.975,12.0159 114.642,11.8493 111.5,11.5C 114.31,6.58428 118.644,3.91762 124.5,3.5C 129.736,5.28092 135.069,6.78092 140.5,8C 141.056,8.38258 141.389,8.88258 141.5,9.5 Z"/></g>
<g><path style="opacity:1" fill="#1f1c19" d="M 157.5,-0.5 C 159.833,-0.5 162.167,-0.5 164.5,-0.5C 170,2.4997 172.333,7.16637 171.5,13.5C 164.973,12.5675 159.306,14.2342 154.5,18.5C 155.689,19.4287 157.022,19.762 158.5,19.5C 158.5,20.5 158.5,21.5 158.5,22.5C 163.463,23.254 168.463,23.5874 173.5,23.5C 166.795,25.1078 160.128,24.6078 153.5,22C 152.446,20.6124 152.28,19.1124 153,17.5C 154.41,16.2125 155.91,15.0458 157.5,14C 154.072,13.8218 150.905,14.6551 148,16.5C 147.667,16.1667 147.333,15.8333 147,15.5C 146.088,19.7946 145.421,24.1279 145,28.5C 143.989,29.3366 142.822,29.67 141.5,29.5C 142.627,31.9977 143.294,34.6644 143.5,37.5C 142.944,43.0528 139.777,45.3862 134,44.5C 130.053,44.3868 126.219,43.7202 122.5,42.5C 119.576,39.9436 118.91,36.9436 120.5,33.5C 120.393,35.9032 121.393,37.7365 123.5,39C 127.833,39.6667 132.167,39.6667 136.5,39C 138.504,36.1592 139.004,32.9926 138,29.5C 134.715,27.8627 131.215,27.1961 127.5,27.5C 127.918,26.7784 128.584,26.2784 129.5,26C 127.623,24.8147 125.623,23.8147 123.5,23C 122.252,21.0414 120.585,19.5414 118.5,18.5C 117.742,19.8114 116.742,20.3114 115.5,20C 113.76,18.483 112.094,16.983 110.5,15.5C 110.232,13.901 110.566,12.5676 111.5,11.5C 114.642,11.8493 117.975,12.0159 121.5,12C 120.663,13.0113 120.33,14.1779 120.5,15.5C 126.577,15.8041 132.577,15.3041 138.5,14C 141.582,13.4785 142.582,11.9785 141.5,9.5C 143.017,9.51056 144.184,10.1772 145,11.5C 147.744,5.92064 151.911,1.92064 157.5,-0.5 Z"/></g>
<g><path style="opacity:1" fill="#2d2a26" d="M 202.5,17.5 C 201.544,19.5158 200.21,21.3492 198.5,23C 192.169,24.0008 186.002,23.5008 180,21.5C 177.953,22.6094 175.787,23.2761 173.5,23.5C 168.463,23.5874 163.463,23.254 158.5,22.5C 158.5,21.5 158.5,20.5 158.5,19.5C 157.022,19.762 155.689,19.4287 154.5,18.5C 159.306,14.2342 164.973,12.5675 171.5,13.5C 173.03,14.0668 174.53,14.7334 176,15.5C 183.413,10.1766 191.246,9.3433 199.5,13C 201.141,14.129 202.141,15.629 202.5,17.5 Z"/></g>
<g><path style="opacity:1" fill="#413e3b" d="M 127.5,27.5 C 131.215,27.1961 134.715,27.8627 138,29.5C 139.004,32.9926 138.504,36.1592 136.5,39C 132.167,39.6667 127.833,39.6667 123.5,39C 121.393,37.7365 120.393,35.9032 120.5,33.5C 121.779,30.3481 124.112,28.3481 127.5,27.5 Z"/></g>
<g><path style="opacity:1" fill="#2e2b28" d="M 226.5,36.5 C 226.074,38.2849 224.908,39.2849 223,39.5C 218.269,38.9511 213.603,38.2845 209,37.5C 208.89,39.8483 207.723,41.3483 205.5,42C 199.804,42.8299 194.137,42.6632 188.5,41.5C 185.077,38.9687 184.743,36.1354 187.5,33C 191.7,31.6326 196.033,31.1326 200.5,31.5C 200.263,30.209 200.596,29.209 201.5,28.5C 208.826,26.6381 215.826,27.4715 222.5,31C 224.464,32.451 225.797,34.2843 226.5,36.5 Z"/></g>
<g><path style="opacity:1" fill="#26231f" d="M 110.5,18.5 C 112.479,21.3079 114.312,24.3079 116,27.5C 116.667,29.5 116.667,31.5 116,33.5C 108.378,36.3665 100.545,37.8665 92.5,38C 92,37.5 91.5,37 91,36.5C 90.5065,38.1341 90.3398,39.8008 90.5,41.5C 84.8328,42.625 79.3328,44.2917 74,46.5C 72.3009,46.6134 71.1342,45.9468 70.5,44.5C 71.1335,41.3567 72.8002,38.8567 75.5,37C 79.5209,34.6597 83.8543,33.3264 88.5,33C 85.4793,28.123 86.1459,23.7897 90.5,20C 96.9937,16.1848 103.66,15.6848 110.5,18.5 Z"/></g>
<g><path style="opacity:1" fill="#383532" d="M 102.5,24.5 C 104.833,24.5 107.167,24.5 109.5,24.5C 109.739,26.4672 109.406,28.3005 108.5,30C 103.629,33.2736 98.2952,35.1069 92.5,35.5C 92.3433,34.1266 92.51,32.7932 93,31.5C 95.7901,28.535 98.9567,26.2016 102.5,24.5 Z"/></g>
<g><path style="opacity:1" fill="#171410" d="M 173.5,23.5 C 175.787,23.2761 177.953,22.6094 180,21.5C 186.002,23.5008 192.169,24.0008 198.5,23C 200.21,21.3492 201.544,19.5158 202.5,17.5C 203.152,18.4486 203.486,19.6153 203.5,21C 203.261,23.6353 202.594,26.1353 201.5,28.5C 200.596,29.209 200.263,30.209 200.5,31.5C 196.033,31.1326 191.7,31.6326 187.5,33C 184.743,36.1354 185.077,38.9687 188.5,41.5C 194.137,42.6632 199.804,42.8299 205.5,42C 207.723,41.3483 208.89,39.8483 209,37.5C 213.603,38.2845 218.269,38.9511 223,39.5C 224.908,39.2849 226.074,38.2849 226.5,36.5C 227.344,40.001 226.011,42.8343 222.5,45C 223.252,45.6708 223.586,46.5041 223.5,47.5C 218.519,46.6684 213.519,46.5017 208.5,47C 208.909,51.1531 208.409,55.3198 207,59.5C 206.329,58.7476 205.496,58.4142 204.5,58.5C 204.047,57.5416 203.381,56.7083 202.5,56C 198.167,55.3333 193.833,55.3333 189.5,56C 186.928,58.2868 183.928,59.4535 180.5,59.5C 179.833,59.5 179.167,59.5 178.5,59.5C 175.713,58.5233 172.713,58.19 169.5,58.5C 171.698,57.8347 174.031,57.1681 176.5,56.5C 178.589,54.4055 178.589,52.5721 176.5,51C 177.591,48.9361 177.758,46.7695 177,44.5C 176.535,45.9308 175.701,47.0975 174.5,48C 167.29,50.4436 159.957,50.9436 152.5,49.5C 150.677,48.5091 149.177,47.1757 148,45.5C 147.687,49.2577 148.187,52.9243 149.5,56.5C 145.548,55.7279 141.548,55.3946 137.5,55.5C 138.6,54.4415 139.934,53.6082 141.5,53C 140.833,52 140.167,51 139.5,50C 134.956,48.0293 130.289,46.3627 125.5,45C 124.058,44.6232 123.058,43.7899 122.5,42.5C 126.219,43.7202 130.053,44.3868 134,44.5C 139.777,45.3862 142.944,43.0528 143.5,37.5C 143.294,34.6644 142.627,31.9977 141.5,29.5C 142.822,29.67 143.989,29.3366 145,28.5C 145.421,24.1279 146.088,19.7946 147,15.5C 147.333,15.8333 147.667,16.1667 148,16.5C 150.905,14.6551 154.072,13.8218 157.5,14C 155.91,15.0458 154.41,16.2125 153,17.5C 152.28,19.1124 152.446,20.6124 153.5,22C 160.128,24.6078 166.795,25.1078 173.5,23.5 Z"/></g>
<g><path style="opacity:1" fill="#3d3a38" d="M 156.5,33.5 C 162.039,32.6384 166.872,33.9718 171,37.5C 172.056,42.124 170.223,44.9573 165.5,46C 159.311,47.6393 155.311,45.4727 153.5,39.5C 153.628,37.0452 154.628,35.0452 156.5,33.5 Z"/></g>
<g><path style="opacity:1" fill="#15110e" d="M 110.5,15.5 C 112.094,16.983 113.76,18.483 115.5,20C 116.742,20.3114 117.742,19.8114 118.5,18.5C 120.585,19.5414 122.252,21.0414 123.5,23C 125.623,23.8147 127.623,24.8147 129.5,26C 128.584,26.2784 127.918,26.7784 127.5,27.5C 124.112,28.3481 121.779,30.3481 120.5,33.5C 118.91,36.9436 119.576,39.9436 122.5,42.5C 123.058,43.7899 124.058,44.6232 125.5,45C 130.289,46.3627 134.956,48.0293 139.5,50C 140.167,51 140.833,52 141.5,53C 139.934,53.6082 138.6,54.4415 137.5,55.5C 127.146,57.7593 125.813,62.5927 133.5,70C 142.712,74.062 148.712,71.062 151.5,61C 151.481,59.167 150.815,57.667 149.5,56.5C 148.187,52.9243 147.687,49.2577 148,45.5C 149.177,47.1757 150.677,48.5091 152.5,49.5C 159.957,50.9436 167.29,50.4436 174.5,48C 175.701,47.0975 176.535,45.9308 177,44.5C 177.758,46.7695 177.591,48.9361 176.5,51C 178.589,52.5721 178.589,54.4055 176.5,56.5C 174.031,57.1681 171.698,57.8347 169.5,58.5C 166.685,59.1264 164.185,60.4598 162,62.5C 161.502,65.4816 161.335,68.4816 161.5,71.5C 159.606,70.9524 157.94,69.9524 156.5,68.5C 147.508,77.4279 138.342,77.7613 129,69.5C 130.552,73.1373 132.052,76.9707 133.5,81C 133.178,83.521 131.844,85.021 129.5,85.5C 129.574,79.5015 128.241,73.8348 125.5,68.5C 116.254,65.8913 109.921,69.0579 106.5,78C 105.167,78.6667 103.833,78.6667 102.5,78C 100.957,76.2863 99.2901,74.7863 97.5,73.5C 88.9276,76.4048 82.9276,82.0715 79.5,90.5C 77.3616,86.0841 76.0283,81.4174 75.5,76.5C 74.354,75.8551 73.354,75.0217 72.5,74C 81.1817,71.6067 89.8484,69.1067 98.5,66.5C 98.8333,65.8333 99.1667,65.1667 99.5,64.5C 96.1442,62.7816 94.6442,60.115 95,56.5C 102.817,59.7334 110.151,58.7334 117,53.5C 118.665,49.4337 118.332,45.4337 116,41.5C 112.731,40.1816 109.565,40.1816 106.5,41.5C 101.391,43.2252 97.7244,46.5585 95.5,51.5C 91.9581,51.1872 88.6248,51.5206 85.5,52.5C 82.6185,53.6827 79.6185,54.6827 76.5,55.5C 70.991,53.472 68.991,49.8053 70.5,44.5C 71.1342,45.9468 72.3009,46.6134 74,46.5C 79.3328,44.2917 84.8328,42.625 90.5,41.5C 90.3398,39.8008 90.5065,38.1341 91,36.5C 91.5,37 92,37.5 92.5,38C 100.545,37.8665 108.378,36.3665 116,33.5C 116.667,31.5 116.667,29.5 116,27.5C 114.312,24.3079 112.479,21.3079 110.5,18.5C 110.5,17.5 110.5,16.5 110.5,15.5 Z"/></g>
<g><path style="opacity:1" fill="#2c2926" d="M 85.5,52.5 C 88.1667,52.5 90.8333,52.5 93.5,52.5C 93.6633,54.8568 93.4966,57.1902 93,59.5C 89.0541,63.4446 84.5541,66.6113 79.5,69C 73.846,70.4978 71.5126,68.3312 72.5,62.5C 73.063,59.7052 74.3963,57.3718 76.5,55.5C 79.6185,54.6827 82.6185,53.6827 85.5,52.5 Z"/></g>
<g><path style="opacity:1" fill="#3c3a37" d="M 106.5,41.5 C 108.833,41.5 111.167,41.5 113.5,41.5C 116.36,54.97 111.027,59.97 97.5,56.5C 95.9951,55.1585 95.3285,53.4918 95.5,51.5C 97.7244,46.5585 101.391,43.2252 106.5,41.5 Z"/></g>
<g><path style="opacity:1" fill="#3d3a37" d="M 137.5,55.5 C 141.548,55.3946 145.548,55.7279 149.5,56.5C 150.815,57.667 151.481,59.167 151.5,61C 148.712,71.062 142.712,74.062 133.5,70C 125.813,62.5927 127.146,57.7593 137.5,55.5 Z"/></g>
<g><path style="opacity:1" fill="#110e0b" d="M 236.5,66.5 C 236.663,68.8568 236.497,71.1902 236,73.5C 234.27,75.4019 232.437,77.0686 230.5,78.5C 228.473,78.6621 226.473,78.4955 224.5,78C 221.128,72.8099 216.461,69.3099 210.5,67.5C 209.756,66.0095 209.09,64.5095 208.5,63C 215.975,61.885 223.475,61.0516 231,60.5C 231.065,63.1977 229.898,65.3644 227.5,67C 229.155,68.4443 229.822,70.2776 229.5,72.5C 233.093,71.9912 235.426,69.9912 236.5,66.5 Z"/></g>
<g><path style="opacity:1" fill="#130f0c" d="M 161.5,71.5 C 168.236,78.8695 176.569,82.3695 186.5,82C 188.53,80.1038 190.197,77.9371 191.5,75.5C 196.792,74.5052 202.125,74.1718 207.5,74.5C 208.08,78.81 208.414,83.1434 208.5,87.5C 213.329,88.719 218.163,90.0523 223,91.5C 224.226,91.3552 225.393,91.0219 226.5,90.5C 226.319,93.8115 228.152,95.4782 232,95.5C 233.167,95.1667 234.333,94.8333 235.5,94.5C 235.994,92.9745 236.661,91.6412 237.5,90.5C 238.664,95.8797 236.33,99.0464 230.5,100C 233.955,105.867 234.288,111.867 231.5,118C 227.874,118.278 225.874,120.112 225.5,123.5C 224.373,122.878 223.373,122.045 222.5,121C 226.203,117.604 227.369,113.437 226,108.5C 224.066,106.057 221.566,104.724 218.5,104.5C 218.429,98.8597 216.096,94.3597 211.5,91C 209.32,90.5812 207.154,90.7479 205,91.5C 197.006,86.2019 191.506,88.0353 188.5,97C 190.541,102.532 194.541,105.699 200.5,106.5C 204.257,104.786 206.09,101.786 206,97.5C 207.428,103.763 211.262,107.43 217.5,108.5C 217.5,111.833 217.5,115.167 217.5,118.5C 215.315,118.296 213.315,117.63 211.5,116.5C 210.609,115.89 209.609,115.557 208.5,115.5C 205.77,113.409 202.77,113.076 199.5,114.5C 191.557,110.38 183.39,109.713 175,112.5C 167.877,111.296 161.044,111.962 154.5,114.5C 150.939,114.748 147.272,114.915 143.5,115C 139.6,118.083 135.266,120.416 130.5,122C 127.863,125.817 124.196,127.484 119.5,127C 116,129.334 113,132.168 110.5,135.5C 107.514,139.32 104.347,142.987 101,146.5C 95.8213,158.398 98.1546,168.398 108,176.5C 108.589,180.691 110.422,184.024 113.5,186.5C 112.293,196.808 111.293,207.141 110.5,217.5C 110.167,218.167 109.833,218.833 109.5,219.5C 108.108,218.395 106.941,217.061 106,215.5C 105.768,216.737 105.268,217.737 104.5,218.5C 103.395,217.4 102.062,216.733 100.5,216.5C 99.2201,209.94 98.3867,203.273 98,196.5C 97.1376,194.913 96.4709,193.246 96,191.5C 95.6993,183.485 95.1993,175.485 94.5,167.5C 94.7252,164.206 95.3918,161.039 96.5,158C 91.8687,157.525 89.0354,155.025 88,150.5C 87.1744,147.207 86.6744,143.874 86.5,140.5C 82.9746,140.654 80.1413,139.321 78,136.5C 76.4283,128.658 74.2616,120.991 71.5,113.5C 70.3279,113.081 69.3279,112.415 68.5,111.5C 67.0968,107.968 66.0968,104.302 65.5,100.5C 64.1451,99.8118 63.1451,98.8118 62.5,97.5C 68.1567,97.0125 73.49,95.3459 78.5,92.5C 79.641,94.4213 79.8077,96.4213 79,98.5C 73.3333,104.172 72.3333,110.506 76,117.5C 77.3957,119.527 79.0624,119.86 81,118.5C 82.1123,116.61 82.9456,114.61 83.5,112.5C 82.9592,107.818 81.7925,103.484 80,99.5C 81.8527,101.592 84.1861,102.592 87,102.5C 89.8557,102.129 92.6891,101.629 95.5,101C 99.4916,97.6691 103.825,94.8358 108.5,92.5C 109.096,91.2839 109.263,89.9506 109,88.5C 112.681,91.3597 116.848,92.1931 121.5,91C 124.576,89.7567 127.243,87.9233 129.5,85.5C 131.844,85.021 133.178,83.521 133.5,81C 132.052,76.9707 130.552,73.1373 129,69.5C 138.342,77.7613 147.508,77.4279 156.5,68.5C 157.94,69.9524 159.606,70.9524 161.5,71.5 Z"/></g>
<g><path style="opacity:1" fill="#211e1b" d="M 223.5,47.5 C 225.437,48.9314 227.27,50.5981 229,52.5C 231.035,57.4583 233.535,62.125 236.5,66.5C 235.426,69.9912 233.093,71.9912 229.5,72.5C 229.822,70.2776 229.155,68.4443 227.5,67C 229.898,65.3644 231.065,63.1977 231,60.5C 223.475,61.0516 215.975,61.885 208.5,63C 209.09,64.5095 209.756,66.0095 210.5,67.5C 216.461,69.3099 221.128,72.8099 224.5,78C 226.473,78.4955 228.473,78.6621 230.5,78.5C 234.377,81.5866 236.711,85.5866 237.5,90.5C 236.661,91.6412 235.994,92.9745 235.5,94.5C 234.333,94.8333 233.167,95.1667 232,95.5C 228.152,95.4782 226.319,93.8115 226.5,90.5C 225.393,91.0219 224.226,91.3552 223,91.5C 218.163,90.0523 213.329,88.719 208.5,87.5C 208.414,83.1434 208.08,78.81 207.5,74.5C 202.125,74.1718 196.792,74.5052 191.5,75.5C 190.197,77.9371 188.53,80.1038 186.5,82C 176.569,82.3695 168.236,78.8695 161.5,71.5C 161.335,68.4816 161.502,65.4816 162,62.5C 164.185,60.4598 166.685,59.1264 169.5,58.5C 172.713,58.19 175.713,58.5233 178.5,59.5C 176.533,59.2606 174.699,59.5939 173,60.5C 171.517,63.7024 171.183,67.0357 172,70.5C 175.167,72.3333 177.667,74.8333 179.5,78C 185.056,79.5814 188.056,77.5814 188.5,72C 188.805,65.8258 186.138,61.6591 180.5,59.5C 183.928,59.4535 186.928,58.2868 189.5,56C 193.833,55.3333 198.167,55.3333 202.5,56C 203.381,56.7083 204.047,57.5416 204.5,58.5C 205.496,58.4142 206.329,58.7476 207,59.5C 208.409,55.3198 208.909,51.1531 208.5,47C 213.519,46.5017 218.519,46.6684 223.5,47.5 Z"/></g>
<g><path style="opacity:1" fill="#3a3734" d="M 204.5,58.5 C 207.244,61.5911 208.077,65.2577 207,69.5C 206.275,70.0585 205.442,70.3918 204.5,70.5C 201.93,69.3831 199.263,68.5497 196.5,68C 195.174,65.8416 193.507,64.0082 191.5,62.5C 190.652,60.5914 190.318,58.5914 190.5,56.5C 195.43,56.034 200.097,56.7006 204.5,58.5 Z"/></g>
<g><path style="opacity:1" fill="#3f3c3a" d="M 178.5,59.5 C 179.167,59.5 179.833,59.5 180.5,59.5C 186.138,61.6591 188.805,65.8258 188.5,72C 188.056,77.5814 185.056,79.5814 179.5,78C 177.667,74.8333 175.167,72.3333 172,70.5C 171.183,67.0357 171.517,63.7024 173,60.5C 174.699,59.5939 176.533,59.2606 178.5,59.5 Z"/></g>
<g><path style="opacity:1" fill="#201d1a" d="M 106.5,41.5 C 109.565,40.1816 112.731,40.1816 116,41.5C 118.332,45.4337 118.665,49.4337 117,53.5C 110.151,58.7334 102.817,59.7334 95,56.5C 94.6442,60.115 96.1442,62.7816 99.5,64.5C 99.1667,65.1667 98.8333,65.8333 98.5,66.5C 89.8484,69.1067 81.1817,71.6067 72.5,74C 73.354,75.0217 74.354,75.8551 75.5,76.5C 76.0283,81.4174 77.3616,86.0841 79.5,90.5C 82.9276,82.0715 88.9276,76.4048 97.5,73.5C 99.2901,74.7863 100.957,76.2863 102.5,78C 103.833,78.6667 105.167,78.6667 106.5,78C 109.921,69.0579 116.254,65.8913 125.5,68.5C 128.241,73.8348 129.574,79.5015 129.5,85.5C 127.243,87.9233 124.576,89.7567 121.5,91C 116.848,92.1931 112.681,91.3597 109,88.5C 109.263,89.9506 109.096,91.2839 108.5,92.5C 103.825,94.8358 99.4916,97.6691 95.5,101C 92.6891,101.629 89.8557,102.129 87,102.5C 84.1861,102.592 81.8527,101.592 80,99.5C 81.7925,103.484 82.9592,107.818 83.5,112.5C 82.9456,114.61 82.1123,116.61 81,118.5C 79.0624,119.86 77.3957,119.527 76,117.5C 72.3333,110.506 73.3333,104.172 79,98.5C 79.8077,96.4213 79.641,94.4213 78.5,92.5C 73.49,95.3459 68.1567,97.0125 62.5,97.5C 61.4309,94.592 61.2642,91.592 62,88.5C 65.8094,79.8746 69.3094,71.2079 72.5,62.5C 71.5126,68.3312 73.846,70.4978 79.5,69C 84.5541,66.6113 89.0541,63.4446 93,59.5C 93.4966,57.1902 93.6633,54.8568 93.5,52.5C 90.8333,52.5 88.1667,52.5 85.5,52.5C 88.6248,51.5206 91.9581,51.1872 95.5,51.5C 95.3285,53.4918 95.9951,55.1585 97.5,56.5C 111.027,59.97 116.36,54.97 113.5,41.5C 111.167,41.5 108.833,41.5 106.5,41.5 Z"/></g>
<g><path style="opacity:1" fill="#363330" d="M 113.5,73.5 C 120.832,73.4739 123.999,77.1406 123,84.5C 118.041,91.2756 113.374,90.9423 109,83.5C 107.571,78.7833 109.071,75.45 113.5,73.5 Z"/></g>
<g><path style="opacity:1" fill="#292522" d="M 180.5,90.5 C 180.5,91.1667 180.833,91.5 181.5,91.5C 181.777,98.8729 178.444,101.04 171.5,98C 167.7,95.2454 166.033,91.7454 166.5,87.5C 167.167,87.1667 167.833,86.8333 168.5,86.5C 172.624,87.6526 176.624,88.9859 180.5,90.5 Z"/></g>
<g><path style="opacity:1" fill="#1c1815" d="M 180.5,90.5 C 176.624,88.9859 172.624,87.6526 168.5,86.5C 167.833,86.8333 167.167,87.1667 166.5,87.5C 166.033,91.7454 167.7,95.2454 171.5,98C 178.444,101.04 181.777,98.8729 181.5,91.5C 185.225,91.7796 186.392,93.7796 185,97.5C 178.867,104.183 171.867,105.183 164,100.5C 163.415,106.92 159.915,109.92 153.5,109.5C 148.744,109.862 144.911,108.196 142,104.5C 140.732,108.767 138.065,111.767 134,113.5C 133.061,116.94 130.895,119.273 127.5,120.5C 124.914,121.48 122.247,121.813 119.5,121.5C 119.759,124.48 118.426,126.313 115.5,127C 110.771,127.996 106.271,127.496 102,125.5C 102.266,129.113 102.766,132.78 103.5,136.5C 102.341,142.091 99.0081,143.924 93.5,142C 90.6792,139.859 89.3459,137.025 89.5,133.5C 90.7588,135.766 92.4255,137.766 94.5,139.5C 99.3604,133.006 100.527,126.006 98,118.5C 100.099,121.267 102.766,123.267 106,124.5C 111.232,118.804 113.232,112.137 112,104.5C 110.327,101.071 107.827,100.071 104.5,101.5C 106.052,98.8881 108.386,97.5548 111.5,97.5C 110.965,100.238 111.965,102.072 114.5,103C 117.947,103.192 121.28,102.525 124.5,101C 127.14,98.3604 129.806,95.6937 132.5,93C 134.856,92.8446 137.189,92.8446 139.5,93C 142.292,87.9177 146.626,84.7511 152.5,83.5C 155.901,84.4415 158.401,86.4415 160,89.5C 162.812,81.9175 167.646,80.4175 174.5,85C 176.342,87.0738 178.342,88.9071 180.5,90.5 Z"/></g>
<g><path style="opacity:1" fill="#302d2a" d="M 145.5,91.5 C 156.25,90.7567 159.25,95.2567 154.5,105C 147.541,106.549 143.874,103.716 143.5,96.5C 143.437,94.4861 144.103,92.8194 145.5,91.5 Z"/></g>
<g><path style="opacity:1" fill="#2e2b29" d="M 199.5,114.5 C 205.266,118.013 206.933,123.013 204.5,129.5C 203.022,129.762 201.689,129.429 200.5,128.5C 201.575,125.562 201.741,122.562 201,119.5C 200.34,117.676 199.173,116.343 197.5,115.5C 194.833,115.167 192.167,114.833 189.5,114.5C 190.244,118.119 190.577,121.785 190.5,125.5C 188.345,125.628 186.345,125.128 184.5,124C 183.005,121.839 181.172,120.005 179,118.5C 174.057,117.97 169.223,116.97 164.5,115.5C 163.692,115.808 163.025,116.308 162.5,117C 166.885,120.367 170.052,124.533 172,129.5C 174.381,130.435 176.881,130.768 179.5,130.5C 179.389,131.117 179.056,131.617 178.5,132C 176.109,132.287 173.776,132.787 171.5,133.5C 170.522,133.023 169.689,132.357 169,131.5C 168.457,133.631 167.624,135.631 166.5,137.5C 165.571,136.311 165.238,134.978 165.5,133.5C 158.314,133.939 151.314,133.939 144.5,133.5C 150.172,133.133 155.839,132.633 161.5,132C 162.617,130.108 164.284,129.275 166.5,129.5C 167.055,125.613 165.721,122.613 162.5,120.5C 161.784,121.311 160.95,121.978 160,122.5C 157.688,121.148 155.188,120.481 152.5,120.5C 147.68,121.208 143.013,122.208 138.5,123.5C 138.338,125.527 138.505,127.527 139,129.5C 141.118,130.283 142.618,131.616 143.5,133.5C 142.417,133.461 141.417,133.127 140.5,132.5C 139.534,134.396 139.201,136.396 139.5,138.5C 135.661,140.167 131.661,140.667 127.5,140C 123.184,133.907 124.184,128.573 130.5,124C 134.381,123.393 137.714,121.726 140.5,119C 144.796,118.036 149.13,117.203 153.5,116.5C 153.863,115.817 154.196,115.15 154.5,114.5C 161.044,111.962 167.877,111.296 175,112.5C 183.39,109.713 191.557,110.38 199.5,114.5 Z"/></g>
<g><path style="opacity:1" fill="#231f1c" d="M 89.5,133.5 C 88.4314,126.365 90.9314,121.031 97,117.5C 97.1509,110.873 99.6509,105.539 104.5,101.5C 107.827,100.071 110.327,101.071 112,104.5C 113.232,112.137 111.232,118.804 106,124.5C 102.766,123.267 100.099,121.267 98,118.5C 100.527,126.006 99.3604,133.006 94.5,139.5C 92.4255,137.766 90.7588,135.766 89.5,133.5 Z"/></g>
<g><path style="opacity:1" fill="#211d1a" d="M 225.5,123.5 C 237.936,138.068 244.602,155.068 245.5,174.5C 243.858,172.919 241.858,172.253 239.5,172.5C 236.635,164.41 233.468,156.41 230,148.5C 226.664,143.998 222.831,139.998 218.5,136.5C 216.333,134.489 213.666,133.322 210.5,133C 205.833,132.333 201.167,132.333 196.5,133C 180.204,137.827 163.537,140.494 146.5,141C 142.5,142 138.5,143 134.5,144C 131.244,145.116 128.578,146.949 126.5,149.5C 122.927,151.464 119.927,154.131 117.5,157.5C 115.299,156.055 113.133,154.388 111,152.5C 110.068,147.011 110.568,141.677 112.5,136.5C 112.043,135.702 111.376,135.369 110.5,135.5C 113,132.168 116,129.334 119.5,127C 124.196,127.484 127.863,125.817 130.5,122C 135.266,120.416 139.6,118.083 143.5,115C 147.272,114.915 150.939,114.748 154.5,114.5C 154.196,115.15 153.863,115.817 153.5,116.5C 149.13,117.203 144.796,118.036 140.5,119C 137.714,121.726 134.381,123.393 130.5,124C 124.184,128.573 123.184,133.907 127.5,140C 131.661,140.667 135.661,140.167 139.5,138.5C 139.201,136.396 139.534,134.396 140.5,132.5C 141.417,133.127 142.417,133.461 143.5,133.5C 143.833,133.5 144.167,133.5 144.5,133.5C 151.314,133.939 158.314,133.939 165.5,133.5C 165.238,134.978 165.571,136.311 166.5,137.5C 167.624,135.631 168.457,133.631 169,131.5C 169.689,132.357 170.522,133.023 171.5,133.5C 173.776,132.787 176.109,132.287 178.5,132C 179.056,131.617 179.389,131.117 179.5,130.5C 182.154,131.342 184.821,131.842 187.5,132C 190.025,128.469 193.359,126.135 197.5,125C 200.071,121.806 200.071,118.639 197.5,115.5C 199.173,116.343 200.34,117.676 201,119.5C 201.741,122.562 201.575,125.562 200.5,128.5C 201.689,129.429 203.022,129.762 204.5,129.5C 206.933,123.013 205.266,118.013 199.5,114.5C 202.77,113.076 205.77,113.409 208.5,115.5C 207.5,115.5 206.5,115.5 205.5,115.5C 207.228,120.444 207.894,125.444 207.5,130.5C 210.437,128.187 213.77,126.854 217.5,126.5C 217.785,124.712 217.452,123.045 216.5,121.5C 214.479,120.145 212.812,118.479 211.5,116.5C 213.315,117.63 215.315,118.296 217.5,118.5C 217.5,115.167 217.5,111.833 217.5,108.5C 211.262,107.43 207.428,103.763 206,97.5C 206.09,101.786 204.257,104.786 200.5,106.5C 194.541,105.699 190.541,102.532 188.5,97C 191.506,88.0353 197.006,86.2019 205,91.5C 207.154,90.7479 209.32,90.5812 211.5,91C 216.096,94.3597 218.429,98.8597 218.5,104.5C 221.566,104.724 224.066,106.057 226,108.5C 227.369,113.437 226.203,117.604 222.5,121C 223.373,122.045 224.373,122.878 225.5,123.5 Z"/></g>
<g><path style="opacity:1" fill="#3b3836" d="M 144.5,133.5 C 144.167,133.5 143.833,133.5 143.5,133.5C 142.618,131.616 141.118,130.283 139,129.5C 138.505,127.527 138.338,125.527 138.5,123.5C 143.013,122.208 147.68,121.208 152.5,120.5C 155.188,120.481 157.688,121.148 160,122.5C 160.95,121.978 161.784,121.311 162.5,120.5C 165.721,122.613 167.055,125.613 166.5,129.5C 164.284,129.275 162.617,130.108 161.5,132C 155.839,132.633 150.172,133.133 144.5,133.5 Z"/></g>
<g><path style="opacity:1" fill="#2e2b28" d="M 208.5,115.5 C 209.609,115.557 210.609,115.89 211.5,116.5C 212.812,118.479 214.479,120.145 216.5,121.5C 217.452,123.045 217.785,124.712 217.5,126.5C 213.77,126.854 210.437,128.187 207.5,130.5C 207.894,125.444 207.228,120.444 205.5,115.5C 206.5,115.5 207.5,115.5 208.5,115.5 Z"/></g>
<g><path style="opacity:1" fill="#3a3735" d="M 197.5,115.5 C 200.071,118.639 200.071,121.806 197.5,125C 193.359,126.135 190.025,128.469 187.5,132C 184.821,131.842 182.154,131.342 179.5,130.5C 176.881,130.768 174.381,130.435 172,129.5C 170.052,124.533 166.885,120.367 162.5,117C 163.025,116.308 163.692,115.808 164.5,115.5C 169.223,116.97 174.057,117.97 179,118.5C 181.172,120.005 183.005,121.839 184.5,124C 186.345,125.128 188.345,125.628 190.5,125.5C 190.577,121.785 190.244,118.119 189.5,114.5C 192.167,114.833 194.833,115.167 197.5,115.5 Z"/></g>
<g><path style="opacity:1" fill="#855d40" d="M 218.5,136.5 C 222.607,146.58 224.94,156.913 225.5,167.5C 221.267,164.91 216.6,163.91 211.5,164.5C 213.315,162.532 213.815,160.198 213,157.5C 211.752,152.753 209.918,148.253 207.5,144C 204.872,142.374 202.539,140.374 200.5,138C 194.155,137.556 187.822,137.723 181.5,138.5C 193.579,134.281 205.912,133.614 218.5,136.5 Z"/></g>
<g><path style="opacity:1" fill="#302d2a" d="M 118.5,131.5 C 119.833,131.5 121.167,131.5 122.5,131.5C 122.33,133.848 121.997,136.182 121.5,138.5C 122.581,141.24 123.581,144.073 124.5,147C 118.811,154.826 114.478,154.16 111.5,145C 111.904,139.354 114.238,134.854 118.5,131.5 Z"/></g>
<g><path style="opacity:1" fill="#4d2b0d" d="M 218.5,136.5 C 205.912,133.614 193.579,134.281 181.5,138.5C 173.163,139.834 164.83,141.167 156.5,142.5C 145.957,142.636 135.957,144.97 126.5,149.5C 128.578,146.949 131.244,145.116 134.5,144C 138.5,143 142.5,142 146.5,141C 163.537,140.494 180.204,137.827 196.5,133C 201.167,132.333 205.833,132.333 210.5,133C 213.666,133.322 216.333,134.489 218.5,136.5 Z"/></g>
<g><path style="opacity:1" fill="#724b2d" d="M 218.5,136.5 C 222.831,139.998 226.664,143.998 230,148.5C 233.468,156.41 236.635,164.41 239.5,172.5C 236.167,172.167 232.833,171.833 229.5,171.5C 228.473,169.806 227.139,168.473 225.5,167.5C 224.94,156.913 222.607,146.58 218.5,136.5 Z"/></g>
<g><path style="opacity:1" fill="#292622" d="M 110.5,135.5 C 111.376,135.369 112.043,135.702 112.5,136.5C 110.568,141.677 110.068,147.011 111,152.5C 113.133,154.388 115.299,156.055 117.5,157.5C 116.707,161.88 115.707,166.214 114.5,170.5C 113.512,175.64 113.179,180.974 113.5,186.5C 110.422,184.024 108.589,180.691 108,176.5C 98.1546,168.398 95.8213,158.398 101,146.5C 104.347,142.987 107.514,139.32 110.5,135.5 Z"/></g>
<g><path style="opacity:1" fill="#8a6347" d="M 156.5,142.5 C 153.372,143.632 150.038,144.465 146.5,145C 144.957,146.878 143.124,148.378 141,149.5C 139.829,153.89 138.663,158.223 137.5,162.5C 138.201,166.808 138.534,171.141 138.5,175.5C 139.833,175.5 141.167,175.5 142.5,175.5C 138.659,176.992 135.325,179.325 132.5,182.5C 131.178,182.67 130.011,182.337 129,181.5C 128.108,175.814 127.108,170.147 126,164.5C 125.222,159.416 125.389,154.416 126.5,149.5C 135.957,144.97 145.957,142.636 156.5,142.5 Z"/></g>
<g><path style="opacity:1" fill="#7a5234" d="M 126.5,149.5 C 125.389,154.416 125.222,159.416 126,164.5C 127.108,170.147 128.108,175.814 129,181.5C 130.011,182.337 131.178,182.67 132.5,182.5C 131.488,183.872 130.488,185.205 129.5,186.5C 128.167,187.5 128.167,188.5 129.5,189.5C 126.328,191.252 123.328,193.252 120.5,195.5C 118.101,190.632 116.101,185.632 114.5,180.5C 114.5,177.167 114.5,173.833 114.5,170.5C 115.707,166.214 116.707,161.88 117.5,157.5C 119.927,154.131 122.927,151.464 126.5,149.5 Z"/></g>
<g><path style="opacity:1" fill="#443329" d="M 211.5,164.5 C 216.6,163.91 221.267,164.91 225.5,167.5C 227.139,168.473 228.473,169.806 229.5,171.5C 228.5,171.5 227.5,171.5 226.5,171.5C 225.4,170.442 224.066,169.608 222.5,169C 214.393,168.173 206.393,168.673 198.5,170.5C 198.33,169.178 198.663,168.011 199.5,167C 203.378,165.53 207.378,164.697 211.5,164.5 Z"/></g>
<g><path style="opacity:1" fill="#906c54" d="M 211.5,164.5 C 207.378,164.697 203.378,165.53 199.5,167C 198.663,168.011 198.33,169.178 198.5,170.5C 206.393,168.673 214.393,168.173 222.5,169C 224.066,169.608 225.4,170.442 226.5,171.5C 213.546,170.307 203.046,174.641 195,184.5C 187.415,182.583 180.248,183.583 173.5,187.5C 165.784,182.895 157.451,181.395 148.5,183C 141.954,184.609 135.621,186.776 129.5,189.5C 128.167,188.5 128.167,187.5 129.5,186.5C 129.56,187.043 129.893,187.376 130.5,187.5C 139.348,179.939 149.681,176.439 161.5,177C 162.337,175.989 162.67,174.822 162.5,173.5C 155.731,173.388 149.065,174.055 142.5,175.5C 141.167,175.5 139.833,175.5 138.5,175.5C 138.534,171.141 138.201,166.808 137.5,162.5C 138.663,158.223 139.829,153.89 141,149.5C 143.124,148.378 144.957,146.878 146.5,145C 150.038,144.465 153.372,143.632 156.5,142.5C 164.83,141.167 173.163,139.834 181.5,138.5C 187.822,137.723 194.155,137.556 200.5,138C 202.539,140.374 204.872,142.374 207.5,144C 209.918,148.253 211.752,152.753 213,157.5C 213.815,160.198 213.315,162.532 211.5,164.5 Z"/></g>
<g><path style="opacity:1" fill="#9d7a65" d="M 170.5,141.5 C 179.848,141.256 188.015,144.256 195,150.5C 195.638,151.609 196.138,152.775 196.5,154C 193.283,163.211 187.783,170.711 180,176.5C 170.158,173.017 159.658,171.017 148.5,170.5C 147.846,167.506 147.179,164.506 146.5,161.5C 146.552,158.063 147.719,155.063 150,152.5C 155.855,146.825 162.689,143.158 170.5,141.5 Z"/></g>
<g><path style="opacity:1" fill="#603818" d="M 397.5,147.5 C 391.088,159.993 384.421,172.326 377.5,184.5C 376.094,184.973 375.427,185.973 375.5,187.5C 374.833,187.5 374.5,187.833 374.5,188.5C 373.402,187.399 373.235,186.066 374,184.5C 376.035,181.755 377.701,178.755 379,175.5C 384.929,165.964 391.096,156.631 397.5,147.5 Z"/></g>
<g><path style="opacity:1" fill="#44352b" d="M 129.5,186.5 C 130.488,185.205 131.488,183.872 132.5,182.5C 135.325,179.325 138.659,176.992 142.5,175.5C 149.065,174.055 155.731,173.388 162.5,173.5C 162.67,174.822 162.337,175.989 161.5,177C 149.681,176.439 139.348,179.939 130.5,187.5C 129.893,187.376 129.56,187.043 129.5,186.5 Z"/></g>
<g><path style="opacity:1" fill="#7f5739" d="M 397.5,144.5 C 398.625,145.348 398.625,146.348 397.5,147.5C 391.096,156.631 384.929,165.964 379,175.5C 377.701,178.755 376.035,181.755 374,184.5C 373.235,186.066 373.402,187.399 374.5,188.5C 375.167,188.5 375.5,188.167 375.5,187.5C 376.906,187.027 377.573,186.027 377.5,184.5C 384.138,175.913 390.305,166.913 396,157.5C 396.816,156.177 397.983,155.511 399.5,155.5C 392.968,167.539 385.635,179.206 377.5,190.5C 373.512,192.037 371.512,190.537 371.5,186C 378.796,171.226 387.463,157.393 397.5,144.5 Z M 377.5,184.5 C 377.573,186.027 376.906,187.027 375.5,187.5C 375.427,185.973 376.094,184.973 377.5,184.5 Z"/></g>
<g><path style="opacity:1" fill="#997660" d="M 387.5,140.5 C 392.122,138.499 395.455,139.832 397.5,144.5C 387.463,157.393 378.796,171.226 371.5,186C 371.512,190.537 373.512,192.037 377.5,190.5C 385.635,179.206 392.968,167.539 399.5,155.5C 402.285,154.115 404.618,154.782 406.5,157.5C 404.387,166.956 399.72,174.956 392.5,181.5C 390.771,182.117 389.271,183.117 388,184.5C 384.174,189.027 381.341,193.693 379.5,198.5C 379.667,199.167 379.833,199.833 380,200.5C 382.448,202.631 384.948,204.631 387.5,206.5C 382.188,213.088 376.855,219.755 371.5,226.5C 364.145,227.556 356.812,228.389 349.5,229C 347.018,223.435 345.351,217.602 344.5,211.5C 342.289,210.877 340.289,209.877 338.5,208.5C 337.457,205.545 336.123,202.878 334.5,200.5C 333.989,197.307 333.322,194.141 332.5,191C 332.104,187.061 333.771,185.728 337.5,187C 339.951,189.211 342.618,190.044 345.5,189.5C 347.133,191.503 349.133,192.836 351.5,193.5C 351.543,190.133 351.21,186.799 350.5,183.5C 351.515,180.826 352.515,178.159 353.5,175.5C 355.783,166.405 359.616,158.072 365,150.5C 366.63,147.312 367.796,143.979 368.5,140.5C 370.199,140.34 371.866,140.506 373.5,141C 374.985,145.247 373.818,148.747 370,151.5C 369.927,155.645 368.261,158.979 365,161.5C 364.583,164.422 363.583,167.089 362,169.5C 361.281,173.145 360.781,176.812 360.5,180.5C 363.652,181.041 366.152,180.041 368,177.5C 374.279,164.967 381.113,152.801 388.5,141C 388.272,140.601 387.938,140.435 387.5,140.5 Z M 377.5,184.5 C 377.573,186.027 376.906,187.027 375.5,187.5C 375.427,185.973 376.094,184.973 377.5,184.5 Z"/></g>
<g><path style="opacity:1" fill="#6d462a" d="M 114.5,180.5 C 116.101,185.632 118.101,190.632 120.5,195.5C 120.662,197.824 121.828,199.491 124,200.5C 124.305,210.266 127.805,218.599 134.5,225.5C 137.231,231.277 141.898,234.444 148.5,235C 147.167,235.667 147.167,236.333 148.5,237C 143.791,237.877 139.457,237.044 135.5,234.5C 133.629,234.141 132.129,233.141 131,231.5C 129.933,227.099 128.599,222.765 127,218.5C 126.161,223.921 126.494,229.254 128,234.5C 135.945,250.432 146.778,263.932 160.5,275C 166.395,278.402 172.395,281.569 178.5,284.5C 178.33,285.822 178.663,286.989 179.5,288C 181.774,288.47 183.774,289.47 185.5,291C 191.167,291.667 196.833,291.667 202.5,291C 208.827,287.577 214.327,283.077 219,277.5C 223.419,270.328 228.085,263.328 233,256.5C 236.898,245.472 240.398,234.305 243.5,223C 243.167,221.833 242.833,220.667 242.5,219.5C 230.159,223.721 229.493,222.388 240.5,215.5C 241.788,213.701 241.788,212.035 240.5,210.5C 241.167,209.5 241.833,208.5 242.5,207.5C 243.823,210.938 244.49,214.771 244.5,219C 244.491,224.88 243.991,230.713 243,236.5C 241.667,237.167 240.667,238.167 240,239.5C 238.036,249.683 234.702,259.349 230,268.5C 228.045,269.453 226.378,270.787 225,272.5C 222.728,276.724 220.228,280.724 217.5,284.5C 212.117,287.239 206.783,290.072 201.5,293C 193.699,293.895 186.033,293.228 178.5,291C 177.429,290.148 176.429,289.315 175.5,288.5C 173.572,286.526 171.239,285.026 168.5,284C 165.483,280.152 161.483,277.819 156.5,277C 148.596,269.766 141.429,261.933 135,253.5C 133.863,247.885 131.196,243.219 127,239.5C 124.839,233.017 122.672,226.517 120.5,220C 121.167,218.333 121.833,216.667 122.5,215C 120.302,209.375 118.802,203.542 118,197.5C 116.26,196.284 115.26,194.618 115,192.5C 114.501,188.514 114.334,184.514 114.5,180.5 Z"/></g>
<g><path style="opacity:1" fill="#6e4527" d="M 406.5,157.5 C 407.117,157.611 407.617,157.944 408,158.5C 408.667,160.5 408.667,162.5 408,164.5C 401.561,174.389 395.394,184.389 389.5,194.5C 387.738,195.262 386.738,196.596 386.5,198.5C 385.833,198.5 385.5,198.833 385.5,199.5C 384.833,199.5 384.5,199.833 384.5,200.5C 382.727,199.686 382.227,198.352 383,196.5C 385.615,192.217 388.615,188.217 392,184.5C 392.483,183.552 392.649,182.552 392.5,181.5C 399.72,174.956 404.387,166.956 406.5,157.5 Z"/></g>
<g><path style="opacity:0.749" fill="#1d1515" d="M 245.5,174.5 C 246.81,180.288 247.477,186.288 247.5,192.5C 247.5,193.167 247.167,193.5 246.5,193.5C 245.883,189.083 244.883,184.75 243.5,180.5C 244.747,178.677 245.414,176.677 245.5,174.5 Z"/></g>
<g><path style="opacity:1" fill="#5f3717" d="M 412.5,186.5 C 401.603,200.615 391.437,215.281 382,230.5C 380.5,232 379,233.5 377.5,235C 372.773,237.285 368.107,239.452 363.5,241.5C 362.387,240.054 362.22,238.387 363,236.5C 370.288,234.559 376.621,230.893 382,225.5C 386.781,220.046 390.781,214.046 394,207.5C 400.553,200.789 406.22,193.456 411,185.5C 411.383,186.056 411.883,186.389 412.5,186.5 Z"/></g>
<g><path style="opacity:1" fill="#8d674d" d="M 353.5,175.5 C 352.515,178.159 351.515,180.826 350.5,183.5C 351.21,186.799 351.543,190.133 351.5,193.5C 349.133,192.836 347.133,191.503 345.5,189.5C 342.618,190.044 339.951,189.211 337.5,187C 333.771,185.728 332.104,187.061 332.5,191C 333.322,194.141 333.989,197.307 334.5,200.5C 334.867,206.594 337.7,210.928 343,213.5C 344.04,219.036 345.207,224.536 346.5,230C 345.647,233.54 344.647,237.04 343.5,240.5C 345.345,284.963 348.845,329.296 354,373.5C 357.031,382.347 360.697,382.68 365,374.5C 366.573,366.915 367.406,359.248 367.5,351.5C 366.001,315.183 362.667,279.183 357.5,243.5C 357.5,241.833 357.5,240.167 357.5,238.5C 359.5,238.5 360.5,239.5 360.5,241.5C 361.695,255.986 363.528,270.319 366,284.5C 368.664,312.452 369.997,340.452 370,368.5C 369.667,370.5 369.333,372.5 369,374.5C 366.676,375.807 365.343,377.807 365,380.5C 359.867,384.384 355.867,383.384 353,377.5C 347.154,333.519 343.654,289.352 342.5,245C 342.346,239.547 343.012,234.213 344.5,229C 343.095,224.437 342.095,219.77 341.5,215C 338.112,212.728 335.279,209.895 333,206.5C 331.631,199.287 331.464,192.12 332.5,185C 334.5,184.333 336.5,184.333 338.5,185C 339.595,186.675 341.095,187.842 343,188.5C 344.707,187.862 346.54,187.862 348.5,188.5C 347.902,183.176 349.568,178.843 353.5,175.5 Z"/></g>
<g><path style="opacity:1" fill="#5f391e" d="M 114.5,170.5 C 114.5,173.833 114.5,177.167 114.5,180.5C 114.334,184.514 114.501,188.514 115,192.5C 115.26,194.618 116.26,196.284 118,197.5C 118.802,203.542 120.302,209.375 122.5,215C 121.833,216.667 121.167,218.333 120.5,220C 122.672,226.517 124.839,233.017 127,239.5C 131.196,243.219 133.863,247.885 135,253.5C 141.429,261.933 148.596,269.766 156.5,277C 161.483,277.819 165.483,280.152 168.5,284C 171.239,285.026 173.572,286.526 175.5,288.5C 170.589,287.884 165.923,286.384 161.5,284C 151.532,277.027 141.865,269.694 132.5,262C 127.362,254.855 122.196,247.688 117,240.5C 117.148,244.614 118.315,248.447 120.5,252C 120.478,254.183 119.478,255.683 117.5,256.5C 118.111,253.039 116.944,250.372 114,248.5C 111.866,242.898 109.199,237.565 106,232.5C 102.836,229.474 99.3359,227.14 95.5,225.5C 99.8055,224.242 103.805,224.909 107.5,227.5C 108.647,225.235 108.814,222.902 108,220.5C 106.698,219.915 105.531,219.249 104.5,218.5C 105.268,217.737 105.768,216.737 106,215.5C 106.941,217.061 108.108,218.395 109.5,219.5C 109.833,218.833 110.167,218.167 110.5,217.5C 111.293,207.141 112.293,196.808 113.5,186.5C 113.179,180.974 113.512,175.64 114.5,170.5 Z"/></g>
<g><path style="opacity:1" fill="#c05682" d="M 226.5,171.5 C 227.5,171.5 228.5,171.5 229.5,171.5C 232.833,171.833 236.167,172.167 239.5,172.5C 241.858,172.253 243.858,172.919 245.5,174.5C 245.414,176.677 244.747,178.677 243.5,180.5C 244.883,184.75 245.883,189.083 246.5,193.5C 246.5,195.5 246.5,197.5 246.5,199.5C 244.989,202.005 243.655,204.672 242.5,207.5C 241.833,208.5 241.167,209.5 240.5,210.5C 229.519,218.862 218.186,219.362 206.5,212C 199.434,205.367 195.434,197.2 194.5,187.5C 187.999,184.721 181.832,185.387 176,189.5C 176.455,196.47 176.455,203.47 176,210.5C 174.681,214.472 172.847,218.139 170.5,221.5C 162.204,228.825 152.538,231.325 141.5,229C 139.114,227.807 136.78,226.64 134.5,225.5C 127.805,218.599 124.305,210.266 124,200.5C 121.828,199.491 120.662,197.824 120.5,195.5C 123.328,193.252 126.328,191.252 129.5,189.5C 135.621,186.776 141.954,184.609 148.5,183C 157.451,181.395 165.784,182.895 173.5,187.5C 180.248,183.583 187.415,182.583 195,184.5C 203.046,174.641 213.546,170.307 226.5,171.5 Z"/></g>
<g><path style="opacity:1" fill="#181716" d="M 160.5,197.5 C 165.522,199.189 168.856,202.522 170.5,207.5C 168.348,205.015 165.681,203.349 162.5,202.5C 160.366,200.967 157.866,200.3 155,200.5C 150.745,200.354 146.912,201.354 143.5,203.5C 138.525,205.477 135.859,209.143 135.5,214.5C 133.716,214.107 132.05,213.441 130.5,212.5C 129.566,211.432 129.232,210.099 129.5,208.5C 135.141,203.728 141.474,199.894 148.5,197C 152.537,196.393 156.537,196.56 160.5,197.5 Z"/></g>
<g><path style="opacity:1" fill="#c1bebe" d="M 203.5,196.5 C 204.23,199.578 205.397,202.578 207,205.5C 209.665,206.474 209.831,207.141 207.5,207.5C 204.442,205.757 202.442,203.09 201.5,199.5C 202.167,198.5 202.833,197.5 203.5,196.5 Z"/></g>
<g><path style="opacity:1" fill="#5c3d2e" d="M 160.5,197.5 C 156.537,196.56 152.537,196.393 148.5,197C 141.474,199.894 135.141,203.728 129.5,208.5C 128.596,207.791 128.263,206.791 128.5,205.5C 129.922,205.291 131.255,204.791 132.5,204C 136.141,200.695 139.808,197.362 143.5,194C 145.833,193.833 148.167,193.667 150.5,193.5C 153.287,193.574 155.787,194.24 158,195.5C 161.123,193.902 161.956,194.569 160.5,197.5 Z"/></g>
<g><path style="opacity:1" fill="#d6d6d6" d="M 220.5,189.5 C 227.239,189.173 231.239,192.173 232.5,198.5C 231.167,199.167 230.167,200.167 229.5,201.5C 227.956,201.703 226.622,202.37 225.5,203.5C 225.167,203.167 224.833,202.833 224.5,202.5C 225.776,199.697 225.776,197.03 224.5,194.5C 223.516,192.52 222.183,190.853 220.5,189.5 Z"/></g>
<g><path style="opacity:1" fill="#151414" d="M 221.5,200.5 C 220.833,201.5 220.167,202.5 219.5,203.5C 213.825,206.838 209.825,205.338 207.5,199C 207.57,198.235 207.903,197.735 208.5,197.5C 209.5,197.5 210.5,197.5 211.5,197.5C 211.5,196.167 211.5,194.833 211.5,193.5C 214.954,190.821 218.12,191.488 221,195.5C 221.494,197.134 221.66,198.801 221.5,200.5 Z"/></g>
<g><path style="opacity:1" fill="#74503d" d="M 171.5,212.5 C 171.737,211.209 171.404,210.209 170.5,209.5C 170.5,208.833 170.5,208.167 170.5,207.5C 168.856,202.522 165.522,199.189 160.5,197.5C 161.956,194.569 161.123,193.902 158,195.5C 155.787,194.24 153.287,193.574 150.5,193.5C 148.167,193.667 145.833,193.833 143.5,194C 139.808,197.362 136.141,200.695 132.5,204C 131.255,204.791 129.922,205.291 128.5,205.5C 127.489,199.709 129.156,194.876 133.5,191C 145.761,184.206 158.095,183.873 170.5,190C 171.46,191.419 172.293,192.919 173,194.5C 173.667,199.167 173.667,203.833 173,208.5C 172.79,210.058 172.29,211.391 171.5,212.5 Z"/></g>
<g><path style="opacity:1" fill="#312a24" d="M 220.5,189.5 C 222.183,190.853 223.516,192.52 224.5,194.5C 224.5,196.5 224.5,198.5 224.5,200.5C 223.5,200.5 222.5,200.5 221.5,200.5C 221.66,198.801 221.494,197.134 221,195.5C 218.12,191.488 214.954,190.821 211.5,193.5C 210.609,192.89 209.609,192.557 208.5,192.5C 212.018,190.034 216.018,189.034 220.5,189.5 Z"/></g>
<g><path style="opacity:1" fill="#181616" d="M 232.5,198.5 C 231.239,192.173 227.239,189.173 220.5,189.5C 216.018,189.034 212.018,190.034 208.5,192.5C 206.539,193.46 204.873,194.793 203.5,196.5C 202.833,197.5 202.167,198.5 201.5,199.5C 200.662,199.158 200.328,198.492 200.5,197.5C 209.198,184.339 220.365,182.005 234,190.5C 236.421,189.508 237.088,190.508 236,193.5C 235.303,195.584 234.136,197.251 232.5,198.5 Z"/></g>
<g><path style="opacity:1" fill="#654330" d="M 229.5,174.5 C 236.363,175.527 240.53,179.527 242,186.5C 242.667,191.5 242.667,196.5 242,201.5C 241.392,203.066 240.558,204.4 239.5,205.5C 239.752,202.68 239.252,200.014 238,197.5C 237.683,199.301 237.016,199.634 236,198.5C 233.749,199.412 231.583,200.412 229.5,201.5C 230.167,200.167 231.167,199.167 232.5,198.5C 234.136,197.251 235.303,195.584 236,193.5C 237.088,190.508 236.421,189.508 234,190.5C 220.365,182.005 209.198,184.339 200.5,197.5C 199.048,195.152 198.382,192.486 198.5,189.5C 198.507,187.631 198.84,185.964 199.5,184.5C 200.053,186.657 201.053,186.49 202.5,184C 212.021,180.049 221.688,179.549 231.5,182.5C 233.186,179.216 232.52,176.549 229.5,174.5 Z"/></g>
<g><path style="opacity:1" fill="#f0efef" d="M 208.5,192.5 C 209.609,192.557 210.609,192.89 211.5,193.5C 211.5,194.833 211.5,196.167 211.5,197.5C 210.5,197.5 209.5,197.5 208.5,197.5C 207.167,195.833 207.167,194.167 208.5,192.5 Z"/></g>
<g><path style="opacity:1" fill="#7c5642" d="M 229.5,174.5 C 232.52,176.549 233.186,179.216 231.5,182.5C 221.688,179.549 212.021,180.049 202.5,184C 201.053,186.49 200.053,186.657 199.5,184.5C 207.651,175.416 217.651,172.082 229.5,174.5 Z"/></g>
<g><path style="opacity:1" fill="#141313" d="M 149.5,203.5 C 156.971,200.617 160.637,203.284 160.5,211.5C 159.527,213.139 158.194,214.473 156.5,215.5C 151.478,217.268 148.144,215.601 146.5,210.5C 146.543,209.584 146.876,208.917 147.5,208.5C 148.496,208.586 149.329,208.252 150,207.5C 150.765,205.934 150.598,204.601 149.5,203.5 Z"/></g>
<g><path style="opacity:1" fill="#d9d8d8" d="M 162.5,202.5 C 165.681,203.349 168.348,205.015 170.5,207.5C 170.5,208.167 170.5,208.833 170.5,209.5C 170.719,210.675 170.386,211.675 169.5,212.5C 167.604,213.275 165.937,214.275 164.5,215.5C 163.761,215.631 163.094,215.464 162.5,215C 164.592,211.89 164.925,208.723 163.5,205.5C 162.89,204.609 162.557,203.609 162.5,202.5 Z"/></g>
<g><path style="opacity:1" fill="#39322e" d="M 208.5,192.5 C 207.167,194.167 207.167,195.833 208.5,197.5C 207.903,197.735 207.57,198.235 207.5,199C 209.825,205.338 213.825,206.838 219.5,203.5C 219.369,204.376 219.702,205.043 220.5,205.5C 221.768,204.572 223.101,204.405 224.5,205C 219.09,207.382 213.424,208.549 207.5,208.5C 207.5,208.167 207.5,207.833 207.5,207.5C 209.831,207.141 209.665,206.474 207,205.5C 205.397,202.578 204.23,199.578 203.5,196.5C 204.873,194.793 206.539,193.46 208.5,192.5 Z"/></g>
<g><path style="opacity:1" fill="#37302b" d="M 162.5,202.5 C 162.557,203.609 162.89,204.609 163.5,205.5C 163.5,207.5 163.5,209.5 163.5,211.5C 162.5,211.5 161.5,211.5 160.5,211.5C 160.637,203.284 156.971,200.617 149.5,203.5C 145.189,203.785 144.522,205.451 147.5,208.5C 146.876,208.917 146.543,209.584 146.5,210.5C 148.144,215.601 151.478,217.268 156.5,215.5C 157.919,216.451 159.585,216.784 161.5,216.5C 155.561,219.339 149.894,219.006 144.5,215.5C 142.29,211.684 141.956,207.684 143.5,203.5C 146.912,201.354 150.745,200.354 155,200.5C 157.866,200.3 160.366,200.967 162.5,202.5 Z"/></g>
<g><path style="opacity:1" fill="#e5e4e4" d="M 149.5,203.5 C 150.598,204.601 150.765,205.934 150,207.5C 149.329,208.252 148.496,208.586 147.5,208.5C 144.522,205.451 145.189,203.785 149.5,203.5 Z"/></g>
<g><path style="opacity:1" fill="#8e6a56" d="M 224.5,194.5 C 225.776,197.03 225.776,199.697 224.5,202.5C 224.833,202.833 225.167,203.167 225.5,203.5C 226.622,202.37 227.956,201.703 229.5,201.5C 231.583,200.412 233.749,199.412 236,198.5C 237.016,199.634 237.683,199.301 238,197.5C 239.252,200.014 239.752,202.68 239.5,205.5C 237.762,209.388 234.762,211.888 230.5,213C 221.783,215.996 214.116,214.496 207.5,208.5C 213.424,208.549 219.09,207.382 224.5,205C 223.101,204.405 221.768,204.572 220.5,205.5C 219.702,205.043 219.369,204.376 219.5,203.5C 220.167,202.5 220.833,201.5 221.5,200.5C 222.5,200.5 223.5,200.5 224.5,200.5C 224.5,198.5 224.5,196.5 224.5,194.5 Z"/></g>
<g><path style="opacity:1" fill="#dbdbdb" d="M 143.5,203.5 C 141.956,207.684 142.29,211.684 144.5,215.5C 144.083,216.124 143.416,216.457 142.5,216.5C 140.149,215.827 137.816,215.16 135.5,214.5C 135.859,209.143 138.525,205.477 143.5,203.5 Z"/></g>
<g><path style="opacity:1" fill="#916d54" d="M 357.5,238.5 C 354.255,238.03 351.421,236.697 349,234.5C 348,235.167 347,235.833 346,236.5C 345.833,239.167 345.667,241.833 345.5,244.5C 347.497,287.636 350.997,330.636 356,373.5C 357.478,376.993 359.478,377.326 362,374.5C 364.353,366.515 365.519,358.348 365.5,350C 363.827,314.417 361.16,278.917 357.5,243.5C 362.667,279.183 366.001,315.183 367.5,351.5C 367.406,359.248 366.573,366.915 365,374.5C 360.697,382.68 357.031,382.347 354,373.5C 348.845,329.296 345.345,284.963 343.5,240.5C 344.647,237.04 345.647,233.54 346.5,230C 345.207,224.536 344.04,219.036 343,213.5C 337.7,210.928 334.867,206.594 334.5,200.5C 336.123,202.878 337.457,205.545 338.5,208.5C 340.289,209.877 342.289,210.877 344.5,211.5C 345.351,217.602 347.018,223.435 349.5,229C 356.812,228.389 364.145,227.556 371.5,226.5C 376.855,219.755 382.188,213.088 387.5,206.5C 384.948,204.631 382.448,202.631 380,200.5C 379.833,199.833 379.667,199.167 379.5,198.5C 381.341,193.693 384.174,189.027 388,184.5C 389.271,183.117 390.771,182.117 392.5,181.5C 392.649,182.552 392.483,183.552 392,184.5C 388.615,188.217 385.615,192.217 383,196.5C 382.227,198.352 382.727,199.686 384.5,200.5C 385.167,200.5 385.5,200.167 385.5,199.5C 386.167,199.5 386.5,199.167 386.5,198.5C 388.262,197.738 389.262,196.404 389.5,194.5C 390.5,193.833 391.5,193.167 392.5,192.5C 396.035,188.645 399.702,184.812 403.5,181C 405.167,180.333 406.833,180.333 408.5,181C 409.059,181.725 409.392,182.558 409.5,183.5C 407.47,188.146 404.637,192.146 401,195.5C 393.949,206.883 385.782,217.383 376.5,227C 370.792,230.671 364.459,232.505 357.5,232.5C 356.306,234.516 356.306,236.516 357.5,238.5 Z M 389.5,194.5 C 389.262,196.404 388.262,197.738 386.5,198.5C 386.738,196.596 387.738,195.262 389.5,194.5 Z"/></g>
<g><path style="opacity:1" fill="#845d41" d="M 387.5,140.5 C 387.938,140.435 388.272,140.601 388.5,141C 381.113,152.801 374.279,164.967 368,177.5C 366.152,180.041 363.652,181.041 360.5,180.5C 360.781,176.812 361.281,173.145 362,169.5C 363.583,167.089 364.583,164.422 365,161.5C 368.261,158.979 369.927,155.645 370,151.5C 373.818,148.747 374.985,145.247 373.5,141C 371.866,140.506 370.199,140.34 368.5,140.5C 367.796,143.979 366.63,147.312 365,150.5C 359.616,158.072 355.783,166.405 353.5,175.5C 349.568,178.843 347.902,183.176 348.5,188.5C 346.54,187.862 344.707,187.862 343,188.5C 341.095,187.842 339.595,186.675 338.5,185C 336.5,184.333 334.5,184.333 332.5,185C 331.464,192.12 331.631,199.287 333,206.5C 335.279,209.895 338.112,212.728 341.5,215C 342.095,219.77 343.095,224.437 344.5,229C 343.012,234.213 342.346,239.547 342.5,245C 343.654,289.352 347.154,333.519 353,377.5C 355.867,383.384 359.867,384.384 365,380.5C 365.343,377.807 366.676,375.807 369,374.5C 369.333,372.5 369.667,370.5 370,368.5C 369.997,340.452 368.664,312.452 366,284.5C 363.528,270.319 361.695,255.986 360.5,241.5C 361.117,241.611 361.617,241.944 362,242.5C 364.343,259.208 367.009,275.874 370,292.5C 370.083,308.234 371.083,323.901 373,339.5C 373.68,350.86 373.347,362.193 372,373.5C 371.638,381.693 367.471,386.027 359.5,386.5C 354.545,386.41 349.879,385.243 345.5,383C 340.206,378.708 335.206,374.041 330.5,369C 328.004,367.92 325.67,366.586 323.5,365C 315.526,357.03 306.859,350.03 297.5,344C 295.611,341.618 293.945,339.118 292.5,336.5C 292.328,335.508 292.662,334.842 293.5,334.5C 306.841,347.167 320.841,359.167 335.5,370.5C 337.344,374.815 340.677,376.815 345.5,376.5C 345.167,373.833 344.833,371.167 344.5,368.5C 345.167,368.5 345.5,368.833 345.5,369.5C 345.461,370.756 345.961,371.756 347,372.5C 348.117,363.246 347.117,354.246 344,345.5C 340.873,302.178 338.873,258.844 338,215.5C 334.95,213.451 332.617,210.784 331,207.5C 330.363,197.837 329.863,188.17 329.5,178.5C 326.267,176.459 323.1,174.126 320,171.5C 319.175,169.299 319.675,167.466 321.5,166C 320.906,165.536 320.239,165.369 319.5,165.5C 326.035,162.725 331.535,164.392 336,170.5C 337.399,173.363 338.399,176.363 339,179.5C 341.28,184.799 343.613,184.799 346,179.5C 352.333,167.167 358.667,154.833 365,142.5C 370.348,136.867 374.848,137.534 378.5,144.5C 374.674,154.135 370.174,163.469 365,172.5C 364.212,174.165 363.878,175.831 364,177.5C 371.171,166.496 377.838,155.162 384,143.5C 385.039,142.29 386.206,141.29 387.5,140.5 Z"/></g>
<g><path style="opacity:1" fill="#68615d" d="M 163.5,205.5 C 164.925,208.723 164.592,211.89 162.5,215C 163.094,215.464 163.761,215.631 164.5,215.5C 163.791,216.404 162.791,216.737 161.5,216.5C 159.585,216.784 157.919,216.451 156.5,215.5C 158.194,214.473 159.527,213.139 160.5,211.5C 161.5,211.5 162.5,211.5 163.5,211.5C 163.5,209.5 163.5,207.5 163.5,205.5 Z"/></g>
<g><path style="opacity:1" fill="#724c2f" d="M 319.5,165.5 C 320.239,165.369 320.906,165.536 321.5,166C 319.675,167.466 319.175,169.299 320,171.5C 323.1,174.126 326.267,176.459 329.5,178.5C 329.863,188.17 330.363,197.837 331,207.5C 332.617,210.784 334.95,213.451 338,215.5C 338.873,258.844 340.873,302.178 344,345.5C 347.117,354.246 348.117,363.246 347,372.5C 345.961,371.756 345.461,370.756 345.5,369.5C 346.097,361.689 344.597,354.022 341,346.5C 339.476,334.104 337.809,321.77 336,309.5C 335.667,282.833 335.333,256.167 335,229.5C 332.506,224.391 330.506,219.057 329,213.5C 327.977,202.191 327.143,190.858 326.5,179.5C 322.816,177.136 319.482,174.469 316.5,171.5C 315.957,171.44 315.624,171.107 315.5,170.5C 316.154,168.142 317.487,166.475 319.5,165.5 Z"/></g>
<g><path style="opacity:1" fill="#775031" d="M 261.5,215.5 C 259.833,215.5 258.167,215.5 256.5,215.5C 256.5,216.833 256.5,218.167 256.5,219.5C 258.167,219.5 259.833,219.5 261.5,219.5C 261.167,220.167 260.833,220.833 260.5,221.5C 259.262,220.588 257.928,220.421 256.5,221C 255.447,223.246 254.114,225.246 252.5,227C 252.846,229.214 254.012,230.714 256,231.5C 257.782,229.73 259.282,227.73 260.5,225.5C 260.208,229.066 258.874,232.066 256.5,234.5C 252.527,234.689 250.194,232.856 249.5,229C 250.056,220.827 250.723,212.661 251.5,204.5C 254.765,202.293 256.765,199.293 257.5,195.5C 255.097,195.393 253.264,196.393 252,198.5C 250.438,200.957 249.438,203.624 249,206.5C 247.856,204.291 247.023,201.957 246.5,199.5C 246.5,197.5 246.5,195.5 246.5,193.5C 247.167,193.5 247.5,193.167 247.5,192.5C 251.788,188.505 255.621,189.172 259,194.5C 261.222,201.296 262.055,208.296 261.5,215.5 Z"/></g>
<g><path style="opacity:1" fill="#bebbb7" d="M 261.5,215.5 C 261.5,216.833 261.5,218.167 261.5,219.5C 259.833,219.5 258.167,219.5 256.5,219.5C 256.5,218.167 256.5,216.833 256.5,215.5C 258.167,215.5 259.833,215.5 261.5,215.5 Z"/></g>
<g><path style="opacity:1" fill="#95725f" d="M 170.5,209.5 C 171.404,210.209 171.737,211.209 171.5,212.5C 170.665,216.324 168.665,219.49 165.5,222C 152.807,230.453 141.64,228.953 132,217.5C 130.991,215.975 130.491,214.308 130.5,212.5C 132.05,213.441 133.716,214.107 135.5,214.5C 137.816,215.16 140.149,215.827 142.5,216.5C 143.416,216.457 144.083,216.124 144.5,215.5C 149.894,219.006 155.561,219.339 161.5,216.5C 162.791,216.737 163.791,216.404 164.5,215.5C 165.937,214.275 167.604,213.275 169.5,212.5C 170.386,211.675 170.719,210.675 170.5,209.5 Z"/></g>
<g><path style="opacity:1" fill="#b5b1ae" d="M 260.5,221.5 C 261.405,222.702 261.405,224.036 260.5,225.5C 259.282,227.73 257.782,229.73 256,231.5C 254.012,230.714 252.846,229.214 252.5,227C 254.114,225.246 255.447,223.246 256.5,221C 257.928,220.421 259.262,220.588 260.5,221.5 Z"/></g>
<g><path style="opacity:1" fill="#8a6348" d="M 106.5,248.5 C 105.292,247.766 103.959,247.433 102.5,247.5C 102.616,244.09 100.95,242.756 97.5,243.5C 96.7904,246.86 98.1238,248.693 101.5,249C 100.663,250.011 100.33,251.178 100.5,252.5C 98.6736,250.853 97.3403,248.853 96.5,246.5C 94.6825,241.559 93.3492,236.559 92.5,231.5C 95.6516,230.959 98.1516,231.959 100,234.5C 101.921,239.339 104.088,244.006 106.5,248.5 Z"/></g>
<g><path style="opacity:1" fill="#98755f" d="M 357.5,238.5 C 357.5,240.167 357.5,241.833 357.5,243.5C 361.16,278.917 363.827,314.417 365.5,350C 365.519,358.348 364.353,366.515 362,374.5C 359.478,377.326 357.478,376.993 356,373.5C 350.997,330.636 347.497,287.636 345.5,244.5C 345.667,241.833 345.833,239.167 346,236.5C 347,235.833 348,235.167 349,234.5C 351.421,236.697 354.255,238.03 357.5,238.5 Z"/></g>
<g><path style="opacity:1" fill="#5a3418" d="M 256.5,234.5 C 253.772,235.205 250.939,235.872 248,236.5C 246.452,244.027 244.285,251.36 241.5,258.5C 236.489,263.03 232.322,268.364 229,274.5C 224.678,277.325 220.845,280.659 217.5,284.5C 220.228,280.724 222.728,276.724 225,272.5C 226.378,270.787 228.045,269.453 230,268.5C 234.702,259.349 238.036,249.683 240,239.5C 240.667,238.167 241.667,237.167 243,236.5C 243.991,230.713 244.491,224.88 244.5,219C 244.49,214.771 243.823,210.938 242.5,207.5C 243.655,204.672 244.989,202.005 246.5,199.5C 247.023,201.957 247.856,204.291 249,206.5C 249.438,203.624 250.438,200.957 252,198.5C 253.264,196.393 255.097,195.393 257.5,195.5C 256.765,199.293 254.765,202.293 251.5,204.5C 250.723,212.661 250.056,220.827 249.5,229C 250.194,232.856 252.527,234.689 256.5,234.5 Z"/></g>
<g><path style="opacity:1" fill="#aea9a5" d="M 106.5,248.5 C 106.351,249.552 106.517,250.552 107,251.5C 112.256,249.906 113.756,251.739 111.5,257C 109.866,257.494 108.199,257.66 106.5,257.5C 106.66,255.801 106.494,254.134 106,252.5C 104.172,253.752 102.339,253.752 100.5,252.5C 100.33,251.178 100.663,250.011 101.5,249C 98.1238,248.693 96.7904,246.86 97.5,243.5C 100.95,242.756 102.616,244.09 102.5,247.5C 103.959,247.433 105.292,247.766 106.5,248.5 Z"/></g>
<g><path style="opacity:1" fill="#795133" d="M 100.5,216.5 C 102.062,216.733 103.395,217.4 104.5,218.5C 105.531,219.249 106.698,219.915 108,220.5C 108.814,222.902 108.647,225.235 107.5,227.5C 103.805,224.909 99.8055,224.242 95.5,225.5C 99.3359,227.14 102.836,229.474 106,232.5C 109.199,237.565 111.866,242.898 114,248.5C 116.944,250.372 118.111,253.039 117.5,256.5C 116.038,257.458 114.705,258.624 113.5,260C 111.866,260.494 110.199,260.66 108.5,260.5C 104.833,258.833 102.167,256.167 100.5,252.5C 102.339,253.752 104.172,253.752 106,252.5C 106.494,254.134 106.66,255.801 106.5,257.5C 108.199,257.66 109.866,257.494 111.5,257C 113.756,251.739 112.256,249.906 107,251.5C 106.517,250.552 106.351,249.552 106.5,248.5C 104.088,244.006 101.921,239.339 100,234.5C 98.1516,231.959 95.6516,230.959 92.5,231.5C 93.3492,236.559 94.6825,241.559 96.5,246.5C 88.9067,237.648 87.9067,228.148 93.5,218C 95.6775,216.798 98.0108,216.298 100.5,216.5 Z"/></g>
<g><path style="opacity:1" fill="#7a5338" d="M 240.5,210.5 C 241.788,212.035 241.788,213.701 240.5,215.5C 229.493,222.388 230.159,223.721 242.5,219.5C 242.833,220.667 243.167,221.833 243.5,223C 240.398,234.305 236.898,245.472 233,256.5C 228.085,263.328 223.419,270.328 219,277.5C 214.327,283.077 208.827,287.577 202.5,291C 196.833,291.667 191.167,291.667 185.5,291C 183.774,289.47 181.774,288.47 179.5,288C 178.663,286.989 178.33,285.822 178.5,284.5C 172.395,281.569 166.395,278.402 160.5,275C 146.778,263.932 135.945,250.432 128,234.5C 126.494,229.254 126.161,223.921 127,218.5C 128.599,222.765 129.933,227.099 131,231.5C 132.129,233.141 133.629,234.141 135.5,234.5C 134.223,237.205 134.39,239.872 136,242.5C 140.982,248.138 144.649,254.472 147,261.5C 150.672,264.342 154.172,267.342 157.5,270.5C 167.915,276.705 178.915,281.872 190.5,286C 200.129,287.936 206.962,284.436 211,275.5C 213.371,272.794 216.037,270.461 219,268.5C 223.968,260.187 228.968,251.854 234,243.5C 235.667,236.308 238.167,229.475 241.5,223C 241.333,222.5 241.167,222 241,221.5C 239.67,222.582 238.17,223.249 236.5,223.5C 229.856,224.443 223.189,224.609 216.5,224C 213.408,223.617 210.742,222.45 208.5,220.5C 203.77,215.103 198.77,210.103 193.5,205.5C 193.413,201.668 192.413,198.335 190.5,195.5C 182.865,192.808 179.198,195.474 179.5,203.5C 179.666,207.846 179.499,212.179 179,216.5C 177.239,219.411 175.739,222.411 174.5,225.5C 172.455,229.867 169.122,232.867 164.5,234.5C 163.167,234.5 161.833,234.5 160.5,234.5C 160.5,233.5 160.5,232.5 160.5,231.5C 164.907,229.281 168.574,226.114 171.5,222C 171.272,221.601 170.938,221.435 170.5,221.5C 172.847,218.139 174.681,214.472 176,210.5C 176.455,203.47 176.455,196.47 176,189.5C 181.832,185.387 187.999,184.721 194.5,187.5C 195.434,197.2 199.434,205.367 206.5,212C 218.186,219.362 229.519,218.862 240.5,210.5 Z"/></g>
<g><path style="opacity:1" fill="#8d674d" d="M 208.5,220.5 C 210.742,222.45 213.408,223.617 216.5,224C 223.189,224.609 229.856,224.443 236.5,223.5C 236.804,224.15 237.137,224.817 237.5,225.5C 233.984,237.868 228.817,249.535 222,260.5C 220.611,262.227 218.944,263.561 217,264.5C 215.739,264.241 214.739,263.574 214,262.5C 213.43,257.39 213.93,252.39 215.5,247.5C 216.341,245.621 216.675,243.621 216.5,241.5C 216.5,240.5 216.5,239.5 216.5,238.5C 220.763,238.632 222.763,236.632 222.5,232.5C 218.486,232.334 214.486,232.501 210.5,233C 208.238,236.342 207.405,236.175 208,232.5C 209.067,231.809 210.234,231.309 211.5,231C 209.667,230.5 208.5,229.333 208,227.5C 207.204,224.961 207.371,222.628 208.5,220.5 Z"/></g>
<g><path style="opacity:1" fill="#825a3e" d="M 190.5,195.5 C 192.413,198.335 193.413,201.668 193.5,205.5C 198.77,210.103 203.77,215.103 208.5,220.5C 207.371,222.628 207.204,224.961 208,227.5C 208.5,229.333 209.667,230.5 211.5,231C 210.234,231.309 209.067,231.809 208,232.5C 207.405,236.175 208.238,236.342 210.5,233C 214.486,232.501 218.486,232.334 222.5,232.5C 222.763,236.632 220.763,238.632 216.5,238.5C 215.306,237.223 213.64,236.556 211.5,236.5C 208.159,236.836 204.825,237.169 201.5,237.5C 203.158,236.819 204.825,235.985 206.5,235C 206.002,233.842 205.169,233.009 204,232.5C 200.974,233.872 197.807,234.538 194.5,234.5C 197.484,233.252 200.318,231.585 203,229.5C 205.499,222.044 204.665,221.21 200.5,227C 194.485,230.035 188.152,231.035 181.5,230C 178.866,226.567 178.033,227.067 179,231.5C 181.984,234.1 185.484,235.1 189.5,234.5C 180.877,237.36 175.877,234.36 174.5,225.5C 175.739,222.411 177.239,219.411 179,216.5C 179.499,212.179 179.666,207.846 179.5,203.5C 180.479,206.625 180.813,209.958 180.5,213.5C 184.294,213.519 187.794,212.519 191,210.5C 191.498,205.481 191.332,200.481 190.5,195.5 Z"/></g>
<g><path style="opacity:1" fill="#97725b" d="M 188.5,218.5 C 192.257,218.071 195.757,218.737 199,220.5C 199.092,224.089 197.259,226.256 193.5,227C 189.848,227.499 186.182,227.665 182.5,227.5C 182.884,223.445 184.884,220.445 188.5,218.5 Z"/></g>
<g><path style="opacity:1" fill="#99765f" d="M 190.5,195.5 C 191.332,200.481 191.498,205.481 191,210.5C 187.794,212.519 184.294,213.519 180.5,213.5C 180.813,209.958 180.479,206.625 179.5,203.5C 179.198,195.474 182.865,192.808 190.5,195.5 Z"/></g>
<g><path style="opacity:1" fill="#583315" d="M 316.5,171.5 C 319.482,174.469 322.816,177.136 326.5,179.5C 327.143,190.858 327.977,202.191 329,213.5C 330.506,219.057 332.506,224.391 335,229.5C 335.333,256.167 335.667,282.833 336,309.5C 337.809,321.77 339.476,334.104 341,346.5C 344.597,354.022 346.097,361.689 345.5,369.5C 345.5,368.833 345.167,368.5 344.5,368.5C 344.599,365.763 344.265,363.096 343.5,360.5C 340.833,352.167 338.167,343.833 335.5,335.5C 335.001,330.508 334.501,325.508 334,320.5C 333.667,292.833 333.333,265.167 333,237.5C 326.004,221.858 323.337,205.525 325,188.5C 322.795,182.478 319.962,176.811 316.5,171.5 Z"/></g>
<g><path style="opacity:1" fill="#845d42" d="M 170.5,221.5 C 170.938,221.435 171.272,221.601 171.5,222C 168.574,226.114 164.907,229.281 160.5,231.5C 160.5,232.5 160.5,233.5 160.5,234.5C 161.833,234.5 163.167,234.5 164.5,234.5C 162.487,237.002 159.821,238.502 156.5,239C 150.5,239.333 144.5,239.667 138.5,240C 145.817,250.002 153.817,259.336 162.5,268C 164.5,269.333 166.5,270.667 168.5,272C 169.784,272.684 170.951,272.517 172,271.5C 172.667,269.833 172.667,268.167 172,266.5C 170.558,264.609 169.391,262.609 168.5,260.5C 184.225,273.39 198.725,272.057 212,256.5C 212.661,253.198 213.828,250.198 215.5,247.5C 213.93,252.39 213.43,257.39 214,262.5C 214.739,263.574 215.739,264.241 217,264.5C 218.944,263.561 220.611,262.227 222,260.5C 228.817,249.535 233.984,237.868 237.5,225.5C 237.137,224.817 236.804,224.15 236.5,223.5C 238.17,223.249 239.67,222.582 241,221.5C 241.167,222 241.333,222.5 241.5,223C 238.167,229.475 235.667,236.308 234,243.5C 228.968,251.854 223.968,260.187 219,268.5C 216.037,270.461 213.371,272.794 211,275.5C 206.962,284.436 200.129,287.936 190.5,286C 178.915,281.872 167.915,276.705 157.5,270.5C 154.172,267.342 150.672,264.342 147,261.5C 144.649,254.472 140.982,248.138 136,242.5C 134.39,239.872 134.223,237.205 135.5,234.5C 139.457,237.044 143.791,237.877 148.5,237C 147.167,236.333 147.167,235.667 148.5,235C 141.898,234.444 137.231,231.277 134.5,225.5C 136.78,226.64 139.114,227.807 141.5,229C 152.538,231.325 162.204,228.825 170.5,221.5 Z"/></g>
<g><path style="opacity:1" fill="#6c3f30" d="M 216.5,241.5 C 216.675,243.621 216.341,245.621 215.5,247.5C 213.828,250.198 212.661,253.198 212,256.5C 198.725,272.057 184.225,273.39 168.5,260.5C 166.727,257.82 165.393,254.82 164.5,251.5C 165.833,252.5 167.167,253.5 168.5,254.5C 170.39,255.97 172.557,256.97 175,257.5C 184.848,255.955 194.681,254.622 204.5,253.5C 203.587,255.562 202.087,255.895 200,254.5C 195.276,255.914 190.443,256.748 185.5,257C 183.226,257.47 181.226,258.47 179.5,260C 180.167,261.333 181.167,262.333 182.5,263C 192.57,265.523 201.07,263.023 208,255.5C 208.74,254.251 208.573,253.251 207.5,252.5C 209.5,250.167 211.5,247.833 213.5,245.5C 214.857,244.41 215.857,243.076 216.5,241.5 Z"/></g>
<g><path style="opacity:1" fill="#875249" d="M 207.5,252.5 C 208.573,253.251 208.74,254.251 208,255.5C 201.07,263.023 192.57,265.523 182.5,263C 181.167,262.333 180.167,261.333 179.5,260C 181.226,258.47 183.226,257.47 185.5,257C 190.443,256.748 195.276,255.914 200,254.5C 202.087,255.895 203.587,255.562 204.5,253.5C 205.609,253.443 206.609,253.11 207.5,252.5 Z"/></g>
<g><path style="opacity:1" fill="#494745" d="M 172.5,248.5 C 172.5,249.5 172.5,250.5 172.5,251.5C 173.5,251.5 174.5,251.5 175.5,251.5C 173.221,252.651 170.888,253.651 168.5,254.5C 167.167,253.5 165.833,252.5 164.5,251.5C 164.5,250.833 164.5,250.167 164.5,249.5C 166.948,248.527 169.615,248.194 172.5,248.5 Z"/></g>
<g><path style="opacity:1" fill="#1d100d" d="M 211.5,245.5 C 212.167,245.5 212.833,245.5 213.5,245.5C 211.5,247.833 209.5,250.167 207.5,252.5C 206.609,253.11 205.609,253.443 204.5,253.5C 194.681,254.622 184.848,255.955 175,257.5C 172.557,256.97 170.39,255.97 168.5,254.5C 170.888,253.651 173.221,252.651 175.5,251.5C 187.397,249.122 199.397,247.122 211.5,245.5 Z"/></g>
<g><path style="opacity:1" fill="#888683" d="M 204.5,242.5 C 206.527,242.338 208.527,242.505 210.5,243C 211.252,243.671 211.586,244.504 211.5,245.5C 199.397,247.122 187.397,249.122 175.5,251.5C 174.5,251.5 173.5,251.5 172.5,251.5C 172.5,250.5 172.5,249.5 172.5,248.5C 183.339,247.36 194.006,245.36 204.5,242.5 Z"/></g>
<g><path style="opacity:1" fill="#645f5c" d="M 216.5,238.5 C 216.5,239.5 216.5,240.5 216.5,241.5C 215.857,243.076 214.857,244.41 213.5,245.5C 212.833,245.5 212.167,245.5 211.5,245.5C 211.586,244.504 211.252,243.671 210.5,243C 208.527,242.505 206.527,242.338 204.5,242.5C 208.353,240.993 212.353,239.66 216.5,238.5 Z"/></g>
<g><path style="opacity:1" fill="#906b52" d="M 174.5,225.5 C 175.877,234.36 180.877,237.36 189.5,234.5C 191.167,234.5 192.833,234.5 194.5,234.5C 197.807,234.538 200.974,233.872 204,232.5C 205.169,233.009 206.002,233.842 206.5,235C 204.825,235.985 203.158,236.819 201.5,237.5C 190.362,239.186 179.362,241.52 168.5,244.5C 165.008,241.903 161.508,241.903 158,244.5C 157.506,246.134 157.34,247.801 157.5,249.5C 159.833,249.5 162.167,249.5 164.5,249.5C 164.5,250.167 164.5,250.833 164.5,251.5C 165.393,254.82 166.727,257.82 168.5,260.5C 169.391,262.609 170.558,264.609 172,266.5C 172.667,268.167 172.667,269.833 172,271.5C 170.951,272.517 169.784,272.684 168.5,272C 166.5,270.667 164.5,269.333 162.5,268C 153.817,259.336 145.817,250.002 138.5,240C 144.5,239.667 150.5,239.333 156.5,239C 159.821,238.502 162.487,237.002 164.5,234.5C 169.122,232.867 172.455,229.867 174.5,225.5 Z"/></g>
<g><path style="opacity:1" fill="#693d2d" d="M 216.5,238.5 C 212.353,239.66 208.353,240.993 204.5,242.5C 194.006,245.36 183.339,247.36 172.5,248.5C 169.615,248.194 166.948,248.527 164.5,249.5C 162.167,249.5 159.833,249.5 157.5,249.5C 157.34,247.801 157.506,246.134 158,244.5C 161.508,241.903 165.008,241.903 168.5,244.5C 179.362,241.52 190.362,239.186 201.5,237.5C 204.825,237.169 208.159,236.836 211.5,236.5C 213.64,236.556 215.306,237.223 216.5,238.5 Z"/></g>
<g><path style="opacity:1" fill="#563213" d="M 194.5,234.5 C 192.833,234.5 191.167,234.5 189.5,234.5C 185.484,235.1 181.984,234.1 179,231.5C 178.033,227.067 178.866,226.567 181.5,230C 188.152,231.035 194.485,230.035 200.5,227C 204.665,221.21 205.499,222.044 203,229.5C 200.318,231.585 197.484,233.252 194.5,234.5 Z"/></g>
<g><path style="opacity:1" fill="#651b09" d="M 242.5,273.5 C 242.833,273.5 243.167,273.5 243.5,273.5C 235.895,284.771 226.895,294.771 216.5,303.5C 216.781,298.435 216.448,293.435 215.5,288.5C 219.203,285.784 222.87,283.117 226.5,280.5C 231.833,278.167 237.167,275.833 242.5,273.5 Z"/></g>
<g><path style="opacity:1" fill="#4e2908" d="M 175.5,288.5 C 176.429,289.315 177.429,290.148 178.5,291C 186.033,293.228 193.699,293.895 201.5,293C 206.783,290.072 212.117,287.239 217.5,284.5C 220.845,280.659 224.678,277.325 229,274.5C 232.322,268.364 236.489,263.03 241.5,258.5C 237.983,266.874 232.983,274.207 226.5,280.5C 222.87,283.117 219.203,285.784 215.5,288.5C 216.448,293.435 216.781,298.435 216.5,303.5C 215.596,304.209 215.263,305.209 215.5,306.5C 204.996,312.287 193.996,313.12 182.5,309C 177.909,307.136 173.243,305.47 168.5,304C 163.833,303.333 159.167,303.333 154.5,304C 150.957,307.049 147.291,309.882 143.5,312.5C 143.351,311.448 143.517,310.448 144,309.5C 145.758,307.917 147.258,306.25 148.5,304.5C 151.474,304.355 153.641,303.022 155,300.5C 156.564,295.868 156.731,291.201 155.5,286.5C 143.536,279.711 132.87,271.211 123.5,261C 122.127,260.125 120.627,259.625 119,259.5C 116.54,260.313 114.04,260.98 111.5,261.5C 110.274,261.48 109.274,261.147 108.5,260.5C 110.199,260.66 111.866,260.494 113.5,260C 114.705,258.624 116.038,257.458 117.5,256.5C 119.478,255.683 120.478,254.183 120.5,252C 118.315,248.447 117.148,244.614 117,240.5C 122.196,247.688 127.362,254.855 132.5,262C 141.865,269.694 151.532,277.027 161.5,284C 165.923,286.384 170.589,287.884 175.5,288.5 Z"/></g>
<g><path style="opacity:1" fill="#d85e49" d="M 251.5,290.5 C 251.5,293.833 251.5,297.167 251.5,300.5C 251.5,301.5 251.5,302.5 251.5,303.5C 250.206,304.29 249.039,305.29 248,306.5C 241.582,321.689 232.915,335.355 222,347.5C 220.281,358.416 218.114,369.249 215.5,380C 213.766,385.466 210.766,390.133 206.5,394C 202.609,394.17 198.942,393.17 195.5,391C 189.476,384.452 184.309,377.285 180,369.5C 176.241,364.202 171.075,361.369 164.5,361C 154.781,360.914 145.114,360.747 135.5,360.5C 134.306,359.728 133.306,358.728 132.5,357.5C 134.55,357.961 136.55,358.628 138.5,359.5C 152.151,357.071 165.818,357.238 179.5,360C 183.47,362.312 187.137,364.978 190.5,368C 192.874,370.039 194.874,372.372 196.5,375C 200.209,377.421 203.375,376.921 206,373.5C 210.708,364.842 211.541,355.842 208.5,346.5C 212.824,345.338 216.824,343.505 220.5,341C 218.632,340.996 216.798,341.496 215,342.5C 214.228,342.355 213.561,342.022 213,341.5C 207.855,344.868 202.188,346.868 196,347.5C 191.214,346.462 186.38,345.629 181.5,345C 182.793,344.51 184.127,344.343 185.5,344.5C 191.536,344.64 197.536,344.307 203.5,343.5C 203.5,342.5 203.5,341.5 203.5,340.5C 211.002,340.658 216.502,337.325 220,330.5C 225.497,320.175 227.664,309.175 226.5,297.5C 236.585,299.71 244.085,296.044 249,286.5C 249.934,287.858 250.768,289.192 251.5,290.5 Z"/></g>
<g><path style="opacity:1" fill="#db614c" d="M 226.5,297.5 C 227.664,309.175 225.497,320.175 220,330.5C 216.502,337.325 211.002,340.658 203.5,340.5C 203.5,341.5 203.5,342.5 203.5,343.5C 197.536,344.307 191.536,344.64 185.5,344.5C 180.594,342.984 175.594,341.651 170.5,340.5C 162.842,338.256 156.009,334.589 150,329.5C 151.061,325.291 153.894,322.957 158.5,322.5C 168.997,327.942 180.164,331.276 192,332.5C 207.133,331.197 214.966,322.864 215.5,307.5C 219.913,304.743 223.58,301.41 226.5,297.5 Z"/></g>
<g><path style="opacity:1" fill="#d65c47" d="M 251.5,303.5 C 251.5,305.167 251.5,306.833 251.5,308.5C 245.649,320.533 239.482,332.533 233,344.5C 231.709,366.706 225.376,387.373 214,406.5C 212.542,408.96 210.709,411.127 208.5,413C 205.793,413.328 203.126,412.995 200.5,412C 193.625,406.793 187.792,400.626 183,393.5C 179.061,385.955 175.394,378.288 172,370.5C 168.444,366.477 163.944,364.311 158.5,364C 152.509,363.501 146.509,363.334 140.5,363.5C 139.5,363.5 138.5,363.5 137.5,363.5C 136.833,362.5 136.167,361.5 135.5,360.5C 145.114,360.747 154.781,360.914 164.5,361C 171.075,361.369 176.241,364.202 180,369.5C 184.309,377.285 189.476,384.452 195.5,391C 198.942,393.17 202.609,394.17 206.5,394C 210.766,390.133 213.766,385.466 215.5,380C 218.114,369.249 220.281,358.416 222,347.5C 232.915,335.355 241.582,321.689 248,306.5C 249.039,305.29 250.206,304.29 251.5,303.5 Z"/></g>
<g><path style="opacity:1" fill="#714d34" d="M 215.5,306.5 C 215.5,306.833 215.5,307.167 215.5,307.5C 212.714,309.113 210.047,310.946 207.5,313C 197.128,314.306 187.128,313.14 177.5,309.5C 170.653,305.757 163.319,304.757 155.5,306.5C 152.713,309.77 149.713,312.77 146.5,315.5C 145.391,315.443 144.391,315.11 143.5,314.5C 143.5,313.833 143.5,313.167 143.5,312.5C 147.291,309.882 150.957,307.049 154.5,304C 159.167,303.333 163.833,303.333 168.5,304C 173.243,305.47 177.909,307.136 182.5,309C 193.996,313.12 204.996,312.287 215.5,306.5 Z"/></g>
<g><path style="opacity:1" fill="#d35a45" d="M 251.5,308.5 C 248.225,319.486 244.059,330.153 239,340.5C 237.417,350.914 235.417,361.247 233,371.5C 226.529,388.579 219.863,405.579 213,422.5C 210.341,430.661 206.007,431.661 200,425.5C 191.594,415.024 183.927,404.024 177,392.5C 174.333,385.833 171.667,379.167 169,372.5C 166.512,368.675 163.012,366.508 158.5,366C 153.167,365.667 147.833,365.333 142.5,365C 141.584,364.722 140.918,364.222 140.5,363.5C 146.509,363.334 152.509,363.501 158.5,364C 163.944,364.311 168.444,366.477 172,370.5C 175.394,378.288 179.061,385.955 183,393.5C 187.792,400.626 193.625,406.793 200.5,412C 203.126,412.995 205.793,413.328 208.5,413C 210.709,411.127 212.542,408.96 214,406.5C 225.376,387.373 231.709,366.706 233,344.5C 239.482,332.533 245.649,320.533 251.5,308.5 Z"/></g>
<g><path style="opacity:1" fill="#cf5742" d="M 251.5,300.5 C 252.477,303.287 252.81,306.287 252.5,309.5C 251.312,319.593 249.478,329.593 247,339.5C 246.75,348.918 245.75,358.251 244,367.5C 238.944,381.278 233.611,394.945 228,408.5C 224.746,421.028 222.246,433.694 220.5,446.5C 203.833,446.5 187.167,446.5 170.5,446.5C 171.125,423.922 167.959,401.922 161,380.5C 159.5,378.333 158,376.167 156.5,374C 151.543,372.012 146.543,370.179 141.5,368.5C 140.167,366.833 138.833,365.167 137.5,363.5C 138.5,363.5 139.5,363.5 140.5,363.5C 140.918,364.222 141.584,364.722 142.5,365C 147.833,365.333 153.167,365.667 158.5,366C 163.012,366.508 166.512,368.675 169,372.5C 171.667,379.167 174.333,385.833 177,392.5C 183.927,404.024 191.594,415.024 200,425.5C 206.007,431.661 210.341,430.661 213,422.5C 219.863,405.579 226.529,388.579 233,371.5C 235.417,361.247 237.417,350.914 239,340.5C 244.059,330.153 248.225,319.486 251.5,308.5C 251.5,306.833 251.5,305.167 251.5,303.5C 251.5,302.5 251.5,301.5 251.5,300.5 Z"/></g>
<g><path style="opacity:1" fill="#c1472d" d="M 318.5,314.5 C 316.265,314.205 314.265,314.539 312.5,315.5C 311.395,316.6 310.062,317.267 308.5,317.5C 308.67,316.178 308.337,315.011 307.5,314C 305.043,312.438 302.376,311.438 299.5,311C 301.007,310.163 301.507,308.996 301,307.5C 296.781,304.948 293.614,301.448 291.5,297C 283.167,291.5 274.833,286 266.5,280.5C 261.797,277.821 256.797,276.154 251.5,275.5C 251.665,278.85 251.498,282.183 251,285.5C 250.667,281.5 250.333,277.5 250,273.5C 247.919,274.333 245.752,274.333 243.5,273.5C 243.167,273.5 242.833,273.5 242.5,273.5C 245.136,271.696 248.136,270.696 251.5,270.5C 263.544,273.855 274.544,279.355 284.5,287C 294.387,296.898 305.387,305.231 317.5,312C 318.252,312.671 318.586,313.504 318.5,314.5 Z"/></g>
<g><path style="opacity:1" fill="#8b6447" d="M 177.5,309.5 C 173.215,308.705 168.881,308.372 164.5,308.5C 163.828,313.837 161.161,317.837 156.5,320.5C 152.849,319.341 149.515,317.674 146.5,315.5C 149.713,312.77 152.713,309.77 155.5,306.5C 163.319,304.757 170.653,305.757 177.5,309.5 Z"/></g>
<g><path style="opacity:1" fill="#9c7a64" d="M 215.5,307.5 C 214.966,322.864 207.133,331.197 192,332.5C 180.164,331.276 168.997,327.942 158.5,322.5C 157.833,321.833 157.167,321.167 156.5,320.5C 161.161,317.837 163.828,313.837 164.5,308.5C 168.881,308.372 173.215,308.705 177.5,309.5C 187.128,313.14 197.128,314.306 207.5,313C 210.047,310.946 212.714,309.113 215.5,307.5 Z"/></g>
<g><path style="opacity:1" fill="#6f1a02" d="M 312.5,315.5 C 314.265,314.539 316.265,314.205 318.5,314.5C 319.461,316.265 319.795,318.265 319.5,320.5C 317.343,318.588 315.009,316.921 312.5,315.5 Z"/></g>
<g><path style="opacity:1" fill="#cb533d" d="M 252.5,309.5 C 253.903,312.909 254.57,316.575 254.5,320.5C 255.316,349.962 250.15,378.295 239,405.5C 235.415,419.017 232.915,432.683 231.5,446.5C 227.833,446.5 224.167,446.5 220.5,446.5C 222.246,433.694 224.746,421.028 228,408.5C 233.611,394.945 238.944,381.278 244,367.5C 245.75,358.251 246.75,348.918 247,339.5C 249.478,329.593 251.312,319.593 252.5,309.5 Z"/></g>
<g><path style="opacity:1" fill="#98745d" d="M 307.5,319.5 C 323.196,330.178 335.196,343.845 343.5,360.5C 344.265,363.096 344.599,365.763 344.5,368.5C 344.833,371.167 345.167,373.833 345.5,376.5C 340.677,376.815 337.344,374.815 335.5,370.5C 320.841,359.167 306.841,347.167 293.5,334.5C 297.461,328.871 302.127,323.871 307.5,319.5 Z"/></g>
<g><path style="opacity:1" fill="#885f41" d="M 312.5,315.5 C 315.009,316.921 317.343,318.588 319.5,320.5C 324.807,325.472 330.14,330.472 335.5,335.5C 338.167,343.833 340.833,352.167 343.5,360.5C 335.196,343.845 323.196,330.178 307.5,319.5C 307.833,318.833 308.167,318.167 308.5,317.5C 310.062,317.267 311.395,316.6 312.5,315.5 Z"/></g>
<g><path style="opacity:1" fill="#d65b46" d="M 243.5,273.5 C 245.752,274.333 247.919,274.333 250,273.5C 250.333,277.5 250.667,281.5 251,285.5C 251.498,282.183 251.665,278.85 251.5,275.5C 256.797,276.154 261.797,277.821 266.5,280.5C 274.833,286 283.167,291.5 291.5,297C 293.614,301.448 296.781,304.948 301,307.5C 301.507,308.996 301.007,310.163 299.5,311C 302.376,311.438 305.043,312.438 307.5,314C 308.337,315.011 308.67,316.178 308.5,317.5C 308.167,318.167 307.833,318.833 307.5,319.5C 302.127,323.871 297.461,328.871 293.5,334.5C 292.662,334.842 292.328,335.508 292.5,336.5C 291.272,337.306 290.272,338.306 289.5,339.5C 285.137,337.814 282.971,334.481 283,329.5C 282.282,330.451 281.449,330.617 280.5,330C 277,323.746 272,319.079 265.5,316C 261.695,312.155 258.029,308.322 254.5,304.5C 253.384,298.536 252.384,293.869 251.5,290.5C 250.768,289.192 249.934,287.858 249,286.5C 244.085,296.044 236.585,299.71 226.5,297.5C 223.58,301.41 219.913,304.743 215.5,307.5C 215.5,307.167 215.5,306.833 215.5,306.5C 215.263,305.209 215.596,304.209 216.5,303.5C 226.895,294.771 235.895,284.771 243.5,273.5 Z"/></g>
<g><path style="opacity:1" fill="#cf553f" d="M 143.5,314.5 C 144.391,315.11 145.391,315.443 146.5,315.5C 149.515,317.674 152.849,319.341 156.5,320.5C 157.167,321.167 157.833,321.833 158.5,322.5C 153.894,322.957 151.061,325.291 150,329.5C 156.009,334.589 162.842,338.256 170.5,340.5C 171.263,341.268 172.263,341.768 173.5,342C 162.987,339.829 153.487,335.329 145,328.5C 136.37,333.977 128.203,339.977 120.5,346.5C 116.29,345.01 115.457,342.344 118,338.5C 124.306,332.599 131.473,328.099 139.5,325C 137.804,323.824 136.138,322.657 134.5,321.5C 135.627,316.338 138.627,314.005 143.5,314.5 Z"/></g>
<g><path style="opacity:1" fill="#c54f38" d="M 254.5,320.5 C 255.434,321.568 255.768,322.901 255.5,324.5C 257.35,348.293 256.183,371.96 252,395.5C 248.084,412.327 245.251,429.327 243.5,446.5C 239.5,446.5 235.5,446.5 231.5,446.5C 232.915,432.683 235.415,419.017 239,405.5C 250.15,378.295 255.316,349.962 254.5,320.5 Z"/></g>
<g><path style="opacity:1" fill="#da5f4b" d="M 170.5,340.5 C 175.594,341.651 180.594,342.984 185.5,344.5C 184.127,344.343 182.793,344.51 181.5,345C 186.38,345.629 191.214,346.462 196,347.5C 202.188,346.868 207.855,344.868 213,341.5C 213.561,342.022 214.228,342.355 215,342.5C 216.798,341.496 218.632,340.996 220.5,341C 216.824,343.505 212.824,345.338 208.5,346.5C 211.541,355.842 210.708,364.842 206,373.5C 203.375,376.921 200.209,377.421 196.5,375C 194.874,372.372 192.874,370.039 190.5,368C 187.137,364.978 183.47,362.312 179.5,360C 165.818,357.238 152.151,357.071 138.5,359.5C 136.55,358.628 134.55,357.961 132.5,357.5C 127.874,354.542 123.874,350.876 120.5,346.5C 128.203,339.977 136.37,333.977 145,328.5C 153.487,335.329 162.987,339.829 173.5,342C 172.263,341.768 171.263,341.268 170.5,340.5 Z"/></g>
<g><path style="opacity:1" fill="#744c2e" d="M 412.5,186.5 C 411.883,186.389 411.383,186.056 411,185.5C 406.22,193.456 400.553,200.789 394,207.5C 390.781,214.046 386.781,220.046 382,225.5C 376.621,230.893 370.288,234.559 363,236.5C 362.22,238.387 362.387,240.054 363.5,241.5C 371.165,282.652 376.165,324.152 378.5,366C 378.269,370.706 377.603,375.206 376.5,379.5C 374.871,380.625 373.371,381.959 372,383.5C 371.484,386.034 370.317,388.2 368.5,390C 362.763,390.789 357.097,390.456 351.5,389C 340.231,383.723 329.898,376.889 320.5,368.5C 312.869,363.087 304.869,358.254 296.5,354C 293.21,350.893 289.877,348.06 286.5,345.5C 286.975,343.216 287.975,341.216 289.5,339.5C 290.272,338.306 291.272,337.306 292.5,336.5C 293.945,339.118 295.611,341.618 297.5,344C 306.859,350.03 315.526,357.03 323.5,365C 325.67,366.586 328.004,367.92 330.5,369C 335.206,374.041 340.206,378.708 345.5,383C 349.879,385.243 354.545,386.41 359.5,386.5C 367.471,386.027 371.638,381.693 372,373.5C 373.347,362.193 373.68,350.86 373,339.5C 371.083,323.901 370.083,308.234 370,292.5C 367.009,275.874 364.343,259.208 362,242.5C 361.617,241.944 361.117,241.611 360.5,241.5C 360.5,239.5 359.5,238.5 357.5,238.5C 356.306,236.516 356.306,234.516 357.5,232.5C 364.459,232.505 370.792,230.671 376.5,227C 385.782,217.383 393.949,206.883 401,195.5C 404.637,192.146 407.47,188.146 409.5,183.5C 409.392,182.558 409.059,181.725 408.5,181C 406.833,180.333 405.167,180.333 403.5,181C 399.702,184.812 396.035,188.645 392.5,192.5C 395.234,187.264 398.9,182.764 403.5,179C 409.287,178.22 412.287,180.72 412.5,186.5 Z"/></g>
<g><path style="opacity:1" fill="#a72a04" d="M 148.5,304.5 C 147.258,306.25 145.758,307.917 144,309.5C 143.517,310.448 143.351,311.448 143.5,312.5C 143.5,313.167 143.5,313.833 143.5,314.5C 138.627,314.005 135.627,316.338 134.5,321.5C 126.65,326.59 118.984,331.923 111.5,337.5C 110.027,338.072 108.693,338.905 107.5,340C 108.167,340.333 108.833,340.667 109.5,341C 105.844,342.27 103.844,344.936 103.5,349C 103.164,350.03 102.497,350.53 101.5,350.5C 102.227,344.604 104.893,339.771 109.5,336C 116.5,331 123.5,326 130.5,321C 135.039,313.899 141.039,308.399 148.5,304.5 Z"/></g>
<g><path style="opacity:1" fill="#c44e38" d="M 254.5,304.5 C 258.029,308.322 261.695,312.155 265.5,316C 272,319.079 277,323.746 280.5,330C 281.449,330.617 282.282,330.451 283,329.5C 282.971,334.481 285.137,337.814 289.5,339.5C 287.975,341.216 286.975,343.216 286.5,345.5C 285.272,346.306 284.272,347.306 283.5,348.5C 283.121,345.747 281.621,343.747 279,342.5C 278.667,340.5 278.333,338.5 278,336.5C 277.667,337.167 277.333,337.833 277,338.5C 274.54,332.408 270.373,327.908 264.5,325C 262.18,321.515 259.513,318.349 256.5,315.5C 255.319,311.928 254.652,308.262 254.5,304.5 Z"/></g>
<g><path style="opacity:1" fill="#8e290b" d="M 256.5,324.5 C 259.008,328.304 261.341,332.304 263.5,336.5C 266.167,339.167 268.833,341.833 271.5,344.5C 272.425,345.641 273.259,345.641 274,344.5C 276.505,349.187 278.172,354.187 279,359.5C 280.458,361.61 281.958,363.61 283.5,365.5C 281.585,365.784 279.919,365.451 278.5,364.5C 278.938,364.565 279.272,364.399 279.5,364C 278.206,361.913 277.039,359.746 276,357.5C 274.989,356.663 273.822,356.33 272.5,356.5C 272.5,354.5 272.5,352.5 272.5,350.5C 270.097,350.607 268.264,349.607 267,347.5C 265.311,343.44 263.144,339.773 260.5,336.5C 259.5,334.5 258.5,332.5 257.5,330.5C 257.167,328.5 256.833,326.5 256.5,324.5 Z"/></g>
<g><path style="opacity:1" fill="#6f1800" d="M 260.5,336.5 C 263.144,339.773 265.311,343.44 267,347.5C 268.264,349.607 270.097,350.607 272.5,350.5C 272.5,352.5 272.5,354.5 272.5,356.5C 273.822,356.33 274.989,356.663 276,357.5C 277.039,359.746 278.206,361.913 279.5,364C 279.272,364.399 278.938,364.565 278.5,364.5C 276.301,362.898 274.301,361.064 272.5,359C 271.072,358.421 269.738,358.588 268.5,359.5C 267.504,359.586 266.671,359.252 266,358.5C 265.594,355.258 264.761,352.258 263.5,349.5C 263.277,345.838 262.277,342.505 260.5,339.5C 260.5,338.5 260.5,337.5 260.5,336.5 Z"/></g>
<g><path style="opacity:1" fill="#bc4831" d="M 255.5,324.5 C 255.833,324.5 256.167,324.5 256.5,324.5C 256.833,326.5 257.167,328.5 257.5,330.5C 257.457,333.91 257.957,337.243 259,340.5C 259.5,375.832 259.667,411.165 259.5,446.5C 254.167,446.5 248.833,446.5 243.5,446.5C 245.251,429.327 248.084,412.327 252,395.5C 256.183,371.96 257.35,348.293 255.5,324.5 Z"/></g>
<g><path style="opacity:1" fill="#af3e26" d="M 254.5,304.5 C 254.652,308.262 255.319,311.928 256.5,315.5C 259.513,318.349 262.18,321.515 264.5,325C 270.373,327.908 274.54,332.408 277,338.5C 277.333,337.833 277.667,337.167 278,336.5C 278.333,338.5 278.667,340.5 279,342.5C 281.621,343.747 283.121,345.747 283.5,348.5C 287.5,351.5 291.5,354.5 295.5,357.5C 292.197,361.156 288.197,363.822 283.5,365.5C 281.958,363.61 280.458,361.61 279,359.5C 278.172,354.187 276.505,349.187 274,344.5C 273.259,345.641 272.425,345.641 271.5,344.5C 268.833,341.833 266.167,339.167 263.5,336.5C 261.341,332.304 259.008,328.304 256.5,324.5C 256.167,324.5 255.833,324.5 255.5,324.5C 255.768,322.901 255.434,321.568 254.5,320.5C 254.57,316.575 253.903,312.909 252.5,309.5C 252.81,306.287 252.477,303.287 251.5,300.5C 251.5,297.167 251.5,293.833 251.5,290.5C 252.384,293.869 253.384,298.536 254.5,304.5 Z"/></g>
<g><path style="opacity:1" fill="#af3e26" d="M 257.5,330.5 C 258.5,332.5 259.5,334.5 260.5,336.5C 260.5,337.5 260.5,338.5 260.5,339.5C 264.184,375.063 266.851,410.73 268.5,446.5C 265.5,446.5 262.5,446.5 259.5,446.5C 259.667,411.165 259.5,375.832 259,340.5C 257.957,337.243 257.457,333.91 257.5,330.5 Z"/></g>
<g><path style="opacity:1" fill="#532e0f" d="M 286.5,345.5 C 289.877,348.06 293.21,350.893 296.5,354C 304.869,358.254 312.869,363.087 320.5,368.5C 329.898,376.889 340.231,383.723 351.5,389C 357.097,390.456 362.763,390.789 368.5,390C 370.317,388.2 371.484,386.034 372,383.5C 373.371,381.959 374.871,380.625 376.5,379.5C 374.27,391.79 366.937,396.956 354.5,395C 348.44,393.136 342.774,390.47 337.5,387C 323.62,376.947 309.62,367.114 295.5,357.5C 291.5,354.5 287.5,351.5 283.5,348.5C 284.272,347.306 285.272,346.306 286.5,345.5 Z"/></g>
<g><path style="opacity:1" fill="#b13f26" d="M 111.5,337.5 C 110.119,347.908 108.285,358.241 106,368.5C 105.317,379.587 105.484,390.42 106.5,401C 104.947,406.352 104.281,411.852 104.5,417.5C 103.07,417.579 101.736,417.246 100.5,416.5C 99.5062,419.897 99.8396,423.23 101.5,426.5C 104.127,427.058 106.46,428.058 108.5,429.5C 104.284,429.316 100.284,428.316 96.5,426.5C 95.9707,424.217 95.6374,421.883 95.5,419.5C 96.7262,405.524 97.5595,391.524 98,377.5C 98.471,369.145 99.971,360.978 102.5,353C 102.43,352.235 102.097,351.735 101.5,351.5C 101.5,351.167 101.5,350.833 101.5,350.5C 102.497,350.53 103.164,350.03 103.5,349C 103.844,344.936 105.844,342.27 109.5,341C 108.833,340.667 108.167,340.333 107.5,340C 108.693,338.905 110.027,338.072 111.5,337.5 Z"/></g>
<g><path style="opacity:1" fill="#ca523d" d="M 136.5,364.5 C 138.412,366.657 140.079,368.991 141.5,371.5C 141.421,372.93 141.754,374.264 142.5,375.5C 137.987,388.394 130.654,399.227 120.5,408C 120.759,409.261 121.426,410.261 122.5,411C 120.833,413.333 119.167,415.667 117.5,418C 115.231,418.758 113.064,418.591 111,417.5C 110.41,411.821 110.91,406.321 112.5,401C 111.884,392.662 111.218,384.329 110.5,376C 111.759,365.465 113.259,354.965 115,344.5C 122.568,350.844 129.734,357.511 136.5,364.5 Z"/></g>
<g><path style="opacity:1" fill="#881e01" d="M 263.5,349.5 C 264.761,352.258 265.594,355.258 266,358.5C 266.671,359.252 267.504,359.586 268.5,359.5C 269.862,373.947 271.362,388.614 273,403.5C 274.343,417.807 275.176,432.14 275.5,446.5C 274.5,446.5 273.5,446.5 272.5,446.5C 270.671,414.052 267.671,381.718 263.5,349.5 Z"/></g>
<g><path style="opacity:1" fill="#ae3e25" d="M 137.5,363.5 C 138.833,365.167 140.167,366.833 141.5,368.5C 144.566,372.631 148.399,375.965 153,378.5C 157.056,389.488 158.39,400.821 157,412.5C 155.583,423.922 153.75,435.255 151.5,446.5C 148.167,446.5 144.833,446.5 141.5,446.5C 141.586,442.143 141.92,437.81 142.5,433.5C 138.833,433.5 135.167,433.5 131.5,433.5C 127.295,433.283 123.295,432.617 119.5,431.5C 126.175,431.666 132.842,431.5 139.5,431C 140.786,427.847 142.786,425.181 145.5,423C 137.782,422.812 130.115,422.146 122.5,421C 126.982,421.063 131.148,420.23 135,418.5C 138.931,408.374 142.264,398.041 145,387.5C 146.481,381.41 145.315,376.077 141.5,371.5C 140.079,368.991 138.412,366.657 136.5,364.5C 136.5,363.833 136.833,363.5 137.5,363.5 Z"/></g>
<g><path style="opacity:1" fill="#9b3217" d="M 260.5,339.5 C 262.277,342.505 263.277,345.838 263.5,349.5C 267.671,381.718 270.671,414.052 272.5,446.5C 271.167,446.5 269.833,446.5 268.5,446.5C 266.851,410.73 264.184,375.063 260.5,339.5 Z"/></g>
<g><path style="opacity:1" fill="#952504" d="M 101.5,351.5 C 102.097,351.735 102.43,352.235 102.5,353C 99.971,360.978 98.471,369.145 98,377.5C 97.5595,391.524 96.7262,405.524 95.5,419.5C 95.6374,421.883 95.9707,424.217 96.5,426.5C 94.0412,425.126 93.0412,422.96 93.5,420C 95.1399,405.898 95.9733,391.731 96,377.5C 96.6685,368.455 98.5019,359.788 101.5,351.5 Z"/></g>
<g><path style="opacity:1" fill="#c04a34" d="M 141.5,368.5 C 146.543,370.179 151.543,372.012 156.5,374C 158,376.167 159.5,378.333 161,380.5C 167.959,401.922 171.125,423.922 170.5,446.5C 164.167,446.5 157.833,446.5 151.5,446.5C 153.75,435.255 155.583,423.922 157,412.5C 158.39,400.821 157.056,389.488 153,378.5C 148.399,375.965 144.566,372.631 141.5,368.5 Z"/></g>
<g><path style="opacity:1" fill="#c34d37" d="M 134.5,321.5 C 136.138,322.657 137.804,323.824 139.5,325C 131.473,328.099 124.306,332.599 118,338.5C 115.457,342.344 116.29,345.01 120.5,346.5C 123.874,350.876 127.874,354.542 132.5,357.5C 133.306,358.728 134.306,359.728 135.5,360.5C 136.167,361.5 136.833,362.5 137.5,363.5C 136.833,363.5 136.5,363.833 136.5,364.5C 129.734,357.511 122.568,350.844 115,344.5C 113.259,354.965 111.759,365.465 110.5,376C 111.218,384.329 111.884,392.662 112.5,401C 110.91,406.321 110.41,411.821 111,417.5C 113.064,418.591 115.231,418.758 117.5,418C 119.167,415.667 120.833,413.333 122.5,411C 121.426,410.261 120.759,409.261 120.5,408C 130.654,399.227 137.987,388.394 142.5,375.5C 141.754,374.264 141.421,372.93 141.5,371.5C 145.315,376.077 146.481,381.41 145,387.5C 142.264,398.041 138.931,408.374 135,418.5C 131.148,420.23 126.982,421.063 122.5,421C 130.115,422.146 137.782,422.812 145.5,423C 142.786,425.181 140.786,427.847 139.5,431C 132.842,431.5 126.175,431.666 119.5,431.5C 117.5,431.5 115.5,431.5 113.5,431.5C 111.833,430.833 110.167,430.167 108.5,429.5C 106.46,428.058 104.127,427.058 101.5,426.5C 99.8396,423.23 99.5062,419.897 100.5,416.5C 101.736,417.246 103.07,417.579 104.5,417.5C 104.281,411.852 104.947,406.352 106.5,401C 105.484,390.42 105.317,379.587 106,368.5C 108.285,358.241 110.119,347.908 111.5,337.5C 118.984,331.923 126.65,326.59 134.5,321.5 Z"/></g>
<g><path style="opacity:1" fill="#825a3d" d="M 96.5,426.5 C 100.284,428.316 104.284,429.316 108.5,429.5C 110.167,430.167 111.833,430.833 113.5,431.5C 111.856,431.286 110.356,431.62 109,432.5C 108.335,437.156 107.835,441.823 107.5,446.5C 103.167,446.5 98.8333,446.5 94.5,446.5C 95.3184,439.867 95.985,433.2 96.5,426.5 Z"/></g>
<g><path style="opacity:1" fill="#926d55" d="M 113.5,431.5 C 115.5,431.5 117.5,431.5 119.5,431.5C 123.295,432.617 127.295,433.283 131.5,433.5C 130.725,437.814 130.059,442.147 129.5,446.5C 122.167,446.5 114.833,446.5 107.5,446.5C 107.835,441.823 108.335,437.156 109,432.5C 110.356,431.62 111.856,431.286 113.5,431.5 Z"/></g>
<g><path style="opacity:1" fill="#734c2f" d="M 131.5,433.5 C 135.167,433.5 138.833,433.5 142.5,433.5C 141.92,437.81 141.586,442.143 141.5,446.5C 137.5,446.5 133.5,446.5 129.5,446.5C 130.059,442.147 130.725,437.814 131.5,433.5 Z"/></g>
</svg>
