<?xml version="1.0" encoding="UTF-8"?>
<!DOCTYPE svg PUBLIC "-//W3C//DTD SVG 1.1//EN" "http://www.w3.org/Graphics/SVG/1.1/DTD/svg11.dtd">
<svg xmlns="http://www.w3.org/2000/svg" version="1.1" width="420px" height="447px" style="shape-rendering:geometricPrecision; text-rendering:geometricPrecision; image-rendering:optimizeQuality; fill-rule:evenodd; clip-rule:evenodd" xmlns:xlink="http://www.w3.org/1999/xlink">
<g><path style="opacity:1" fill="#312e2b" d="M 157.5,-0.5 C 159.833,-0.5 162.167,-0.5 164.5,-0.5C 166.139,0.472504 167.473,1.80584 168.5,3.5C 168.5,4.5 168.5,5.5 168.5,6.5C 161.978,6.8235 155.645,6.49016 149.5,5.5C 151.809,3.01335 154.476,1.01335 157.5,-0.5 Z"/></g>
<g><path style="opacity:1" fill="#373432" d="M 143.5,10.5 C 143.78,13.3882 142.447,14.8882 139.5,15C 133.175,15.4995 126.842,15.6662 120.5,15.5C 120.33,14.1779 120.663,13.0113 121.5,12C 117.975,12.0159 114.642,11.8493 111.5,11.5C 114.31,6.58428 118.644,3.91762 124.5,3.5C 129.736,5.28092 135.069,6.78092 140.5,8C 141.571,8.85175 142.571,9.68509 143.5,10.5 Z"/></g>
<g><path style="opacity:1" fill="#2e2b28" d="M 202.5,17.5 C 202.288,19.3841 201.288,20.7174 199.5,21.5C 194.869,22.6616 190.202,22.8283 185.5,22C 183.919,21.2935 182.419,20.4601 181,19.5C 180.383,18.5509 180.549,17.7175 181.5,17C 180.167,16.6667 178.833,16.3333 177.5,16C 178.056,15.6174 178.389,15.1174 178.5,14.5C 185.139,9.965 192.139,9.465 199.5,13C 201.141,14.129 202.141,15.629 202.5,17.5 Z"/></g>
<g><path style="opacity:1" fill="#1b1815" d="M 168.5,3.5 C 169.79,4.05773 170.623,5.05773 171,6.5C 169.847,13.177 172.347,15.8437 178.5,14.5C 178.389,15.1174 178.056,15.6174 177.5,16C 178.833,16.3333 180.167,16.6667 181.5,17C 180.549,17.7175 180.383,18.5509 181,19.5C 182.419,20.4601 183.919,21.2935 185.5,22C 190.202,22.8283 194.869,22.6616 199.5,21.5C 201.288,20.7174 202.288,19.3841 202.5,17.5C 203.431,21.243 203.431,24.9097 202.5,28.5C 206.964,27.2006 211.298,27.2006 215.5,28.5C 212.813,28.3359 210.146,28.5026 207.5,29C 208.13,30.892 209.13,32.5587 210.5,34C 214.102,35.1459 217.769,35.9792 221.5,36.5C 223.333,36.4146 224.666,35.7479 225.5,34.5C 226.525,35.3739 227.192,36.5405 227.5,38C 226.624,40.8792 224.958,43.2125 222.5,45C 223.252,45.6708 223.586,46.5041 223.5,47.5C 218.859,46.8734 214.193,46.5401 209.5,46.5C 209.649,45.448 209.483,44.448 209,43.5C 200.444,47.7935 191.611,48.4601 182.5,45.5C 179.8,40.2205 181.133,36.2205 186.5,33.5C 185.359,31.9124 183.859,30.5791 182,29.5C 181.187,27.5643 180.687,25.5643 180.5,23.5C 174.116,24.7862 167.782,26.2862 161.5,28C 160.549,28.7175 160.383,29.5509 161,30.5C 162.145,31.6364 163.312,32.6364 164.5,33.5C 153.376,32.9043 151.042,36.9043 157.5,45.5C 161.214,46.7454 164.88,46.5787 168.5,45C 172.435,41.504 172.435,38.004 168.5,34.5C 175.937,37.3415 177.27,41.8415 172.5,48C 166.007,50.5353 159.34,51.0353 152.5,49.5C 150.677,48.5091 149.177,47.1757 148,45.5C 147.527,48.9514 148.027,52.2848 149.5,55.5C 153.572,58.4039 156.739,62.0705 159,66.5C 161.316,62.7676 164.482,60.101 168.5,58.5C 164.047,62.0195 163.547,66.0195 167,70.5C 172.292,77.5662 179.126,80.8995 187.5,80.5C 186.407,82.5561 184.574,83.5561 182,83.5C 171.403,81.9555 162.903,76.9555 156.5,68.5C 151.262,71.2013 145.762,73.2013 140,74.5C 135.773,74.0292 132.106,72.3626 129,69.5C 130.552,73.1373 132.052,76.9707 133.5,81C 133.178,83.521 131.844,85.021 129.5,85.5C 129.574,79.5015 128.241,73.8348 125.5,68.5C 123.257,67.5258 120.924,67.1924 118.5,67.5C 119.263,66.7321 120.263,66.2321 121.5,66C 116.466,60.366 110.3,58.866 103,61.5C 101.167,61.8333 99.3333,62.1667 97.5,62.5C 98.325,63.3857 99.325,63.719 100.5,63.5C 100.682,65.5914 100.348,67.5914 99.5,69.5C 90.5148,71.164 81.5148,72.664 72.5,74C 73.056,74.3826 73.3893,74.8826 73.5,75.5C 71.5168,76.4706 69.5168,77.4706 67.5,78.5C 68.0564,72.7453 69.7231,67.412 72.5,62.5C 72.2011,64.604 72.5344,66.604 73.5,68.5C 74.6074,69.0219 75.7741,69.3552 77,69.5C 84.4514,68.0333 89.2847,63.6999 91.5,56.5C 91.4712,54.9707 90.8045,53.804 89.5,53C 87.1667,52.3333 84.8333,52.3333 82.5,53C 80.7128,54.3187 78.7128,55.152 76.5,55.5C 70.991,53.472 68.991,49.8053 70.5,44.5C 71.1342,45.9468 72.3009,46.6134 74,46.5C 79.3328,44.2917 84.8328,42.625 90.5,41.5C 90.3398,39.8008 90.5065,38.1341 91,36.5C 93.4009,37.6023 95.9009,37.769 98.5,37C 103.202,34.5885 108.036,32.4218 113,30.5C 113.667,27.5 113.667,24.5 113,21.5C 112.302,20.3094 111.469,19.3094 110.5,18.5C 110.198,15.9407 110.532,13.6074 111.5,11.5C 114.642,11.8493 117.975,12.0159 121.5,12C 120.663,13.0113 120.33,14.1779 120.5,15.5C 126.842,15.6662 133.175,15.4995 139.5,15C 142.447,14.8882 143.78,13.3882 143.5,10.5C 144.117,10.6107 144.617,10.944 145,11.5C 145.792,8.89361 147.292,6.89361 149.5,5.5C 155.645,6.49016 161.978,6.8235 168.5,6.5C 168.5,5.5 168.5,4.5 168.5,3.5 Z"/></g>
<g><path style="opacity:1" fill="#3a3735" d="M 159.5,14.5 C 163.514,14.3345 167.514,14.5012 171.5,15C 178.329,18.1341 178.162,20.3007 171,21.5C 165.81,21.3638 160.977,20.0305 156.5,17.5C 157.34,16.265 158.34,15.265 159.5,14.5 Z"/></g>
<g><path style="opacity:1" fill="#413f3c" d="M 125.5,27.5 C 129.605,27.2338 133.605,27.7338 137.5,29C 139.769,35.5392 137.436,39.0392 130.5,39.5C 126.944,39.0445 123.61,38.0445 120.5,36.5C 120.34,34.8008 120.506,33.1341 121,31.5C 122.667,30.2668 124.167,28.9335 125.5,27.5 Z"/></g>
<g><path style="opacity:1" fill="#34312e" d="M 215.5,28.5 C 219.793,28.9769 223.127,30.9769 225.5,34.5C 224.666,35.7479 223.333,36.4146 221.5,36.5C 217.769,35.9792 214.102,35.1459 210.5,34C 209.13,32.5587 208.13,30.892 207.5,29C 210.146,28.5026 212.813,28.3359 215.5,28.5 Z"/></g>
<g><path style="opacity:1" fill="#413e3c" d="M 164.5,33.5 C 165.708,34.2341 167.041,34.5674 168.5,34.5C 172.435,38.004 172.435,41.504 168.5,45C 164.88,46.5787 161.214,46.7454 157.5,45.5C 151.042,36.9043 153.376,32.9043 164.5,33.5 Z"/></g>
<g><path style="opacity:1" fill="#3b3836" d="M 186.5,33.5 C 193.597,30.4188 200.264,31.2522 206.5,36C 208.032,38.33 207.698,40.33 205.5,42C 199.804,42.8299 194.137,42.6632 188.5,41.5C 185.637,39.3515 184.971,36.6849 186.5,33.5 Z"/></g>
<g><path style="opacity:1" fill="#272421" d="M 110.5,18.5 C 111.469,19.3094 112.302,20.3094 113,21.5C 113.667,24.5 113.667,27.5 113,30.5C 108.036,32.4218 103.202,34.5885 98.5,37C 95.9009,37.769 93.4009,37.6023 91,36.5C 90.5065,38.1341 90.3398,39.8008 90.5,41.5C 84.8328,42.625 79.3328,44.2917 74,46.5C 72.3009,46.6134 71.1342,45.9468 70.5,44.5C 71.1335,41.3567 72.8002,38.8567 75.5,37C 79.5209,34.6597 83.8543,33.3264 88.5,33C 85.4793,28.123 86.1459,23.7897 90.5,20C 96.9937,16.1848 103.66,15.6848 110.5,18.5 Z"/></g>
<g><path style="opacity:1" fill="#373431" d="M 102.5,24.5 C 104.833,24.5 107.167,24.5 109.5,24.5C 109.739,26.4672 109.406,28.3005 108.5,30C 103.629,33.2736 98.2952,35.1069 92.5,35.5C 92.3433,34.1266 92.51,32.7932 93,31.5C 95.7901,28.535 98.9567,26.2016 102.5,24.5 Z"/></g>
<g><path style="opacity:1" fill="#14100d" d="M 186.5,33.5 C 181.133,36.2205 179.8,40.2205 182.5,45.5C 191.611,48.4601 200.444,47.7935 209,43.5C 209.483,44.448 209.649,45.448 209.5,46.5C 208.305,46.8656 207.639,47.699 207.5,49C 208.826,52.5547 208.659,56.0547 207,59.5C 206.329,58.7476 205.496,58.4142 204.5,58.5C 204.047,57.5416 203.381,56.7083 202.5,56C 198.167,55.3333 193.833,55.3333 189.5,56C 187.194,57.986 184.528,59.1527 181.5,59.5C 177.202,58.7035 172.868,58.3701 168.5,58.5C 164.482,60.101 161.316,62.7676 159,66.5C 156.739,62.0705 153.572,58.4039 149.5,55.5C 148.027,52.2848 147.527,48.9514 148,45.5C 149.177,47.1757 150.677,48.5091 152.5,49.5C 159.34,51.0353 166.007,50.5353 172.5,48C 177.27,41.8415 175.937,37.3415 168.5,34.5C 167.041,34.5674 165.708,34.2341 164.5,33.5C 163.312,32.6364 162.145,31.6364 161,30.5C 160.383,29.5509 160.549,28.7175 161.5,28C 167.782,26.2862 174.116,24.7862 180.5,23.5C 180.687,25.5643 181.187,27.5643 182,29.5C 183.859,30.5791 185.359,31.9124 186.5,33.5 Z"/></g>
<g><path style="opacity:1" fill="#393633" d="M 106.5,41.5 C 108.833,41.5 111.167,41.5 113.5,41.5C 116.729,52.0654 112.896,57.3987 102,57.5C 94.3075,55.2185 93.4742,51.2185 99.5,45.5C 101.904,44.1568 104.238,42.8234 106.5,41.5 Z"/></g>
<g><path style="opacity:1" fill="#3f3c3a" d="M 135.5,55.5 C 139.182,55.3347 142.848,55.5014 146.5,56C 150.593,60.5053 150.26,64.8386 145.5,69C 135.145,73.5847 129.645,70.418 129,59.5C 131.013,57.7518 133.18,56.4185 135.5,55.5 Z"/></g>
<g><path style="opacity:1" fill="#100d0a" d="M 118.5,67.5 C 113.34,68.6584 109.674,71.6584 107.5,76.5C 107.5,76.8333 107.5,77.1667 107.5,77.5C 105.932,78.4731 104.265,78.6397 102.5,78C 100.957,76.2863 99.2901,74.7863 97.5,73.5C 92.3229,75.3538 87.9896,78.3538 84.5,82.5C 82.9752,84.2163 81.9752,86.2163 81.5,88.5C 80.8485,89.0906 80.1818,89.7573 79.5,90.5C 77.3616,86.0841 76.0283,81.4174 75.5,76.5C 74.8165,76.1373 74.1499,75.8039 73.5,75.5C 73.3893,74.8826 73.056,74.3826 72.5,74C 81.5148,72.664 90.5148,71.164 99.5,69.5C 100.348,67.5914 100.682,65.5914 100.5,63.5C 99.325,63.719 98.325,63.3857 97.5,62.5C 99.3333,62.1667 101.167,61.8333 103,61.5C 110.3,58.866 116.466,60.366 121.5,66C 120.263,66.2321 119.263,66.7321 118.5,67.5 Z"/></g>
<g><path style="opacity:1" fill="#2d2926" d="M 72.5,62.5 C 73.063,59.7052 74.3963,57.3718 76.5,55.5C 78.7128,55.152 80.7128,54.3187 82.5,53C 84.8333,52.3333 87.1667,52.3333 89.5,53C 90.8045,53.804 91.4712,54.9707 91.5,56.5C 89.2847,63.6999 84.4514,68.0333 77,69.5C 75.7741,69.3552 74.6074,69.0219 73.5,68.5C 72.5344,66.604 72.2011,64.604 72.5,62.5 Z"/></g>
<g><path style="opacity:1" fill="#23201d" d="M 209.5,46.5 C 214.193,46.5401 218.859,46.8734 223.5,47.5C 225.437,48.9314 227.27,50.5981 229,52.5C 231.035,57.4583 233.535,62.125 236.5,66.5C 235.426,69.9912 233.093,71.9912 229.5,72.5C 229.822,70.2776 229.155,68.4443 227.5,67C 229.898,65.3644 231.065,63.1977 231,60.5C 224.247,61.314 217.414,61.814 210.5,62C 209.103,65.4137 207.77,68.9137 206.5,72.5C 201.88,73.4933 197.214,73.8266 192.5,73.5C 192.688,71.8967 192.188,70.5634 191,69.5C 190.667,72.1667 190.333,74.8333 190,77.5C 189.623,78.9423 188.79,79.9423 187.5,80.5C 179.126,80.8995 172.292,77.5662 167,70.5C 163.547,66.0195 164.047,62.0195 168.5,58.5C 172.868,58.3701 177.202,58.7035 181.5,59.5C 184.528,59.1527 187.194,57.986 189.5,56C 193.833,55.3333 198.167,55.3333 202.5,56C 203.381,56.7083 204.047,57.5416 204.5,58.5C 205.496,58.4142 206.329,58.7476 207,59.5C 208.659,56.0547 208.826,52.5547 207.5,49C 207.639,47.699 208.305,46.8656 209.5,46.5 Z"/></g>
<g><path style="opacity:1" fill="#3a3734" d="M 204.5,58.5 C 207.244,61.5911 208.077,65.2577 207,69.5C 206.275,70.0585 205.442,70.3918 204.5,70.5C 201.93,69.3831 199.263,68.5497 196.5,68C 195.174,65.8416 193.507,64.0082 191.5,62.5C 190.652,60.5914 190.318,58.5914 190.5,56.5C 195.43,56.034 200.097,56.7006 204.5,58.5 Z"/></g>
<g><path style="opacity:1" fill="#3f3c39" d="M 175.5,60.5 C 184.067,59.5675 188.4,63.4009 188.5,72C 188.056,77.5814 185.056,79.5814 179.5,78C 177.333,75.1667 175.167,72.3333 173,69.5C 172.333,67.8333 172.333,66.1667 173,64.5C 174.095,63.3066 174.928,61.9733 175.5,60.5 Z"/></g>
<g><path style="opacity:1" fill="#130f0c" d="M 236.5,66.5 C 236.663,68.8568 236.497,71.1902 236,73.5C 234.27,75.4019 232.437,77.0686 230.5,78.5C 228.473,78.6621 226.473,78.4955 224.5,78C 221.309,72.5771 216.642,69.4105 210.5,68.5C 210.276,70.7867 209.609,72.9534 208.5,75C 209.256,77.8561 210.089,80.6894 211,83.5C 213.643,84.9763 215.81,86.9763 217.5,89.5C 220.333,91.535 223.333,91.8683 226.5,90.5C 226.319,93.8115 228.152,95.4782 232,95.5C 233.167,95.1667 234.333,94.8333 235.5,94.5C 235.994,92.9745 236.661,91.6412 237.5,90.5C 238.664,95.8797 236.33,99.0464 230.5,100C 233.267,104.817 234.101,109.984 233,115.5C 230.5,117.667 228,119.833 225.5,122C 230.72,130.272 235.553,138.772 240,147.5C 242.805,156.301 244.638,165.301 245.5,174.5C 243.858,172.919 241.858,172.253 239.5,172.5C 238.637,170.579 237.971,168.579 237.5,166.5C 237.042,158.169 236.542,149.835 236,141.5C 235.692,140.692 235.192,140.025 234.5,139.5C 232.833,140.5 231.5,141.833 230.5,143.5C 229.511,141.412 229.844,139.412 231.5,137.5C 229.499,131.488 226.499,126.154 222.5,121.5C 226.165,117.919 227.332,113.585 226,108.5C 224.066,106.057 221.566,104.724 218.5,104.5C 218.429,98.8597 216.096,94.3597 211.5,91C 209.32,90.5812 207.154,90.7479 205,91.5C 197.006,86.2019 191.506,88.0353 188.5,97C 190.541,102.532 194.541,105.699 200.5,106.5C 204.257,104.786 206.09,101.786 206,97.5C 207.428,103.763 211.262,107.43 217.5,108.5C 217.5,111.833 217.5,115.167 217.5,118.5C 215.315,118.296 213.315,117.63 211.5,116.5C 210.609,115.89 209.609,115.557 208.5,115.5C 205.77,113.409 202.77,113.076 199.5,114.5C 199.167,114.5 198.833,114.5 198.5,114.5C 194.704,112.731 190.704,111.231 186.5,110C 178.497,109.266 170.497,108.933 162.5,109C 158.824,111.171 155.157,113.337 151.5,115.5C 148.897,114.438 146.23,114.272 143.5,115C 139.6,118.083 135.266,120.416 130.5,122C 127.863,125.817 124.196,127.484 119.5,127C 116,129.334 113,132.168 110.5,135.5C 107.514,139.32 104.347,142.987 101,146.5C 100.153,148.854 99.3195,151.188 98.5,153.5C 97.6554,154.671 96.9887,156.005 96.5,157.5C 91.8019,157.476 88.9685,155.143 88,150.5C 87.1744,147.207 86.6744,143.874 86.5,140.5C 82.9746,140.654 80.1413,139.321 78,136.5C 76.234,131.636 75.0674,126.636 74.5,121.5C 80.0784,124.751 84.7451,123.751 88.5,118.5C 85.1592,114.87 83.6592,110.536 84,105.5C 83.5,105 83,104.5 82.5,104C 89.905,103.467 96.905,101.467 103.5,98C 104.764,95.191 106.764,93.0243 109.5,91.5C 108.674,90.549 108.508,89.549 109,88.5C 112.121,91.9066 115.955,93.0733 120.5,92C 123.916,90.4186 126.916,88.2519 129.5,85.5C 131.844,85.021 133.178,83.521 133.5,81C 132.052,76.9707 130.552,73.1373 129,69.5C 132.106,72.3626 135.773,74.0292 140,74.5C 145.762,73.2013 151.262,71.2013 156.5,68.5C 162.903,76.9555 171.403,81.9555 182,83.5C 184.574,83.5561 186.407,82.5561 187.5,80.5C 188.79,79.9423 189.623,78.9423 190,77.5C 190.333,74.8333 190.667,72.1667 191,69.5C 192.188,70.5634 192.688,71.8967 192.5,73.5C 197.214,73.8266 201.88,73.4933 206.5,72.5C 207.77,68.9137 209.103,65.4137 210.5,62C 217.414,61.814 224.247,61.314 231,60.5C 231.065,63.1977 229.898,65.3644 227.5,67C 229.155,68.4443 229.822,70.2776 229.5,72.5C 233.093,71.9912 235.426,69.9912 236.5,66.5 Z"/></g>
<g><path style="opacity:1" fill="#1f1b18" d="M 118.5,67.5 C 120.924,67.1924 123.257,67.5258 125.5,68.5C 128.241,73.8348 129.574,79.5015 129.5,85.5C 126.916,88.2519 123.916,90.4186 120.5,92C 115.955,93.0733 112.121,91.9066 109,88.5C 108.508,89.549 108.674,90.549 109.5,91.5C 106.764,93.0243 104.764,95.191 103.5,98C 96.905,101.467 89.905,103.467 82.5,104C 83,104.5 83.5,105 84,105.5C 83.6592,110.536 85.1592,114.87 88.5,118.5C 84.7451,123.751 80.0784,124.751 74.5,121.5C 72.7773,119.22 72.1107,116.553 72.5,113.5C 73.1874,107.962 75.3541,102.962 79,98.5C 79.8077,96.4213 79.641,94.4213 78.5,92.5C 73.49,95.3459 68.1567,97.0125 62.5,97.5C 60.6957,90.2473 62.3623,83.914 67.5,78.5C 69.5168,77.4706 71.5168,76.4706 73.5,75.5C 74.1499,75.8039 74.8165,76.1373 75.5,76.5C 76.0283,81.4174 77.3616,86.0841 79.5,90.5C 80.1818,89.7573 80.8485,89.0906 81.5,88.5C 80.178,93.9933 82.178,96.4933 87.5,96C 91.6819,91.5092 93.3486,86.3426 92.5,80.5C 91.7065,80.0688 90.8732,79.7355 90,79.5C 88.2691,80.741 86.4358,81.741 84.5,82.5C 87.9896,78.3538 92.3229,75.3538 97.5,73.5C 99.2901,74.7863 100.957,76.2863 102.5,78C 104.265,78.6397 105.932,78.4731 107.5,77.5C 108.366,87.2264 113.366,90.7264 122.5,88C 127.163,83.7803 127.663,78.947 124,73.5C 122.649,71.981 121.149,70.6477 119.5,69.5C 117.556,70.1892 115.556,70.6892 113.5,71C 111.63,73.0396 109.63,74.8729 107.5,76.5C 109.674,71.6584 113.34,68.6584 118.5,67.5 Z"/></g>
<g><path style="opacity:1" fill="#302c2a" d="M 107.5,77.5 C 107.5,77.1667 107.5,76.8333 107.5,76.5C 109.63,74.8729 111.63,73.0396 113.5,71C 115.556,70.6892 117.556,70.1892 119.5,69.5C 121.149,70.6477 122.649,71.981 124,73.5C 127.663,78.947 127.163,83.7803 122.5,88C 113.366,90.7264 108.366,87.2264 107.5,77.5 Z"/></g>
<g><path style="opacity:1" fill="#23201d" d="M 230.5,78.5 C 234.377,81.5866 236.711,85.5866 237.5,90.5C 236.661,91.6412 235.994,92.9745 235.5,94.5C 234.333,94.8333 233.167,95.1667 232,95.5C 228.152,95.4782 226.319,93.8115 226.5,90.5C 223.333,91.8683 220.333,91.535 217.5,89.5C 215.81,86.9763 213.643,84.9763 211,83.5C 210.089,80.6894 209.256,77.8561 208.5,75C 209.609,72.9534 210.276,70.7867 210.5,68.5C 216.642,69.4105 221.309,72.5771 224.5,78C 226.473,78.4955 228.473,78.6621 230.5,78.5 Z"/></g>
<g><path style="opacity:1" fill="#302d2a" d="M 81.5,88.5 C 81.9752,86.2163 82.9752,84.2163 84.5,82.5C 86.4358,81.741 88.2691,80.741 90,79.5C 90.8732,79.7355 91.7065,80.0688 92.5,80.5C 93.3486,86.3426 91.6819,91.5092 87.5,96C 82.178,96.4933 80.178,93.9933 81.5,88.5 Z"/></g>
<g><path style="opacity:1" fill="#1e1b18" d="M 164.5,82.5 C 171.134,82.7029 176.467,85.3696 180.5,90.5C 185.86,91.9329 186.86,94.9329 183.5,99.5C 175.781,104.182 168.948,103.182 163,96.5C 161.555,107.966 155.722,111.132 145.5,106C 139.056,101.223 137.889,95.3901 142,88.5C 145.303,86.4322 148.803,84.7655 152.5,83.5C 155.901,84.4415 158.401,86.4415 160,89.5C 161.012,86.7982 162.512,84.4649 164.5,82.5 Z"/></g>
<g><path style="opacity:0.994" fill="#120e0b" d="M 72.5,113.5 C 70.9102,113.372 69.5769,112.705 68.5,111.5C 67.0968,107.968 66.0968,104.302 65.5,100.5C 64.1451,99.8118 63.1451,98.8118 62.5,97.5C 68.1567,97.0125 73.49,95.3459 78.5,92.5C 79.641,94.4213 79.8077,96.4213 79,98.5C 75.3541,102.962 73.1874,107.962 72.5,113.5 Z"/></g>
<g><path style="opacity:1" fill="#2b2825" d="M 146.5,88.5 C 154.195,87.0308 158.195,90.1974 158.5,98C 158.682,105.156 155.349,107.823 148.5,106C 146.667,104.167 144.833,102.333 143,100.5C 142.333,97.5 142.333,94.5 143,91.5C 144.145,90.3636 145.312,89.3636 146.5,88.5 Z"/></g>
<g><path style="opacity:1" fill="#24211e" d="M 126.5,99.5 C 133.325,98.1648 135.825,100.831 134,107.5C 131.5,110.667 129,113.833 126.5,117C 124.635,118.301 122.635,118.635 120.5,118C 114.666,115.145 113,110.645 115.5,104.5C 119.353,103.004 123.019,101.338 126.5,99.5 Z"/></g>
<g><path style="opacity:1" fill="#201c19" d="M 108.5,97.5 C 109.5,97.5 110.5,97.5 111.5,97.5C 113.563,106.355 114.396,115.355 114,124.5C 111.847,126.444 109.347,126.944 106.5,126C 102.104,125.27 99.2704,122.77 98,118.5C 97.9301,122.035 99.2635,125.035 102,127.5C 102.5,130.5 103,133.5 103.5,136.5C 102.341,142.091 99.0081,143.924 93.5,142C 91.9512,140.786 90.7845,139.286 90,137.5C 89.2489,132.428 89.5822,127.428 91,122.5C 92.8153,120.595 94.8153,118.928 97,117.5C 97.5207,108.776 101.354,102.109 108.5,97.5 Z"/></g>
<g><path style="opacity:1" fill="#1f1c18" d="M 222.5,121.5 C 220.948,120.378 219.282,119.878 217.5,120C 221.355,124.759 221.355,129.592 217.5,134.5C 216.5,134.5 215.5,134.5 214.5,134.5C 213.391,133.71 212.058,133.21 210.5,133C 205.833,132.333 201.167,132.333 196.5,133C 180.204,137.827 163.537,140.494 146.5,141C 142.5,142 138.5,143 134.5,144C 131.244,145.116 128.578,146.949 126.5,149.5C 122.927,151.464 119.927,154.131 117.5,157.5C 115.299,156.055 113.133,154.388 111,152.5C 110.068,147.011 110.568,141.677 112.5,136.5C 112.043,135.702 111.376,135.369 110.5,135.5C 113,132.168 116,129.334 119.5,127C 124.196,127.484 127.863,125.817 130.5,122C 135.266,120.416 139.6,118.083 143.5,115C 146.23,114.272 148.897,114.438 151.5,115.5C 155.157,113.337 158.824,111.171 162.5,109C 170.497,108.933 178.497,109.266 186.5,110C 190.704,111.231 194.704,112.731 198.5,114.5C 197.833,114.5 197.5,114.833 197.5,115.5C 199.173,116.343 200.34,117.676 201,119.5C 201.741,122.562 201.575,125.562 200.5,128.5C 201.689,129.429 203.022,129.762 204.5,129.5C 206.933,123.013 205.266,118.013 199.5,114.5C 202.77,113.076 205.77,113.409 208.5,115.5C 207.5,115.5 206.5,115.5 205.5,115.5C 207.228,120.444 207.894,125.444 207.5,130.5C 210.437,128.187 213.77,126.854 217.5,126.5C 217.785,124.712 217.452,123.045 216.5,121.5C 214.479,120.145 212.812,118.479 211.5,116.5C 213.315,117.63 215.315,118.296 217.5,118.5C 217.5,115.167 217.5,111.833 217.5,108.5C 211.262,107.43 207.428,103.763 206,97.5C 206.09,101.786 204.257,104.786 200.5,106.5C 194.541,105.699 190.541,102.532 188.5,97C 191.506,88.0353 197.006,86.2019 205,91.5C 207.154,90.7479 209.32,90.5812 211.5,91C 216.096,94.3597 218.429,98.8597 218.5,104.5C 221.566,104.724 224.066,106.057 226,108.5C 227.332,113.585 226.165,117.919 222.5,121.5 Z"/></g>
<g><path style="opacity:1" fill="#2f2c29" d="M 208.5,115.5 C 209.609,115.557 210.609,115.89 211.5,116.5C 212.812,118.479 214.479,120.145 216.5,121.5C 217.452,123.045 217.785,124.712 217.5,126.5C 213.77,126.854 210.437,128.187 207.5,130.5C 207.894,125.444 207.228,120.444 205.5,115.5C 206.5,115.5 207.5,115.5 208.5,115.5 Z"/></g>
<g><path style="opacity:1" fill="#35322f" d="M 197.5,115.5 C 197.5,114.833 197.833,114.5 198.5,114.5C 198.833,114.5 199.167,114.5 199.5,114.5C 205.266,118.013 206.933,123.013 204.5,129.5C 203.022,129.762 201.689,129.429 200.5,128.5C 201.575,125.562 201.741,122.562 201,119.5C 200.34,117.676 199.173,116.343 197.5,115.5 Z"/></g>
<g><path style="opacity:1" fill="#2b2825" d="M 196.5,115.5 C 194.194,115.007 191.861,114.674 189.5,114.5C 190.412,118.131 190.579,121.797 190,125.5C 188.301,126.406 186.467,126.739 184.5,126.5C 183.584,122.73 181.584,119.564 178.5,117C 172.856,116.823 167.356,115.99 162,114.5C 161.994,117.275 160.827,119.275 158.5,120.5C 156.962,120.547 155.962,119.88 155.5,118.5C 154.91,116.473 155.744,114.807 158,113.5C 165.64,110.213 172.806,110.879 179.5,115.5C 179.587,113.258 181.087,111.925 184,111.5C 188.374,112.573 192.54,113.906 196.5,115.5 Z"/></g>
<g><path style="opacity:1" fill="#363331" d="M 196.5,115.5 C 196.833,115.5 197.167,115.5 197.5,115.5C 200.943,121.454 199.276,125.288 192.5,127C 190.833,128.667 189.167,130.333 187.5,132C 185.336,132.433 183.336,131.933 181.5,130.5C 178.341,131.921 175.007,132.921 171.5,133.5C 170.522,133.023 169.689,132.357 169,131.5C 168.457,133.631 167.624,135.631 166.5,137.5C 165.571,136.311 165.238,134.978 165.5,133.5C 159.807,133.374 154.14,133.707 148.5,134.5C 145.678,134.448 143.011,133.781 140.5,132.5C 139.534,134.396 139.201,136.396 139.5,138.5C 135.661,140.167 131.661,140.667 127.5,140C 123.184,133.907 124.184,128.573 130.5,124C 134.381,123.393 137.714,121.726 140.5,119C 145.445,117.173 150.445,117.006 155.5,118.5C 155.962,119.88 156.962,120.547 158.5,120.5C 160.827,119.275 161.994,117.275 162,114.5C 167.356,115.99 172.856,116.823 178.5,117C 181.584,119.564 183.584,122.73 184.5,126.5C 186.467,126.739 188.301,126.406 190,125.5C 190.579,121.797 190.412,118.131 189.5,114.5C 191.861,114.674 194.194,115.007 196.5,115.5 Z"/></g>
<g><path style="opacity:1" fill="#292521" d="M 222.5,121.5 C 226.499,126.154 229.499,131.488 231.5,137.5C 229.844,139.412 229.511,141.412 230.5,143.5C 231.5,141.833 232.833,140.5 234.5,139.5C 235.192,140.025 235.692,140.692 236,141.5C 236.542,149.835 237.042,158.169 237.5,166.5C 235.318,160.479 232.818,154.479 230,148.5C 225.997,143.665 221.83,138.998 217.5,134.5C 221.355,129.592 221.355,124.759 217.5,120C 219.282,119.878 220.948,120.378 222.5,121.5 Z"/></g>
<g><path style="opacity:1" fill="#312d2b" d="M 118.5,131.5 C 119.833,131.5 121.167,131.5 122.5,131.5C 122.33,133.848 121.997,136.182 121.5,138.5C 122.581,141.24 123.581,144.073 124.5,147C 118.811,154.826 114.478,154.16 111.5,145C 111.904,139.354 114.238,134.854 118.5,131.5 Z"/></g>
<g><path style="opacity:1" fill="#8d664d" d="M 197.5,135.5 C 201.182,135.335 204.848,135.501 208.5,136C 209.333,136.833 210.167,137.667 211,138.5C 215.197,146.606 218.697,154.939 221.5,163.5C 217.958,163.187 214.625,163.521 211.5,164.5C 207.378,164.697 203.378,165.53 199.5,167C 198.663,168.011 198.33,169.178 198.5,170.5C 206.393,168.673 214.393,168.173 222.5,169C 224.066,169.608 225.4,170.442 226.5,171.5C 213.546,170.307 203.046,174.641 195,184.5C 193.644,183.62 192.144,183.286 190.5,183.5C 189.081,182.549 187.415,182.216 185.5,182.5C 185.892,178.658 186.892,174.991 188.5,171.5C 192.166,168.003 195.999,164.669 200,161.5C 204.196,154.162 202.696,148.328 195.5,144C 190.727,140.443 185.394,138.943 179.5,139.5C 185.167,137.297 191.167,135.964 197.5,135.5 Z"/></g>
<g><path style="opacity:1" fill="#4c2a0c" d="M 214.5,134.5 C 208.642,134.178 202.975,134.511 197.5,135.5C 191.167,135.964 185.167,137.297 179.5,139.5C 171.748,139.991 164.081,140.991 156.5,142.5C 145.957,142.636 135.957,144.97 126.5,149.5C 128.578,146.949 131.244,145.116 134.5,144C 138.5,143 142.5,142 146.5,141C 163.537,140.494 180.204,137.827 196.5,133C 201.167,132.333 205.833,132.333 210.5,133C 212.058,133.21 213.391,133.71 214.5,134.5 Z"/></g>
<g><path style="opacity:1" fill="#764f31" d="M 197.5,135.5 C 202.975,134.511 208.642,134.178 214.5,134.5C 215.5,134.5 216.5,134.5 217.5,134.5C 221.83,138.998 225.997,143.665 230,148.5C 232.818,154.479 235.318,160.479 237.5,166.5C 237.971,168.579 238.637,170.579 239.5,172.5C 236.167,172.167 232.833,171.833 229.5,171.5C 224.651,166.342 218.651,164.009 211.5,164.5C 214.625,163.521 217.958,163.187 221.5,163.5C 218.697,154.939 215.197,146.606 211,138.5C 210.167,137.667 209.333,136.833 208.5,136C 204.848,135.501 201.182,135.335 197.5,135.5 Z"/></g>
<g><path style="opacity:1" fill="#9c7963" d="M 179.5,139.5 C 185.394,138.943 190.727,140.443 195.5,144C 202.696,148.328 204.196,154.162 200,161.5C 195.999,164.669 192.166,168.003 188.5,171.5C 188.565,171.062 188.399,170.728 188,170.5C 185.323,172.514 182.656,174.514 180,176.5C 176.842,175.447 173.342,174.281 169.5,173C 160.808,172.536 152.142,172.536 143.5,173C 139.442,160.283 143.109,150.449 154.5,143.5C 155.492,143.672 156.158,143.338 156.5,142.5C 164.081,140.991 171.748,139.991 179.5,139.5 Z"/></g>
<g><path style="opacity:1" fill="#886144" d="M 156.5,142.5 C 156.158,143.338 155.492,143.672 154.5,143.5C 151.187,144.045 147.854,144.545 144.5,145C 140.448,150.147 138.115,155.981 137.5,162.5C 138.201,166.808 138.534,171.141 138.5,175.5C 139.833,175.5 141.167,175.5 142.5,175.5C 138.659,176.992 135.325,179.325 132.5,182.5C 131.178,182.67 130.011,182.337 129,181.5C 128.108,175.814 127.108,170.147 126,164.5C 125.222,159.416 125.389,154.416 126.5,149.5C 135.957,144.97 145.957,142.636 156.5,142.5 Z"/></g>
<g><path style="opacity:1" fill="#7a5335" d="M 126.5,149.5 C 125.389,154.416 125.222,159.416 126,164.5C 127.108,170.147 128.108,175.814 129,181.5C 130.011,182.337 131.178,182.67 132.5,182.5C 131.488,183.872 130.488,185.205 129.5,186.5C 128.167,187.5 128.167,188.5 129.5,189.5C 127.365,191.071 125.032,192.404 122.5,193.5C 122.231,189.526 121.064,185.86 119,182.5C 117.451,176.591 116.618,170.591 116.5,164.5C 116.993,162.194 117.326,159.861 117.5,157.5C 119.927,154.131 122.927,151.464 126.5,149.5 Z"/></g>
<g><path style="opacity:1" fill="#453429" d="M 211.5,164.5 C 218.651,164.009 224.651,166.342 229.5,171.5C 228.5,171.5 227.5,171.5 226.5,171.5C 225.4,170.442 224.066,169.608 222.5,169C 214.393,168.173 206.393,168.673 198.5,170.5C 198.33,169.178 198.663,168.011 199.5,167C 203.378,165.53 207.378,164.697 211.5,164.5 Z"/></g>
<g><path style="opacity:1" fill="#9a7861" d="M 324.5,174.5 C 323.115,173.386 321.615,172.386 320,171.5C 319.235,169.934 319.402,168.601 320.5,167.5C 324.929,165.952 328.763,166.952 332,170.5C 332.743,172.441 332.576,174.274 331.5,176C 328.905,176.6 326.571,176.1 324.5,174.5 Z"/></g>
<g><path style="opacity:1" fill="#906c55" d="M 154.5,143.5 C 143.109,150.449 139.442,160.283 143.5,173C 152.142,172.536 160.808,172.536 169.5,173C 173.342,174.281 176.842,175.447 180,176.5C 182.656,174.514 185.323,172.514 188,170.5C 188.399,170.728 188.565,171.062 188.5,171.5C 186.892,174.991 185.892,178.658 185.5,182.5C 187.415,182.216 189.081,182.549 190.5,183.5C 184.31,182.812 178.644,184.145 173.5,187.5C 165.784,182.895 157.451,181.395 148.5,183C 141.954,184.609 135.621,186.776 129.5,189.5C 128.167,188.5 128.167,187.5 129.5,186.5C 129.56,187.043 129.893,187.376 130.5,187.5C 139.348,179.939 149.681,176.439 161.5,177C 162.337,175.989 162.67,174.822 162.5,173.5C 155.731,173.388 149.065,174.055 142.5,175.5C 141.167,175.5 139.833,175.5 138.5,175.5C 138.534,171.141 138.201,166.808 137.5,162.5C 138.115,155.981 140.448,150.147 144.5,145C 147.854,144.545 151.187,144.045 154.5,143.5 Z"/></g>
<g><path style="opacity:1" fill="#2b2825" d="M 110.5,135.5 C 111.376,135.369 112.043,135.702 112.5,136.5C 110.568,141.677 110.068,147.011 111,152.5C 113.133,154.388 115.299,156.055 117.5,157.5C 117.326,159.861 116.993,162.194 116.5,164.5C 115.262,166.214 114.595,168.214 114.5,170.5C 113.512,175.64 113.179,180.974 113.5,186.5C 110.422,184.024 108.589,180.691 108,176.5C 100.755,170.522 97.5884,162.856 98.5,153.5C 99.3195,151.188 100.153,148.854 101,146.5C 104.347,142.987 107.514,139.32 110.5,135.5 Z"/></g>
<g><path style="opacity:1" fill="#623a1a" d="M 397.5,144.5 C 398.043,144.56 398.376,144.893 398.5,145.5C 397.902,146.795 397.402,148.128 397,149.5C 390.476,161.221 383.976,172.888 377.5,184.5C 376.094,184.973 375.427,185.973 375.5,187.5C 374.833,187.5 374.5,187.833 374.5,188.5C 373.402,187.399 373.235,186.066 374,184.5C 379.529,176.831 384.362,168.831 388.5,160.5C 390.493,154.506 393.493,149.173 397.5,144.5 Z"/></g>
<g><path style="opacity:0.971" fill="#191512" d="M 98.5,153.5 C 97.5884,162.856 100.755,170.522 108,176.5C 108.589,180.691 110.422,184.024 113.5,186.5C 112.293,196.808 111.293,207.141 110.5,217.5C 110.167,218.167 109.833,218.833 109.5,219.5C 108.108,218.395 106.941,217.061 106,215.5C 105.768,216.737 105.268,217.737 104.5,218.5C 103.395,217.4 102.062,216.733 100.5,216.5C 99.2201,209.94 98.3867,203.273 98,196.5C 97.1376,194.913 96.4709,193.246 96,191.5C 95.6993,183.485 95.1993,175.485 94.5,167.5C 94.7898,164.051 95.4564,160.718 96.5,157.5C 96.9887,156.005 97.6554,154.671 98.5,153.5 Z"/></g>
<g><path style="opacity:1" fill="#44352b" d="M 129.5,186.5 C 130.488,185.205 131.488,183.872 132.5,182.5C 135.325,179.325 138.659,176.992 142.5,175.5C 149.065,174.055 155.731,173.388 162.5,173.5C 162.67,174.822 162.337,175.989 161.5,177C 149.681,176.439 139.348,179.939 130.5,187.5C 129.893,187.376 129.56,187.043 129.5,186.5 Z"/></g>
<g><path style="opacity:1" fill="#98755d" d="M 387.5,140.5 C 392.122,138.499 395.455,139.832 397.5,144.5C 393.493,149.173 390.493,154.506 388.5,160.5C 386.629,160.859 385.129,161.859 384,163.5C 380.375,170.355 376.375,177.022 372,183.5C 372.076,192.772 375.076,193.772 381,186.5C 387.221,176.036 393.387,165.702 399.5,155.5C 403.906,154.209 406.906,155.875 408.5,160.5C 404.087,164.654 400.754,169.654 398.5,175.5C 394.189,181.807 389.522,187.807 384.5,193.5C 382.542,194.791 380.876,196.458 379.5,198.5C 379.667,199.167 379.833,199.833 380,200.5C 382.448,202.631 384.948,204.631 387.5,206.5C 382.188,213.088 376.855,219.755 371.5,226.5C 364.961,227.253 358.461,228.253 352,229.5C 350.893,229.415 349.893,229.081 349,228.5C 346.932,222.995 345.432,217.328 344.5,211.5C 342.289,210.877 340.289,209.877 338.5,208.5C 336.008,202.829 333.675,197.162 331.5,191.5C 330.173,185.326 332.506,183.159 338.5,185C 339.595,186.675 341.095,187.842 343,188.5C 344.707,187.862 346.54,187.862 348.5,188.5C 348.397,185.781 348.731,183.115 349.5,180.5C 352.276,176.336 354.609,172.003 356.5,167.5C 360.506,158.472 364.506,149.472 368.5,140.5C 370.199,140.34 371.866,140.506 373.5,141C 374.985,145.247 373.818,148.747 370,151.5C 369.927,155.645 368.261,158.979 365,161.5C 364.495,163.518 363.995,165.518 363.5,167.5C 361.547,171.518 360.547,175.852 360.5,180.5C 363.652,181.041 366.152,180.041 368,177.5C 374.279,164.967 381.113,152.801 388.5,141C 388.272,140.601 387.938,140.435 387.5,140.5 Z M 377.5,184.5 C 377.573,186.027 376.906,187.027 375.5,187.5C 375.427,185.973 376.094,184.973 377.5,184.5 Z"/></g>
<g><path style="opacity:1" fill="#9d7b66" d="M 356.5,167.5 C 358.463,166.04 360.296,164.373 362,162.5C 362.5,163 363,163.5 363.5,164C 359.409,169.931 357.576,176.431 358,183.5C 364.308,187.28 369.142,192.446 372.5,199C 371.833,200.333 371.167,201.667 370.5,203C 371.53,205.56 372.697,208.06 374,210.5C 374.667,212.167 374.667,213.833 374,215.5C 369.696,223.204 363.196,225.704 354.5,223C 352.438,221.468 351.104,219.468 350.5,217C 352.935,211.296 355.769,205.796 359,200.5C 361.78,194.925 360.78,190.258 356,186.5C 355.546,184.464 354.713,182.63 353.5,181C 354.343,176.431 355.343,171.931 356.5,167.5 Z"/></g>
<g><path style="opacity:1" fill="#805839" d="M 399.5,155.5 C 393.387,165.702 387.221,176.036 381,186.5C 375.076,193.772 372.076,192.772 372,183.5C 376.375,177.022 380.375,170.355 384,163.5C 385.129,161.859 386.629,160.859 388.5,160.5C 384.362,168.831 379.529,176.831 374,184.5C 373.235,186.066 373.402,187.399 374.5,188.5C 375.167,188.5 375.5,188.167 375.5,187.5C 376.906,187.027 377.573,186.027 377.5,184.5C 384.138,175.913 390.305,166.913 396,157.5C 396.816,156.177 397.983,155.511 399.5,155.5 Z M 377.5,184.5 C 377.573,186.027 376.906,187.027 375.5,187.5C 375.427,185.973 376.094,184.973 377.5,184.5 Z"/></g>
<g><path style="opacity:1" fill="#744b2c" d="M 387.5,140.5 C 387.938,140.435 388.272,140.601 388.5,141C 381.113,152.801 374.279,164.967 368,177.5C 366.152,180.041 363.652,181.041 360.5,180.5C 360.547,175.852 361.547,171.518 363.5,167.5C 369.191,160.777 373.857,153.444 377.5,145.5C 374.405,154.929 370.239,163.929 365,172.5C 364.212,174.165 363.878,175.831 364,177.5C 371.171,166.496 377.838,155.162 384,143.5C 385.039,142.29 386.206,141.29 387.5,140.5 Z"/></g>
<g><path style="opacity:0.749" fill="#1d1515" d="M 245.5,174.5 C 246.81,180.288 247.477,186.288 247.5,192.5C 247.5,193.167 247.167,193.5 246.5,193.5C 245.883,189.083 244.883,184.75 243.5,180.5C 244.747,178.677 245.414,176.677 245.5,174.5 Z"/></g>
<g><path style="opacity:1" fill="#6c4425" d="M 408.5,160.5 C 408.628,162.655 408.128,164.655 407,166.5C 400.895,175.721 395.061,185.055 389.5,194.5C 387.738,195.262 386.738,196.596 386.5,198.5C 385.833,198.5 385.5,198.833 385.5,199.5C 384.833,199.5 384.5,199.833 384.5,200.5C 383.305,200.134 382.639,199.301 382.5,198C 383.044,196.415 383.711,194.915 384.5,193.5C 389.522,187.807 394.189,181.807 398.5,175.5C 400.754,169.654 404.087,164.654 408.5,160.5 Z"/></g>
<g><path style="opacity:1" fill="#9b7862" d="M 400.5,197.5 C 399.599,198.29 398.932,199.29 398.5,200.5C 396.178,201.816 393.844,203.149 391.5,204.5C 389.734,204.566 388.734,203.732 388.5,202C 391.33,195.677 395.664,190.844 401.5,187.5C 402.167,185.167 402.833,182.833 403.5,180.5C 405.199,180.34 406.866,180.506 408.5,181C 409.059,181.725 409.392,182.558 409.5,183.5C 408.003,186.495 406.503,189.495 405,192.5C 402.585,193.411 401.085,195.078 400.5,197.5 Z"/></g>
<g><path style="opacity:1" fill="#5f3818" d="M 412.5,186.5 C 401.603,200.615 391.437,215.281 382,230.5C 380.5,232 379,233.5 377.5,235C 372.773,237.285 368.107,239.452 363.5,241.5C 362.5,240.833 361.5,240.167 360.5,239.5C 360.297,237.61 360.963,236.11 362.5,235C 370.299,234.542 376.799,231.375 382,225.5C 388.606,215.067 395.772,205.067 403.5,195.5C 405.724,192.135 408.224,188.801 411,185.5C 411.383,186.056 411.883,186.389 412.5,186.5 Z"/></g>
<g><path style="opacity:1" fill="#c05682" d="M 226.5,171.5 C 227.5,171.5 228.5,171.5 229.5,171.5C 232.833,171.833 236.167,172.167 239.5,172.5C 241.858,172.253 243.858,172.919 245.5,174.5C 245.414,176.677 244.747,178.677 243.5,180.5C 244.883,184.75 245.883,189.083 246.5,193.5C 246.5,195.5 246.5,197.5 246.5,199.5C 245.13,201.25 244.13,203.25 243.5,205.5C 242.752,207.332 241.752,208.999 240.5,210.5C 239.5,210.833 238.833,211.5 238.5,212.5C 213.86,222.251 199.194,213.917 194.5,187.5C 187.999,184.721 181.832,185.387 176,189.5C 176.455,196.47 176.455,203.47 176,210.5C 174.681,214.472 172.847,218.139 170.5,221.5C 165.755,226.038 160.089,228.705 153.5,229.5C 146.593,230.408 140.26,229.075 134.5,225.5C 127.805,218.599 124.305,210.266 124,200.5C 122.444,199.48 121.278,198.147 120.5,196.5C 120.453,194.962 121.12,193.962 122.5,193.5C 125.032,192.404 127.365,191.071 129.5,189.5C 135.621,186.776 141.954,184.609 148.5,183C 157.451,181.395 165.784,182.895 173.5,187.5C 178.644,184.145 184.31,182.812 190.5,183.5C 192.144,183.286 193.644,183.62 195,184.5C 203.046,174.641 213.546,170.307 226.5,171.5 Z"/></g>
<g><path style="opacity:1" fill="#685043" d="M 242.5,198.5 C 242.293,201.241 241.293,203.574 239.5,205.5C 239.631,204.624 239.298,203.957 238.5,203.5C 236.431,208.188 234.431,208.354 232.5,204C 230.527,203.505 228.527,203.338 226.5,203.5C 228.46,201.844 230.46,200.177 232.5,198.5C 235.165,196.165 236.498,193.165 236.5,189.5C 232.782,186.313 228.449,184.146 223.5,183C 217.5,182.333 211.5,182.333 205.5,183C 203.481,183.45 201.648,184.283 200,185.5C 199.502,188.482 199.335,191.482 199.5,194.5C 197.977,190.388 198.311,186.388 200.5,182.5C 212.198,179.793 223.865,179.96 235.5,183C 240.695,186.889 243.029,192.056 242.5,198.5 Z"/></g>
<g><path style="opacity:1" fill="#5f473b" d="M 169.5,191.5 C 170.167,191.833 170.833,192.167 171.5,192.5C 172.268,193.263 172.768,194.263 173,195.5C 174.341,203.329 173.174,210.662 169.5,217.5C 156.839,220.327 144.173,219.994 131.5,216.5C 130.27,214.703 129.604,212.703 129.5,210.5C 130.763,212.807 132.763,214.141 135.5,214.5C 137.816,215.16 140.149,215.827 142.5,216.5C 143.416,216.457 144.083,216.124 144.5,215.5C 149.686,218.886 155.353,219.386 161.5,217C 159.618,216.802 157.952,216.302 156.5,215.5C 158.543,214.421 159.876,212.754 160.5,210.5C 161.738,208.786 162.405,206.786 162.5,204.5C 165.071,207.82 165.071,211.32 162.5,215C 164.937,214.797 167.271,213.963 169.5,212.5C 170.666,210.833 170.666,209.166 169.5,207.5C 169.522,204.72 168.189,202.22 165.5,200C 159.922,196.699 153.922,195.699 147.5,197C 141.063,200.294 135.063,204.128 129.5,208.5C 129.334,204.311 131.001,200.978 134.5,198.5C 145.184,191.551 156.85,189.218 169.5,191.5 Z"/></g>
<g><path style="opacity:1" fill="#22201e" d="M 169.5,207.5 C 168.129,205.133 166.129,203.467 163.5,202.5C 162.702,202.957 162.369,203.624 162.5,204.5C 162.405,206.786 161.738,208.786 160.5,210.5C 159.849,203.344 156.183,201.011 149.5,203.5C 145.189,203.785 144.522,205.451 147.5,208.5C 146.458,213 148.458,215.666 153.5,216.5C 154.584,216.315 155.584,215.982 156.5,215.5C 157.952,216.302 159.618,216.802 161.5,217C 155.353,219.386 149.686,218.886 144.5,215.5C 142.607,211.565 141.941,207.565 142.5,203.5C 138.083,205.903 135.749,209.57 135.5,214.5C 132.763,214.141 130.763,212.807 129.5,210.5C 129.5,210.167 129.5,209.833 129.5,209.5C 129.5,209.167 129.5,208.833 129.5,208.5C 135.063,204.128 141.063,200.294 147.5,197C 153.922,195.699 159.922,196.699 165.5,200C 168.189,202.22 169.522,204.72 169.5,207.5 Z"/></g>
<g><path style="opacity:1" fill="#b0b0b0" d="M 232.5,198.5 C 230.46,200.177 228.46,201.844 226.5,203.5C 225.624,203.631 224.957,203.298 224.5,202.5C 226.671,197.117 225.338,192.95 220.5,190C 224.329,189.242 227.662,190.242 230.5,193C 232.155,194.444 232.822,196.278 232.5,198.5 Z"/></g>
<g><path style="opacity:1" fill="#2c2927" d="M 236.5,189.5 C 236.498,193.165 235.165,196.165 232.5,198.5C 232.822,196.278 232.155,194.444 230.5,193C 227.662,190.242 224.329,189.242 220.5,190C 225.338,192.95 226.671,197.117 224.5,202.5C 224.957,203.298 225.624,203.631 226.5,203.5C 220.939,207.277 214.939,208.61 208.5,207.5C 205.15,204.689 203.65,201.022 204,196.5C 203.283,197.044 202.783,197.711 202.5,198.5C 201.379,196.911 201.546,195.244 203,193.5C 212.418,183.949 222.751,182.949 234,190.5C 234.902,190.257 235.735,189.923 236.5,189.5 Z"/></g>
<g><path style="opacity:1" fill="#131313" d="M 208.5,197.5 C 209.5,197.5 210.5,197.5 211.5,197.5C 211.5,196.167 211.5,194.833 211.5,193.5C 211.62,192.414 212.287,191.747 213.5,191.5C 220.05,191.875 222.55,195.209 221,201.5C 215.357,207.239 210.857,206.405 207.5,199C 207.57,198.235 207.903,197.735 208.5,197.5 Z"/></g>
<g><path style="opacity:1" fill="#c4c4c4" d="M 211.5,193.5 C 211.5,194.833 211.5,196.167 211.5,197.5C 210.5,197.5 209.5,197.5 208.5,197.5C 206.732,193.708 207.732,192.374 211.5,193.5 Z"/></g>
<g><path style="opacity:1" fill="#6d5347" d="M 169.5,191.5 C 156.85,189.218 145.184,191.551 134.5,198.5C 131.001,200.978 129.334,204.311 129.5,208.5C 129.5,208.833 129.5,209.167 129.5,209.5C 128.353,205.354 128.186,201.02 129,196.5C 130.406,193.591 132.572,191.591 135.5,190.5C 145.125,189.088 154.792,188.588 164.5,189C 166.653,189.099 168.319,189.933 169.5,191.5 Z"/></g>
<g><path style="opacity:1" fill="#836b65" d="M 171.5,192.5 C 170.833,192.167 170.167,191.833 169.5,191.5C 168.319,189.933 166.653,189.099 164.5,189C 154.792,188.588 145.125,189.088 135.5,190.5C 141.58,186.98 148.247,185.313 155.5,185.5C 159.256,185.463 162.922,185.963 166.5,187C 169.079,188.076 170.746,189.909 171.5,192.5 Z"/></g>
<g><path style="opacity:1" fill="#564036" d="M 236.5,189.5 C 235.735,189.923 234.902,190.257 234,190.5C 222.751,182.949 212.418,183.949 203,193.5C 201.546,195.244 201.379,196.911 202.5,198.5C 202.5,199.167 202.167,199.5 201.5,199.5C 200.069,198.22 199.402,196.553 199.5,194.5C 199.335,191.482 199.502,188.482 200,185.5C 201.648,184.283 203.481,183.45 205.5,183C 211.5,182.333 217.5,182.333 223.5,183C 228.449,184.146 232.782,186.313 236.5,189.5 Z"/></g>
<g><path style="opacity:1" fill="#776057" d="M 242.5,198.5 C 243.029,192.056 240.695,186.889 235.5,183C 223.865,179.96 212.198,179.793 200.5,182.5C 211.442,173.346 223.608,171.346 237,176.5C 242.018,183.235 243.851,190.568 242.5,198.5 Z"/></g>
<g><path style="opacity:1" fill="#aca8a9" d="M 208.5,207.5 C 207.833,207.5 207.167,207.5 206.5,207.5C 204.05,205.371 202.383,202.704 201.5,199.5C 202.167,199.5 202.5,199.167 202.5,198.5C 202.783,197.711 203.283,197.044 204,196.5C 203.65,201.022 205.15,204.689 208.5,207.5 Z"/></g>
<g><path style="opacity:1" fill="#775032" d="M 261.5,215.5 C 259.833,215.5 258.167,215.5 256.5,215.5C 256.5,216.833 256.5,218.167 256.5,219.5C 258.167,219.5 259.833,219.5 261.5,219.5C 261.167,220.167 260.833,220.833 260.5,221.5C 259.262,220.588 257.928,220.421 256.5,221C 255.447,223.246 254.114,225.246 252.5,227C 252.846,229.214 254.012,230.714 256,231.5C 257.782,229.73 259.282,227.73 260.5,225.5C 260.208,229.066 258.874,232.066 256.5,234.5C 252.527,234.689 250.194,232.856 249.5,229C 250.056,220.827 250.723,212.661 251.5,204.5C 254.765,202.293 256.765,199.293 257.5,195.5C 255.097,195.393 253.264,196.393 252,198.5C 250.438,200.957 249.438,203.624 249,206.5C 247.856,204.291 247.023,201.957 246.5,199.5C 246.5,197.5 246.5,195.5 246.5,193.5C 247.167,193.5 247.5,193.167 247.5,192.5C 251.788,188.505 255.621,189.172 259,194.5C 261.222,201.296 262.055,208.296 261.5,215.5 Z"/></g>
<g><path style="opacity:1" fill="#bbbaba" d="M 149.5,203.5 C 150.598,204.601 150.765,205.934 150,207.5C 149.329,208.252 148.496,208.586 147.5,208.5C 144.522,205.451 145.189,203.785 149.5,203.5 Z"/></g>
<g><path style="opacity:1" fill="#b3b3b3" d="M 169.5,207.5 C 170.666,209.166 170.666,210.833 169.5,212.5C 167.271,213.963 164.937,214.797 162.5,215C 165.071,211.32 165.071,207.82 162.5,204.5C 162.369,203.624 162.702,202.957 163.5,202.5C 166.129,203.467 168.129,205.133 169.5,207.5 Z"/></g>
<g><path style="opacity:1" fill="#0c0c0b" d="M 149.5,203.5 C 156.183,201.011 159.849,203.344 160.5,210.5C 159.876,212.754 158.543,214.421 156.5,215.5C 155.584,215.982 154.584,216.315 153.5,216.5C 148.458,215.666 146.458,213 147.5,208.5C 148.496,208.586 149.329,208.252 150,207.5C 150.765,205.934 150.598,204.601 149.5,203.5 Z"/></g>
<g><path style="opacity:1" fill="#7d6051" d="M 226.5,203.5 C 228.527,203.338 230.527,203.505 232.5,204C 234.431,208.354 236.431,208.188 238.5,203.5C 239.298,203.957 239.631,204.624 239.5,205.5C 238.797,207.716 237.464,209.549 235.5,211C 224.824,216.536 215.157,215.369 206.5,207.5C 207.167,207.5 207.833,207.5 208.5,207.5C 214.939,208.61 220.939,207.277 226.5,203.5 Z"/></g>
<g><path style="opacity:1" fill="#b3b3b3" d="M 144.5,215.5 C 144.083,216.124 143.416,216.457 142.5,216.5C 140.149,215.827 137.816,215.16 135.5,214.5C 135.749,209.57 138.083,205.903 142.5,203.5C 141.941,207.565 142.607,211.565 144.5,215.5 Z"/></g>
<g><path style="opacity:1" fill="#593317" d="M 256.5,234.5 C 253.772,235.205 250.939,235.872 248,236.5C 246.934,240.637 245.767,244.637 244.5,248.5C 244.688,246.897 244.188,245.563 243,244.5C 240.297,250.52 237.631,256.52 235,262.5C 233.723,264.747 232.223,266.747 230.5,268.5C 232.914,261.211 236.081,254.211 240,247.5C 243.174,237.291 245.008,226.791 245.5,216C 245.488,212.098 244.821,208.598 243.5,205.5C 244.13,203.25 245.13,201.25 246.5,199.5C 247.023,201.957 247.856,204.291 249,206.5C 249.438,203.624 250.438,200.957 252,198.5C 253.264,196.393 255.097,195.393 257.5,195.5C 256.765,199.293 254.765,202.293 251.5,204.5C 250.723,212.661 250.056,220.827 249.5,229C 250.194,232.856 252.527,234.689 256.5,234.5 Z"/></g>
<g><path style="opacity:1" fill="#8f6a51" d="M 412.5,186.5 C 411.883,186.389 411.383,186.056 411,185.5C 408.224,188.801 405.724,192.135 403.5,195.5C 402.5,196.167 401.5,196.833 400.5,197.5C 401.085,195.078 402.585,193.411 405,192.5C 406.503,189.495 408.003,186.495 409.5,183.5C 409.392,182.558 409.059,181.725 408.5,181C 406.866,180.506 405.199,180.34 403.5,180.5C 402.833,182.833 402.167,185.167 401.5,187.5C 395.664,190.844 391.33,195.677 388.5,202C 388.734,203.732 389.734,204.566 391.5,204.5C 393.844,203.149 396.178,201.816 398.5,200.5C 390.304,210.194 382.304,220.027 374.5,230C 369.279,231.232 363.946,231.899 358.5,232C 356.176,233.825 355.843,235.991 357.5,238.5C 354.255,238.03 351.421,236.697 349,234.5C 348,235.167 347,235.833 346,236.5C 345.833,239.167 345.667,241.833 345.5,244.5C 347.497,287.636 350.997,330.636 356,373.5C 357.478,376.993 359.478,377.326 362,374.5C 364.353,366.515 365.519,358.348 365.5,350C 363.827,314.417 361.16,278.917 357.5,243.5C 364.083,279.469 368.083,315.969 369.5,353C 369.59,362.456 368.09,371.623 365,380.5C 359.867,384.384 355.867,383.384 353,377.5C 347.154,333.519 343.654,289.352 342.5,245C 342.346,239.547 343.012,234.213 344.5,229C 343.095,224.437 342.095,219.77 341.5,215C 338.112,212.728 335.279,209.895 333,206.5C 332.389,201.504 331.889,196.504 331.5,191.5C 333.675,197.162 336.008,202.829 338.5,208.5C 340.289,209.877 342.289,210.877 344.5,211.5C 345.432,217.328 346.932,222.995 349,228.5C 349.893,229.081 350.893,229.415 352,229.5C 358.461,228.253 364.961,227.253 371.5,226.5C 376.855,219.755 382.188,213.088 387.5,206.5C 384.948,204.631 382.448,202.631 380,200.5C 379.833,199.833 379.667,199.167 379.5,198.5C 380.876,196.458 382.542,194.791 384.5,193.5C 383.711,194.915 383.044,196.415 382.5,198C 382.639,199.301 383.305,200.134 384.5,200.5C 385.167,200.5 385.5,200.167 385.5,199.5C 386.167,199.5 386.5,199.167 386.5,198.5C 388.262,197.738 389.262,196.404 389.5,194.5C 393.618,188.88 398.285,183.713 403.5,179C 409.287,178.22 412.287,180.72 412.5,186.5 Z M 389.5,194.5 C 389.262,196.404 388.262,197.738 386.5,198.5C 386.738,196.596 387.738,195.262 389.5,194.5 Z"/></g>
<g><path style="opacity:1" fill="#5c371c" d="M 114.5,170.5 C 114.334,177.841 114.5,185.174 115,192.5C 115.26,194.618 116.26,196.284 118,197.5C 118.802,203.542 120.302,209.375 122.5,215C 121.833,216.667 121.167,218.333 120.5,220C 122.672,226.517 124.839,233.017 127,239.5C 131.196,243.219 133.863,247.885 135,253.5C 141.429,261.933 148.596,269.766 156.5,277C 163.084,280.566 169.418,284.399 175.5,288.5C 170.589,287.884 165.923,286.384 161.5,284C 151.532,277.027 141.865,269.694 132.5,262C 127.362,254.855 122.196,247.688 117,240.5C 117.761,244.359 118.928,248.193 120.5,252C 120.478,254.183 119.478,255.683 117.5,256.5C 118.111,253.039 116.944,250.372 114,248.5C 111.866,242.898 109.199,237.565 106,232.5C 103.025,228.856 99.192,227.023 94.5,227C 92.0869,224.357 92.9202,223.191 97,223.5C 99.4418,223.482 101.608,224.149 103.5,225.5C 105.044,225.703 106.378,226.37 107.5,227.5C 108.647,225.235 108.814,222.902 108,220.5C 106.698,219.915 105.531,219.249 104.5,218.5C 105.268,217.737 105.768,216.737 106,215.5C 106.941,217.061 108.108,218.395 109.5,219.5C 109.833,218.833 110.167,218.167 110.5,217.5C 111.293,207.141 112.293,196.808 113.5,186.5C 113.179,180.974 113.512,175.64 114.5,170.5 Z"/></g>
<g><path style="opacity:1" fill="#835b3e" d="M 190.5,195.5 C 192.413,198.335 193.413,201.668 193.5,205.5C 198.77,210.103 203.77,215.103 208.5,220.5C 207.504,220.586 206.671,220.252 206,219.5C 205.667,222.833 205.333,226.167 205,229.5C 203.512,231.16 201.679,232.16 199.5,232.5C 203.204,230.241 204.704,226.908 204,222.5C 202.332,226.165 199.499,228.332 195.5,229C 190.511,229.499 185.511,229.666 180.5,229.5C 180.392,227.217 179.559,225.217 178,223.5C 177.006,232.004 180.839,235.671 189.5,234.5C 180.877,237.36 175.877,234.36 174.5,225.5C 175.739,222.411 177.239,219.411 179,216.5C 179.499,212.179 179.666,207.846 179.5,203.5C 180.479,206.625 180.813,209.958 180.5,213.5C 184.294,213.519 187.794,212.519 191,210.5C 191.498,205.481 191.332,200.481 190.5,195.5 Z"/></g>
<g><path style="opacity:1" fill="#bebbb7" d="M 261.5,215.5 C 261.5,216.833 261.5,218.167 261.5,219.5C 259.833,219.5 258.167,219.5 256.5,219.5C 256.5,218.167 256.5,216.833 256.5,215.5C 258.167,215.5 259.833,215.5 261.5,215.5 Z"/></g>
<g><path style="opacity:1" fill="#b4b1ae" d="M 260.5,221.5 C 261.405,222.702 261.405,224.036 260.5,225.5C 259.282,227.73 257.782,229.73 256,231.5C 254.012,230.714 252.846,229.214 252.5,227C 254.114,225.246 255.447,223.246 256.5,221C 257.928,220.421 259.262,220.588 260.5,221.5 Z"/></g>
<g><path style="opacity:1" fill="#8d6549" d="M 100.5,216.5 C 102.062,216.733 103.395,217.4 104.5,218.5C 105.531,219.249 106.698,219.915 108,220.5C 108.814,222.902 108.647,225.235 107.5,227.5C 106.378,226.37 105.044,225.703 103.5,225.5C 103.047,224.542 102.381,223.708 101.5,223C 98.2418,222.253 95.2418,221.086 92.5,219.5C 94.5027,217.018 97.1694,216.018 100.5,216.5 Z"/></g>
<g><path style="opacity:1" fill="#78533c" d="M 238.5,212.5 C 237.921,214.867 236.588,216.7 234.5,218C 231.334,219.557 228,220.39 224.5,220.5C 224.5,221.5 224.5,222.5 224.5,223.5C 226.833,223.5 229.167,223.5 231.5,223.5C 226.684,224.65 221.684,224.816 216.5,224C 213.408,223.617 210.742,222.45 208.5,220.5C 203.77,215.103 198.77,210.103 193.5,205.5C 193.413,201.668 192.413,198.335 190.5,195.5C 182.865,192.808 179.198,195.474 179.5,203.5C 179.666,207.846 179.499,212.179 179,216.5C 177.239,219.411 175.739,222.411 174.5,225.5C 171.623,230.132 167.623,233.632 162.5,236C 154.245,238.418 145.912,238.918 137.5,237.5C 137.158,236.662 136.492,236.328 135.5,236.5C 135.5,235.833 135.5,235.167 135.5,234.5C 140.297,235.847 141.63,235.847 139.5,234.5C 139.649,233.448 139.483,232.448 139,231.5C 136.873,229.886 135.373,227.886 134.5,225.5C 140.26,229.075 146.593,230.408 153.5,229.5C 150.972,230.166 148.306,230.832 145.5,231.5C 154.253,233.082 162.087,231.082 169,225.5C 169.465,224.069 170.299,222.903 171.5,222C 171.272,221.601 170.938,221.435 170.5,221.5C 172.847,218.139 174.681,214.472 176,210.5C 176.455,203.47 176.455,196.47 176,189.5C 181.832,185.387 187.999,184.721 194.5,187.5C 199.194,213.917 213.86,222.251 238.5,212.5 Z"/></g>
<g><path style="opacity:1" fill="#9a7761" d="M 190.5,195.5 C 191.332,200.481 191.498,205.481 191,210.5C 187.794,212.519 184.294,213.519 180.5,213.5C 180.813,209.958 180.479,206.625 179.5,203.5C 179.198,195.474 182.865,192.808 190.5,195.5 Z"/></g>
<g><path style="opacity:1" fill="#754f32" d="M 319.5,165.5 C 321.698,165.409 322.031,166.075 320.5,167.5C 319.402,168.601 319.235,169.934 320,171.5C 321.615,172.386 323.115,173.386 324.5,174.5C 325.353,176.893 327.019,178.226 329.5,178.5C 329.738,188.545 330.571,198.545 332,208.5C 333.281,211.447 335.281,213.781 338,215.5C 338.079,219.358 338.746,223.024 340,226.5C 340.011,265.49 341.844,304.323 345.5,343C 348.546,353.242 349.879,363.742 349.5,374.5C 348.5,374.5 347.5,374.5 346.5,374.5C 346.371,372.784 346.038,371.117 345.5,369.5C 346.097,361.689 344.597,354.022 341,346.5C 339.301,334.875 337.968,323.209 337,311.5C 336.667,283.5 336.333,255.5 336,227.5C 334.903,225.947 333.57,224.614 332,223.5C 329.279,209.8 327.779,195.966 327.5,182C 327.167,181.167 326.833,180.333 326.5,179.5C 322.816,177.136 319.482,174.469 316.5,171.5C 315.957,171.44 315.624,171.107 315.5,170.5C 316.154,168.142 317.487,166.475 319.5,165.5 Z"/></g>
<g><path style="opacity:1" fill="#876044" d="M 110.5,250.5 C 109.178,250.33 108.011,250.663 107,251.5C 106.888,248.553 105.388,247.22 102.5,247.5C 102.616,244.09 100.95,242.756 97.5,243.5C 96.7904,246.86 98.1238,248.693 101.5,249C 100.663,250.011 100.33,251.178 100.5,252.5C 98.6736,250.853 97.3403,248.853 96.5,246.5C 94.6825,241.559 93.3492,236.559 92.5,231.5C 95.6516,230.959 98.1516,231.959 100,234.5C 101.393,238.286 103.059,241.952 105,245.5C 107.328,246.664 109.162,248.33 110.5,250.5 Z"/></g>
<g><path style="opacity:1" fill="#764e30" d="M 92.5,219.5 C 95.2418,221.086 98.2418,222.253 101.5,223C 102.381,223.708 103.047,224.542 103.5,225.5C 101.608,224.149 99.4418,223.482 97,223.5C 92.9202,223.191 92.0869,224.357 94.5,227C 99.192,227.023 103.025,228.856 106,232.5C 109.199,237.565 111.866,242.898 114,248.5C 116.944,250.372 118.111,253.039 117.5,256.5C 116.038,257.458 114.705,258.624 113.5,260C 111.866,260.494 110.199,260.66 108.5,260.5C 104.833,258.833 102.167,256.167 100.5,252.5C 102.339,253.752 104.172,253.752 106,252.5C 106.494,254.134 106.66,255.801 106.5,257.5C 111.675,258.493 113.509,256.493 112,251.5C 111.617,250.944 111.117,250.611 110.5,250.5C 109.162,248.33 107.328,246.664 105,245.5C 103.059,241.952 101.393,238.286 100,234.5C 98.1516,231.959 95.6516,230.959 92.5,231.5C 93.3492,236.559 94.6825,241.559 96.5,246.5C 89.5237,238.28 88.1903,229.28 92.5,219.5 Z"/></g>
<g><path style="opacity:1" fill="#5d381a" d="M 316.5,171.5 C 319.482,174.469 322.816,177.136 326.5,179.5C 326.833,180.333 327.167,181.167 327.5,182C 327.779,195.966 329.279,209.8 332,223.5C 333.57,224.614 334.903,225.947 336,227.5C 336.333,255.5 336.667,283.5 337,311.5C 337.968,323.209 339.301,334.875 341,346.5C 344.597,354.022 346.097,361.689 345.5,369.5C 345.5,368.833 345.167,368.5 344.5,368.5C 342.519,357.223 339.519,346.223 335.5,335.5C 335.001,330.508 334.501,325.508 334,320.5C 333.667,292.833 333.333,265.167 333,237.5C 326.004,221.858 323.337,205.525 325,188.5C 322.795,182.478 319.962,176.811 316.5,171.5 Z"/></g>
<g><path style="opacity:1" fill="#aea9a5" d="M 110.5,250.5 C 111.117,250.611 111.617,250.944 112,251.5C 113.509,256.493 111.675,258.493 106.5,257.5C 106.66,255.801 106.494,254.134 106,252.5C 104.172,253.752 102.339,253.752 100.5,252.5C 100.33,251.178 100.663,250.011 101.5,249C 98.1238,248.693 96.7904,246.86 97.5,243.5C 100.95,242.756 102.616,244.09 102.5,247.5C 105.388,247.22 106.888,248.553 107,251.5C 108.011,250.663 109.178,250.33 110.5,250.5 Z"/></g>
<g><path style="opacity:1" fill="#845d41" d="M 377.5,145.5 C 373.857,153.444 369.191,160.777 363.5,167.5C 363.995,165.518 364.495,163.518 365,161.5C 368.261,158.979 369.927,155.645 370,151.5C 373.818,148.747 374.985,145.247 373.5,141C 371.866,140.506 370.199,140.34 368.5,140.5C 364.506,149.472 360.506,158.472 356.5,167.5C 354.609,172.003 352.276,176.336 349.5,180.5C 348.731,183.115 348.397,185.781 348.5,188.5C 346.54,187.862 344.707,187.862 343,188.5C 341.095,187.842 339.595,186.675 338.5,185C 332.506,183.159 330.173,185.326 331.5,191.5C 331.889,196.504 332.389,201.504 333,206.5C 335.279,209.895 338.112,212.728 341.5,215C 342.095,219.77 343.095,224.437 344.5,229C 343.012,234.213 342.346,239.547 342.5,245C 343.654,289.352 347.154,333.519 353,377.5C 355.867,383.384 359.867,384.384 365,380.5C 368.09,371.623 369.59,362.456 369.5,353C 368.083,315.969 364.083,279.469 357.5,243.5C 357.5,241.833 357.5,240.167 357.5,238.5C 355.843,235.991 356.176,233.825 358.5,232C 363.946,231.899 369.279,231.232 374.5,230C 382.304,220.027 390.304,210.194 398.5,200.5C 398.932,199.29 399.599,198.29 400.5,197.5C 401.5,196.833 402.5,196.167 403.5,195.5C 395.772,205.067 388.606,215.067 382,225.5C 376.799,231.375 370.299,234.542 362.5,235C 360.963,236.11 360.297,237.61 360.5,239.5C 362.225,243.6 363.392,247.934 364,252.5C 365.178,269.926 367.178,287.259 370,304.5C 371.139,321.668 372.306,338.835 373.5,356C 373.29,364.323 372.123,372.49 370,380.5C 369.215,382.286 368.049,383.786 366.5,385C 362.833,385.667 359.167,385.667 355.5,385C 351.979,383.326 348.313,382.16 344.5,381.5C 333.689,377.206 324.689,370.372 317.5,361C 312.786,360.617 309.453,358.283 307.5,354C 300.945,349.906 294.945,345.406 289.5,340.5C 290.026,338.77 291.026,337.436 292.5,336.5C 294.144,341.478 297.478,344.811 302.5,346.5C 313.756,356.921 325.756,366.421 338.5,375C 340.813,375.662 343.146,376.162 345.5,376.5C 345.167,373.833 344.833,371.167 344.5,368.5C 345.167,368.5 345.5,368.833 345.5,369.5C 346.038,371.117 346.371,372.784 346.5,374.5C 347.5,374.5 348.5,374.5 349.5,374.5C 349.879,363.742 348.546,353.242 345.5,343C 341.844,304.323 340.011,265.49 340,226.5C 338.746,223.024 338.079,219.358 338,215.5C 335.281,213.781 333.281,211.447 332,208.5C 330.571,198.545 329.738,188.545 329.5,178.5C 327.019,178.226 325.353,176.893 324.5,174.5C 326.571,176.1 328.905,176.6 331.5,176C 332.576,174.274 332.743,172.441 332,170.5C 328.763,166.952 324.929,165.952 320.5,167.5C 322.031,166.075 321.698,165.409 319.5,165.5C 326.035,162.725 331.535,164.392 336,170.5C 337.399,173.363 338.399,176.363 339,179.5C 341.28,184.799 343.613,184.799 346,179.5C 352.333,167.167 358.667,154.833 365,142.5C 370.348,136.867 374.848,137.534 378.5,144.5C 378.376,145.107 378.043,145.44 377.5,145.5 Z"/></g>
<g><path style="opacity:1" fill="#98755e" d="M 357.5,238.5 C 357.5,240.167 357.5,241.833 357.5,243.5C 361.16,278.917 363.827,314.417 365.5,350C 365.519,358.348 364.353,366.515 362,374.5C 359.478,377.326 357.478,376.993 356,373.5C 350.997,330.636 347.497,287.636 345.5,244.5C 345.667,241.833 345.833,239.167 346,236.5C 347,235.833 348,235.167 349,234.5C 351.421,236.697 354.255,238.03 357.5,238.5 Z"/></g>
<g><path style="opacity:1" fill="#4d3a81" d="M 309.5,307.5 C 309.694,309.912 311.027,310.912 313.5,310.5C 313.634,312.292 313.301,313.958 312.5,315.5C 311.833,315.833 311.167,316.167 310.5,316.5C 310.714,314.856 310.38,313.356 309.5,312C 307.797,311.255 306.13,310.421 304.5,309.5C 303.136,310.043 301.803,310.21 300.5,310C 301.641,309.259 301.641,308.425 300.5,307.5C 288.254,296.365 274.588,287.199 259.5,280C 257.26,279.023 254.927,278.523 252.5,278.5C 252.5,281.833 252.5,285.167 252.5,288.5C 251.662,288.842 251.328,289.508 251.5,290.5C 250.831,285.604 249.998,280.604 249,275.5C 244.31,279.342 239.31,282.675 234,285.5C 233.249,289.266 231.249,292.266 228,294.5C 228.047,303.642 227.047,312.642 225,321.5C 226.259,313.594 226.592,305.594 226,297.5C 223.444,298.219 222.277,299.886 222.5,302.5C 221.5,302.5 220.5,302.5 219.5,302.5C 219.5,303.5 219.5,304.5 219.5,305.5C 218.041,305.433 216.708,305.766 215.5,306.5C 215.5,305.833 215.5,305.167 215.5,304.5C 216.167,304.5 216.5,304.167 216.5,303.5C 218.1,302.748 219.6,301.748 221,300.5C 227.699,291.315 234.866,282.648 242.5,274.5C 247.124,274.366 251.79,273.866 256.5,273C 258.876,275.68 261.876,277.013 265.5,277C 267.976,280.41 271.31,282.576 275.5,283.5C 277.707,286.765 280.707,288.765 284.5,289.5C 284.872,293.043 286.872,295.21 290.5,296C 293.117,300.16 296.784,303.16 301.5,305C 302.167,306 302.833,307 303.5,308C 305.425,307.865 307.425,307.698 309.5,307.5 Z"/></g>
<g><path style="opacity:1" fill="#402b76" d="M 309.5,307.5 C 307.425,307.698 305.425,307.865 303.5,308C 302.833,307 302.167,306 301.5,305C 296.784,303.16 293.117,300.16 290.5,296C 286.872,295.21 284.872,293.043 284.5,289.5C 280.707,288.765 277.707,286.765 275.5,283.5C 271.31,282.576 267.976,280.41 265.5,277C 261.876,277.013 258.876,275.68 256.5,273C 251.79,273.866 247.124,274.366 242.5,274.5C 241.833,274.5 241.167,274.5 240.5,274.5C 243.792,272.364 247.458,271.031 251.5,270.5C 262.181,272.841 271.848,277.341 280.5,284C 289.798,292.483 299.465,300.316 309.5,307.5 Z"/></g>
<g><path style="opacity:1" fill="#1f123c" d="M 240.5,274.5 C 241.167,274.5 241.833,274.5 242.5,274.5C 234.866,282.648 227.699,291.315 221,300.5C 219.6,301.748 218.1,302.748 216.5,303.5C 216.439,298.122 216.272,292.788 216,287.5C 219.271,284.784 222.771,282.451 226.5,280.5C 231.167,278.5 235.833,276.5 240.5,274.5 Z"/></g>
<g><path style="opacity:1" fill="#6a4327" d="M 116.5,164.5 C 116.618,170.591 117.451,176.591 119,182.5C 121.064,185.86 122.231,189.526 122.5,193.5C 121.12,193.962 120.453,194.962 120.5,196.5C 121.278,198.147 122.444,199.48 124,200.5C 124.305,210.266 127.805,218.599 134.5,225.5C 135.373,227.886 136.873,229.886 139,231.5C 139.483,232.448 139.649,233.448 139.5,234.5C 141.63,235.847 140.297,235.847 135.5,234.5C 133.629,234.141 132.129,233.141 131,231.5C 129.933,227.099 128.599,222.765 127,218.5C 126.161,223.921 126.494,229.254 128,234.5C 132.549,243.044 137.882,251.044 144,258.5C 144.148,262.647 145.982,265.814 149.5,268C 152.833,270.667 156.167,273.333 159.5,276C 167.932,281.437 176.598,286.437 185.5,291C 191.167,291.667 196.833,291.667 202.5,291C 210.601,285.897 217.768,279.73 224,272.5C 227.394,268.102 230.394,263.435 233,258.5C 236.498,246.672 239.998,234.839 243.5,223C 243.167,221.833 242.833,220.667 242.5,219.5C 230.159,223.721 229.493,222.388 240.5,215.5C 241.788,213.701 241.788,212.035 240.5,210.5C 241.752,208.999 242.752,207.332 243.5,205.5C 244.821,208.598 245.488,212.098 245.5,216C 245.008,226.791 243.174,237.291 240,247.5C 236.081,254.211 232.914,261.211 230.5,268.5C 226.096,274.083 221.429,279.583 216.5,285C 211.374,287.482 206.374,290.149 201.5,293C 193.699,293.895 186.033,293.228 178.5,291C 177.429,290.148 176.429,289.315 175.5,288.5C 169.418,284.399 163.084,280.566 156.5,277C 148.596,269.766 141.429,261.933 135,253.5C 133.863,247.885 131.196,243.219 127,239.5C 124.839,233.017 122.672,226.517 120.5,220C 121.167,218.333 121.833,216.667 122.5,215C 120.302,209.375 118.802,203.542 118,197.5C 116.26,196.284 115.26,194.618 115,192.5C 114.5,185.174 114.334,177.841 114.5,170.5C 114.595,168.214 115.262,166.214 116.5,164.5 Z"/></g>
<g><path style="opacity:1" fill="#7e6353" d="M 131.5,216.5 C 144.173,219.994 156.839,220.327 169.5,217.5C 167.664,220.168 165.331,222.334 162.5,224C 155.763,225.895 148.929,227.062 142,227.5C 137.678,224.676 134.178,221.01 131.5,216.5 Z"/></g>
<g><path style="opacity:1" fill="#795135" d="M 240.5,210.5 C 241.788,212.035 241.788,213.701 240.5,215.5C 229.493,222.388 230.159,223.721 242.5,219.5C 242.833,220.667 243.167,221.833 243.5,223C 239.998,234.839 236.498,246.672 233,258.5C 230.394,263.435 227.394,268.102 224,272.5C 217.768,279.73 210.601,285.897 202.5,291C 196.833,291.667 191.167,291.667 185.5,291C 176.598,286.437 167.932,281.437 159.5,276C 156.167,273.333 152.833,270.667 149.5,268C 145.982,265.814 144.148,262.647 144,258.5C 137.882,251.044 132.549,243.044 128,234.5C 126.494,229.254 126.161,223.921 127,218.5C 128.599,222.765 129.933,227.099 131,231.5C 132.129,233.141 133.629,234.141 135.5,234.5C 135.5,235.167 135.5,235.833 135.5,236.5C 134.903,236.735 134.57,237.235 134.5,238C 137.437,244.705 141.271,250.872 146,256.5C 146.333,258.167 146.667,259.833 147,261.5C 150.672,264.342 154.172,267.342 157.5,270.5C 167.915,276.705 178.915,281.872 190.5,286C 200.129,287.936 206.962,284.436 211,275.5C 213.371,272.794 216.037,270.461 219,268.5C 223.968,260.187 228.968,251.854 234,243.5C 235.667,236.308 238.167,229.475 241.5,223C 241.333,222.5 241.167,222 241,221.5C 239.67,222.582 238.17,223.249 236.5,223.5C 234.833,223.5 233.167,223.5 231.5,223.5C 229.167,223.5 226.833,223.5 224.5,223.5C 224.5,222.5 224.5,221.5 224.5,220.5C 228,220.39 231.334,219.557 234.5,218C 236.588,216.7 237.921,214.867 238.5,212.5C 238.833,211.5 239.5,210.833 240.5,210.5 Z"/></g>
<g><path style="opacity:1" fill="#825c40" d="M 135.5,236.5 C 136.492,236.328 137.158,236.662 137.5,237.5C 136.903,237.735 136.57,238.235 136.5,239C 143.52,253.685 154.187,264.685 168.5,272C 169.5,272.667 170.5,272.667 171.5,272C 172.576,270.274 172.743,268.441 172,266.5C 168.727,264.391 166.894,261.391 166.5,257.5C 176.679,269.957 189.012,272.457 203.5,265C 205.333,263.167 207.167,261.333 209,259.5C 211.449,255.598 213.616,251.598 215.5,247.5C 213.93,252.39 213.43,257.39 214,262.5C 214.739,263.574 215.739,264.241 217,264.5C 218.944,263.561 220.611,262.227 222,260.5C 228.817,249.535 233.984,237.868 237.5,225.5C 237.137,224.817 236.804,224.15 236.5,223.5C 238.17,223.249 239.67,222.582 241,221.5C 241.167,222 241.333,222.5 241.5,223C 238.167,229.475 235.667,236.308 234,243.5C 228.968,251.854 223.968,260.187 219,268.5C 216.037,270.461 213.371,272.794 211,275.5C 206.962,284.436 200.129,287.936 190.5,286C 178.915,281.872 167.915,276.705 157.5,270.5C 154.172,267.342 150.672,264.342 147,261.5C 146.667,259.833 146.333,258.167 146,256.5C 141.271,250.872 137.437,244.705 134.5,238C 134.57,237.235 134.903,236.735 135.5,236.5 Z"/></g>
<g><path style="opacity:1" fill="#8d674e" d="M 208.5,220.5 C 210.742,222.45 213.408,223.617 216.5,224C 221.684,224.816 226.684,224.65 231.5,223.5C 233.167,223.5 234.833,223.5 236.5,223.5C 236.804,224.15 237.137,224.817 237.5,225.5C 233.984,237.868 228.817,249.535 222,260.5C 220.611,262.227 218.944,263.561 217,264.5C 215.739,264.241 214.739,263.574 214,262.5C 213.43,257.39 213.93,252.39 215.5,247.5C 215.5,246.5 215.5,245.5 215.5,244.5C 215.833,242.5 216.167,240.5 216.5,238.5C 215.306,237.223 213.64,236.556 211.5,236.5C 197.582,237.64 183.915,240.14 170.5,244C 168.5,245 166.5,246 164.5,247C 163.226,247.977 163.226,248.811 164.5,249.5C 164.5,250.167 164.5,250.833 164.5,251.5C 165.167,253.5 165.833,255.5 166.5,257.5C 166.894,261.391 168.727,264.391 172,266.5C 172.743,268.441 172.576,270.274 171.5,272C 170.5,272.667 169.5,272.667 168.5,272C 154.187,264.685 143.52,253.685 136.5,239C 136.57,238.235 136.903,237.735 137.5,237.5C 145.912,238.918 154.245,238.418 162.5,236C 167.623,233.632 171.623,230.132 174.5,225.5C 175.877,234.36 180.877,237.36 189.5,234.5C 192.969,234.453 196.302,233.787 199.5,232.5C 201.679,232.16 203.512,231.16 205,229.5C 205.333,226.167 205.667,222.833 206,219.5C 206.671,220.252 207.504,220.586 208.5,220.5 Z"/></g>
<g><path style="opacity:1" fill="#878581" d="M 216.5,238.5 C 216.167,240.5 215.833,242.5 215.5,244.5C 214.833,244.833 214.167,245.167 213.5,245.5C 204.724,246.185 196.057,247.518 187.5,249.5C 185.801,249.66 184.134,249.494 182.5,249C 184.491,248.626 186.158,247.793 187.5,246.5C 197.289,244.237 206.955,241.57 216.5,238.5 Z"/></g>
<g><path style="opacity:1" fill="#673b2c" d="M 216.5,238.5 C 206.955,241.57 197.289,244.237 187.5,246.5C 179.701,247.56 172.035,248.56 164.5,249.5C 163.226,248.811 163.226,247.977 164.5,247C 166.5,246 168.5,245 170.5,244C 183.915,240.14 197.582,237.64 211.5,236.5C 213.64,236.556 215.306,237.223 216.5,238.5 Z"/></g>
<g><path style="opacity:1" fill="#573315" d="M 199.5,232.5 C 196.302,233.787 192.969,234.453 189.5,234.5C 180.839,235.671 177.006,232.004 178,223.5C 179.559,225.217 180.392,227.217 180.5,229.5C 185.511,229.666 190.511,229.499 195.5,229C 199.499,228.332 202.332,226.165 204,222.5C 204.704,226.908 203.204,230.241 199.5,232.5 Z"/></g>
<g><path style="opacity:1" fill="#93705c" d="M 170.5,221.5 C 170.938,221.435 171.272,221.601 171.5,222C 170.299,222.903 169.465,224.069 169,225.5C 162.087,231.082 154.253,233.082 145.5,231.5C 148.306,230.832 150.972,230.166 153.5,229.5C 160.089,228.705 165.755,226.038 170.5,221.5 Z"/></g>
<g><path style="opacity:1" fill="#997660" d="M 188.5,218.5 C 192.257,218.071 195.757,218.737 199,220.5C 199.092,224.089 197.259,226.256 193.5,227C 189.848,227.499 186.182,227.665 182.5,227.5C 182.884,223.445 184.884,220.445 188.5,218.5 Z"/></g>
<g><path style="opacity:1" fill="#5a488f" d="M 251.5,290.5 C 251.5,293.833 251.5,297.167 251.5,300.5C 251.665,304.182 251.499,307.848 251,311.5C 246.257,322.65 241.257,333.65 236,344.5C 235.25,354 233.584,363.334 231,372.5C 225.44,388.521 219.107,404.187 212,419.5C 209.347,423.828 205.847,424.661 201.5,422C 193.277,414.07 186.11,405.237 180,395.5C 176.016,386.529 171.849,377.696 167.5,369C 164.155,366.909 160.488,365.576 156.5,365C 150.118,364.753 143.785,364.253 137.5,363.5C 130.057,356.228 122.39,349.061 114.5,342C 119.675,337.657 124.675,333.157 129.5,328.5C 133.028,327.894 136.361,326.728 139.5,325C 137.804,323.824 136.138,322.657 134.5,321.5C 134.351,320.448 134.517,319.448 135,318.5C 138.246,317.087 141.08,315.087 143.5,312.5C 143.414,313.496 143.748,314.329 144.5,315C 148.22,316.86 151.886,318.693 155.5,320.5C 157.635,322.071 159.968,323.404 162.5,324.5C 173.411,330.31 185.078,332.81 197.5,332C 208.003,329.319 213.67,322.486 214.5,311.5C 215.451,310.081 215.784,308.415 215.5,306.5C 216.708,305.766 218.041,305.433 219.5,305.5C 219.5,304.5 219.5,303.5 219.5,302.5C 220.5,302.5 221.5,302.5 222.5,302.5C 222.277,299.886 223.444,298.219 226,297.5C 226.592,305.594 226.259,313.594 225,321.5C 227.047,312.642 228.047,303.642 228,294.5C 231.249,292.266 233.249,289.266 234,285.5C 239.31,282.675 244.31,279.342 249,275.5C 249.998,280.604 250.831,285.604 251.5,290.5 Z"/></g>
<g><path style="opacity:1" fill="#4d2909" d="M 175.5,288.5 C 176.429,289.315 177.429,290.148 178.5,291C 186.033,293.228 193.699,293.895 201.5,293C 206.374,290.149 211.374,287.482 216.5,285C 221.429,279.583 226.096,274.083 230.5,268.5C 232.223,266.747 233.723,264.747 235,262.5C 237.631,256.52 240.297,250.52 243,244.5C 244.188,245.563 244.688,246.897 244.5,248.5C 241.598,260.976 235.598,271.643 226.5,280.5C 222.771,282.451 219.271,284.784 216,287.5C 216.272,292.788 216.439,298.122 216.5,303.5C 216.5,304.167 216.167,304.5 215.5,304.5C 212.538,305.65 209.871,307.317 207.5,309.5C 200.858,310.664 194.192,310.831 187.5,310C 181.088,308.297 174.755,306.297 168.5,304C 163.898,302.878 159.232,302.378 154.5,302.5C 156.424,297.262 156.757,291.928 155.5,286.5C 143.536,279.711 132.87,271.211 123.5,261C 122.127,260.125 120.627,259.625 119,259.5C 116.54,260.313 114.04,260.98 111.5,261.5C 110.274,261.48 109.274,261.147 108.5,260.5C 110.199,260.66 111.866,260.494 113.5,260C 114.705,258.624 116.038,257.458 117.5,256.5C 119.478,255.683 120.478,254.183 120.5,252C 118.928,248.193 117.761,244.359 117,240.5C 122.196,247.688 127.362,254.855 132.5,262C 141.865,269.694 151.532,277.027 161.5,284C 165.923,286.384 170.589,287.884 175.5,288.5 Z"/></g>
<g><path style="opacity:1" fill="#6b3e2e" d="M 215.5,244.5 C 215.5,245.5 215.5,246.5 215.5,247.5C 213.616,251.598 211.449,255.598 209,259.5C 207.167,261.333 205.333,263.167 203.5,265C 189.012,272.457 176.679,269.957 166.5,257.5C 165.833,255.5 165.167,253.5 164.5,251.5C 165.833,252.5 167.167,253.5 168.5,254.5C 170.113,255.692 171.78,256.692 173.5,257.5C 172.761,257.369 172.094,257.536 171.5,258C 180.569,264.979 190.569,266.312 201.5,262C 204.387,259.113 207.221,256.279 210,253.5C 210.528,252.184 210.028,251.517 208.5,251.5C 208.5,251.167 208.5,250.833 208.5,250.5C 210.5,249.167 212.167,247.5 213.5,245.5C 214.167,245.167 214.833,244.833 215.5,244.5 Z"/></g>
<g><path style="opacity:1" fill="#865248" d="M 208.5,251.5 C 210.028,251.517 210.528,252.184 210,253.5C 207.221,256.279 204.387,259.113 201.5,262C 190.569,266.312 180.569,264.979 171.5,258C 172.094,257.536 172.761,257.369 173.5,257.5C 173.833,257.5 174.167,257.5 174.5,257.5C 176.137,258.38 177.97,259.046 180,259.5C 181.651,258.258 183.485,257.424 185.5,257C 190.443,256.748 195.276,255.914 200,254.5C 202.652,255.726 204.819,255.059 206.5,252.5C 207.167,252.167 207.833,251.833 208.5,251.5 Z"/></g>
<g><path style="opacity:1" fill="#5f302a" d="M 206.5,252.5 C 204.819,255.059 202.652,255.726 200,254.5C 195.276,255.914 190.443,256.748 185.5,257C 183.485,257.424 181.651,258.258 180,259.5C 177.97,259.046 176.137,258.38 174.5,257.5C 185.253,256.191 195.919,254.524 206.5,252.5 Z"/></g>
<g><path style="opacity:1" fill="#26110d" d="M 208.5,250.5 C 208.5,250.833 208.5,251.167 208.5,251.5C 207.833,251.833 207.167,252.167 206.5,252.5C 195.919,254.524 185.253,256.191 174.5,257.5C 174.238,256.022 174.571,254.689 175.5,253.5C 176.812,254.46 178.146,254.294 179.5,253C 187.696,253.012 195.696,251.845 203.5,249.5C 205.258,249.592 206.924,249.925 208.5,250.5 Z"/></g>
<g><path style="opacity:1" fill="#180e0c" d="M 213.5,245.5 C 212.167,247.5 210.5,249.167 208.5,250.5C 206.924,249.925 205.258,249.592 203.5,249.5C 195.696,251.845 187.696,253.012 179.5,253C 178.146,254.294 176.812,254.46 175.5,253.5C 174.571,254.689 174.238,256.022 174.5,257.5C 174.167,257.5 173.833,257.5 173.5,257.5C 171.78,256.692 170.113,255.692 168.5,254.5C 174.592,251.801 180.925,250.134 187.5,249.5C 196.057,247.518 204.724,246.185 213.5,245.5 Z"/></g>
<g><path style="opacity:1" fill="#676663" d="M 187.5,246.5 C 186.158,247.793 184.491,248.626 182.5,249C 184.134,249.494 185.801,249.66 187.5,249.5C 180.925,250.134 174.592,251.801 168.5,254.5C 167.167,253.5 165.833,252.5 164.5,251.5C 164.5,250.833 164.5,250.167 164.5,249.5C 172.035,248.56 179.701,247.56 187.5,246.5 Z"/></g>
<g><path style="opacity:0.749" fill="#24133e" d="M 152.5,303.5 C 151.55,306.115 149.883,308.115 147.5,309.5C 146.167,310.5 144.833,311.5 143.5,312.5C 143.351,311.448 143.517,310.448 144,309.5C 145.758,307.917 147.258,306.25 148.5,304.5C 149.833,304.167 151.167,303.833 152.5,303.5 Z"/></g>
<g><path style="opacity:1" fill="#876044" d="M 177.5,309.5 C 173.215,308.705 168.881,308.372 164.5,308.5C 163.751,314.242 160.751,318.242 155.5,320.5C 151.886,318.693 148.22,316.86 144.5,315C 143.748,314.329 143.414,313.496 143.5,312.5C 144.833,311.5 146.167,310.5 147.5,309.5C 150.877,309.31 153.544,307.81 155.5,305C 163.306,304.622 170.64,306.122 177.5,309.5 Z"/></g>
<g><path style="opacity:1" fill="#67442a" d="M 154.5,302.5 C 159.232,302.378 163.898,302.878 168.5,304C 174.755,306.297 181.088,308.297 187.5,310C 194.192,310.831 200.858,310.664 207.5,309.5C 209.871,307.317 212.538,305.65 215.5,304.5C 215.5,305.167 215.5,305.833 215.5,306.5C 212.183,307.305 209.517,309.139 207.5,312C 197.33,312.981 187.33,312.147 177.5,309.5C 170.64,306.122 163.306,304.622 155.5,305C 153.544,307.81 150.877,309.31 147.5,309.5C 149.883,308.115 151.55,306.115 152.5,303.5C 153.167,303.167 153.833,302.833 154.5,302.5 Z"/></g>
<g><path style="opacity:1" fill="#362366" d="M 309.5,307.5 C 316.558,309.016 319.891,313.349 319.5,320.5C 317.445,318.445 315.112,316.779 312.5,315.5C 313.301,313.958 313.634,312.292 313.5,310.5C 311.027,310.912 309.694,309.912 309.5,307.5 Z"/></g>
<g><path style="opacity:1" fill="#9d7b66" d="M 214.5,311.5 C 213.67,322.486 208.003,329.319 197.5,332C 185.078,332.81 173.411,330.31 162.5,324.5C 164.051,321.437 166.218,318.771 169,316.5C 170.128,314.655 170.628,312.655 170.5,310.5C 181.547,312.627 192.547,314.96 203.5,317.5C 205.541,316.764 207.541,315.931 209.5,315C 210.622,312.876 212.122,311.043 214,309.5C 214.464,310.094 214.631,310.761 214.5,311.5 Z"/></g>
<g><path style="opacity:1" fill="#906d57" d="M 215.5,306.5 C 215.784,308.415 215.451,310.081 214.5,311.5C 214.631,310.761 214.464,310.094 214,309.5C 212.122,311.043 210.622,312.876 209.5,315C 207.541,315.931 205.541,316.764 203.5,317.5C 192.547,314.96 181.547,312.627 170.5,310.5C 170.628,312.655 170.128,314.655 169,316.5C 166.218,318.771 164.051,321.437 162.5,324.5C 159.968,323.404 157.635,322.071 155.5,320.5C 160.751,318.242 163.751,314.242 164.5,308.5C 168.881,308.372 173.215,308.705 177.5,309.5C 187.33,312.147 197.33,312.981 207.5,312C 209.517,309.139 212.183,307.305 215.5,306.5 Z"/></g>
<g><path style="opacity:1" fill="#56448b" d="M 310.5,316.5 C 308.194,318.139 306.194,320.139 304.5,322.5C 299.792,326.207 295.792,330.54 292.5,335.5C 292.5,335.833 292.5,336.167 292.5,336.5C 291.026,337.436 290.026,338.77 289.5,340.5C 288.094,340.973 287.427,341.973 287.5,343.5C 286.11,344.899 285.11,346.566 284.5,348.5C 283.603,349.598 282.77,349.598 282,348.5C 280.375,342.309 277.708,336.642 274,331.5C 268.646,327.144 263.646,322.477 259,317.5C 253.907,308.547 251.74,298.88 252.5,288.5C 252.5,285.167 252.5,281.833 252.5,278.5C 254.927,278.523 257.26,279.023 259.5,280C 274.588,287.199 288.254,296.365 300.5,307.5C 301.641,308.425 301.641,309.259 300.5,310C 301.803,310.21 303.136,310.043 304.5,309.5C 306.13,310.421 307.797,311.255 309.5,312C 310.38,313.356 310.714,314.856 310.5,316.5 Z"/></g>
<g><path style="opacity:1" fill="#5d4b93" d="M 253.5,286.5 C 257.856,287.511 261.856,289.344 265.5,292C 275.855,298.845 285.855,306.178 295.5,314C 292.049,317.74 288.715,321.573 285.5,325.5C 277.122,317.898 268.288,310.898 259,304.5C 257.579,301.991 255.912,299.657 254,297.5C 253.501,293.848 253.335,290.182 253.5,286.5 Z"/></g>
<g><path style="opacity:1" fill="#544288" d="M 251.5,300.5 C 252.28,305.444 253.28,310.444 254.5,315.5C 254.5,317.167 254.5,318.833 254.5,320.5C 254.363,328.935 254.363,337.268 254.5,345.5C 253.381,354.5 252.214,363.5 251,372.5C 247.274,388.009 242.941,403.343 238,418.5C 235.943,427.729 234.777,437.063 234.5,446.5C 209.5,446.5 184.5,446.5 159.5,446.5C 162.188,427.457 162.021,408.457 159,389.5C 157.63,385.755 155.963,382.088 154,378.5C 151.094,375.963 147.927,373.796 144.5,372C 142.332,369.002 139.999,366.169 137.5,363.5C 143.785,364.253 150.118,364.753 156.5,365C 160.488,365.576 164.155,366.909 167.5,369C 171.849,377.696 176.016,386.529 180,395.5C 186.11,405.237 193.277,414.07 201.5,422C 205.847,424.661 209.347,423.828 212,419.5C 219.107,404.187 225.44,388.521 231,372.5C 233.584,363.334 235.25,354 236,344.5C 241.257,333.65 246.257,322.65 251,311.5C 251.499,307.848 251.665,304.182 251.5,300.5 Z"/></g>
<g><path style="opacity:1" fill="#351f6b" d="M 148.5,304.5 C 147.258,306.25 145.758,307.917 144,309.5C 143.517,310.448 143.351,311.448 143.5,312.5C 141.08,315.087 138.246,317.087 135,318.5C 134.517,319.448 134.351,320.448 134.5,321.5C 130.718,323.951 126.718,325.951 122.5,327.5C 122.67,328.822 122.337,329.989 121.5,331C 118.48,333.184 115.147,334.684 111.5,335.5C 117.364,330.147 123.697,325.313 130.5,321C 135.039,313.899 141.039,308.399 148.5,304.5 Z"/></g>
<g><path style="opacity:1" fill="#423073" d="M 252.5,288.5 C 251.74,298.88 253.907,308.547 259,317.5C 263.646,322.477 268.646,327.144 274,331.5C 277.708,336.642 280.375,342.309 282,348.5C 282.77,349.598 283.603,349.598 284.5,348.5C 287.913,351.72 291.579,354.72 295.5,357.5C 293.14,359.853 290.473,361.853 287.5,363.5C 281.557,364.719 279.223,362.553 280.5,357C 277.202,348.246 272.036,340.746 265,334.5C 264.129,330.074 261.796,326.741 258,324.5C 256.704,321.429 255.538,318.429 254.5,315.5C 253.28,310.444 252.28,305.444 251.5,300.5C 251.5,297.167 251.5,293.833 251.5,290.5C 251.328,289.508 251.662,288.842 252.5,288.5 Z"/></g>
<g><path style="opacity:1" fill="#9a7861" d="M 304.5,322.5 C 305.552,322.351 306.552,322.517 307.5,323C 314.97,329.468 322.136,336.302 329,343.5C 333.419,350.672 338.085,357.672 343,364.5C 343.667,367.5 343.667,370.5 343,373.5C 339.29,371.423 335.457,369.59 331.5,368C 320.397,356.962 308.73,346.628 296.5,337C 295.255,336.209 293.922,335.709 292.5,335.5C 295.792,330.54 299.792,326.207 304.5,322.5 Z"/></g>
<g><path style="opacity:1" fill="#8d664b" d="M 312.5,315.5 C 315.112,316.779 317.445,318.445 319.5,320.5C 324.807,325.472 330.14,330.472 335.5,335.5C 339.519,346.223 342.519,357.223 344.5,368.5C 344.833,371.167 345.167,373.833 345.5,376.5C 343.146,376.162 340.813,375.662 338.5,375C 325.756,366.421 313.756,356.921 302.5,346.5C 297.478,344.811 294.144,341.478 292.5,336.5C 292.5,336.167 292.5,335.833 292.5,335.5C 293.922,335.709 295.255,336.209 296.5,337C 308.73,346.628 320.397,356.962 331.5,368C 335.457,369.59 339.29,371.423 343,373.5C 343.667,370.5 343.667,367.5 343,364.5C 338.085,357.672 333.419,350.672 329,343.5C 322.136,336.302 314.97,329.468 307.5,323C 306.552,322.517 305.552,322.351 304.5,322.5C 306.194,320.139 308.194,318.139 310.5,316.5C 311.167,316.167 311.833,315.833 312.5,315.5 Z"/></g>
<g><path style="opacity:1" fill="#49377c" d="M 254.5,320.5 C 256.204,324.617 257.537,328.951 258.5,333.5C 259.495,371.158 259.495,408.825 258.5,446.5C 250.5,446.5 242.5,446.5 234.5,446.5C 234.777,437.063 235.943,427.729 238,418.5C 242.941,403.343 247.274,388.009 251,372.5C 252.214,363.5 253.381,354.5 254.5,345.5C 254.363,337.268 254.363,328.935 254.5,320.5 Z"/></g>
<g><path style="opacity:1" fill="#463379" d="M 134.5,321.5 C 136.138,322.657 137.804,323.824 139.5,325C 136.361,326.728 133.028,327.894 129.5,328.5C 124.675,333.157 119.675,337.657 114.5,342C 122.39,349.061 130.057,356.228 137.5,363.5C 139.999,366.169 142.332,369.002 144.5,372C 147.927,373.796 151.094,375.963 154,378.5C 155.963,382.088 157.63,385.755 159,389.5C 162.021,408.457 162.188,427.457 159.5,446.5C 157.167,446.5 154.833,446.5 152.5,446.5C 155.357,430.467 157.023,414.467 157.5,398.5C 157.654,387.885 153.321,379.885 144.5,374.5C 143.272,373.694 142.272,372.694 141.5,371.5C 134.101,360.433 124.767,351.433 113.5,344.5C 112.313,350.517 110.813,357.183 109,364.5C 108.667,378.5 108.333,392.5 108,406.5C 107.436,409.155 106.936,411.821 106.5,414.5C 106.709,415.994 107.376,417.161 108.5,418C 106.064,417.947 103.731,418.113 101.5,418.5C 103.026,421.309 104.026,424.309 104.5,427.5C 102.559,427.131 100.725,426.464 99,425.5C 98.3743,422.137 98.0409,418.804 98,415.5C 99.0495,416.517 100.216,416.684 101.5,416C 100.02,414.701 99.3536,413.034 99.5,411C 99.3814,389.587 101.548,368.42 106,347.5C 106.654,344.992 107.821,342.826 109.5,341C 108.833,340.667 108.167,340.333 107.5,340C 109.635,339.124 110.969,337.624 111.5,335.5C 115.147,334.684 118.48,333.184 121.5,331C 122.337,329.989 122.67,328.822 122.5,327.5C 126.718,325.951 130.718,323.951 134.5,321.5 Z"/></g>
<g><path style="opacity:1" fill="#3e2c6e" d="M 258.5,333.5 C 259.6,335.277 260.434,337.277 261,339.5C 266.681,374.978 270.514,410.645 272.5,446.5C 267.833,446.5 263.167,446.5 258.5,446.5C 259.495,408.825 259.495,371.158 258.5,333.5 Z"/></g>
<g><path style="opacity:1" fill="#4c3b80" d="M 113.5,344.5 C 114.159,346.138 114.826,347.805 115.5,349.5C 110.638,368.366 110.971,387.2 116.5,406C 114.688,409.904 114.022,414.071 114.5,418.5C 116.467,418.739 118.301,418.406 120,417.5C 120.93,415.064 122.097,412.731 123.5,410.5C 122.674,409.549 122.508,408.549 123,407.5C 132.635,399.088 139.135,388.588 142.5,376C 141.852,374.56 141.519,373.06 141.5,371.5C 142.272,372.694 143.272,373.694 144.5,374.5C 146.974,383.392 147.14,392.392 145,401.5C 142.861,407.415 141.028,413.415 139.5,419.5C 137.453,421.015 135.119,421.849 132.5,422C 137.864,422.171 143.198,422.671 148.5,423.5C 146.695,425.747 145.362,428.247 144.5,431C 138.565,432.239 132.565,432.739 126.5,432.5C 119.105,431.934 111.772,430.934 104.5,429.5C 104.5,428.833 104.5,428.167 104.5,427.5C 104.026,424.309 103.026,421.309 101.5,418.5C 103.731,418.113 106.064,417.947 108.5,418C 107.376,417.161 106.709,415.994 106.5,414.5C 106.936,411.821 107.436,409.155 108,406.5C 108.333,392.5 108.667,378.5 109,364.5C 110.813,357.183 112.313,350.517 113.5,344.5 Z"/></g>
<g><path style="opacity:1" fill="#795132" d="M 360.5,239.5 C 361.5,240.167 362.5,240.833 363.5,241.5C 368.378,267.647 372.045,293.981 374.5,320.5C 374.681,339.327 374.347,358.327 373.5,377.5C 370.782,386.068 365.115,389.234 356.5,387C 354.285,385.956 351.952,385.29 349.5,385C 347.416,384.303 345.749,383.136 344.5,381.5C 348.313,382.16 351.979,383.326 355.5,385C 359.167,385.667 362.833,385.667 366.5,385C 368.049,383.786 369.215,382.286 370,380.5C 372.123,372.49 373.29,364.323 373.5,356C 372.306,338.835 371.139,321.668 370,304.5C 367.178,287.259 365.178,269.926 364,252.5C 363.392,247.934 362.225,243.6 360.5,239.5 Z"/></g>
<g><path style="opacity:1" fill="#372467" d="M 111.5,335.5 C 110.969,337.624 109.635,339.124 107.5,340C 108.167,340.333 108.833,340.667 109.5,341C 107.821,342.826 106.654,344.992 106,347.5C 101.548,368.42 99.3814,389.587 99.5,411C 99.3536,413.034 100.02,414.701 101.5,416C 100.216,416.684 99.0495,416.517 98,415.5C 98.0409,418.804 98.3743,422.137 99,425.5C 100.725,426.464 102.559,427.131 104.5,427.5C 104.5,428.167 104.5,428.833 104.5,429.5C 104.167,429.5 103.833,429.5 103.5,429.5C 101.351,428.264 99.0177,427.264 96.5,426.5C 94.0412,425.126 93.0412,422.96 93.5,420C 94.9692,403.198 96.1358,386.365 97,369.5C 98.2011,358.902 101.201,348.902 106,339.5C 107.451,337.536 109.284,336.203 111.5,335.5 Z"/></g>
<g><path style="opacity:1" fill="#524086" d="M 113.5,344.5 C 124.767,351.433 134.101,360.433 141.5,371.5C 141.519,373.06 141.852,374.56 142.5,376C 139.135,388.588 132.635,399.088 123,407.5C 122.508,408.549 122.674,409.549 123.5,410.5C 122.097,412.731 120.93,415.064 120,417.5C 118.301,418.406 116.467,418.739 114.5,418.5C 114.022,414.071 114.688,409.904 116.5,406C 110.971,387.2 110.638,368.366 115.5,349.5C 114.826,347.805 114.159,346.138 113.5,344.5 Z"/></g>
<g><path style="opacity:1" fill="#2b1956" d="M 254.5,315.5 C 255.538,318.429 256.704,321.429 258,324.5C 261.796,326.741 264.129,330.074 265,334.5C 272.036,340.746 277.202,348.246 280.5,357C 279.223,362.553 281.557,364.719 287.5,363.5C 284.863,365.427 281.863,365.927 278.5,365C 276.035,362.701 273.535,360.534 271,358.5C 269.566,358.93 268.399,359.764 267.5,361C 272.175,389.265 274.842,417.765 275.5,446.5C 274.5,446.5 273.5,446.5 272.5,446.5C 270.514,410.645 266.681,374.978 261,339.5C 260.434,337.277 259.6,335.277 258.5,333.5C 257.537,328.951 256.204,324.617 254.5,320.5C 254.5,318.833 254.5,317.167 254.5,315.5 Z"/></g>
<g><path style="opacity:1" fill="#3f2c6f" d="M 144.5,374.5 C 153.321,379.885 157.654,387.885 157.5,398.5C 157.023,414.467 155.357,430.467 152.5,446.5C 148.833,446.5 145.167,446.5 141.5,446.5C 141.586,442.143 141.92,437.81 142.5,433.5C 139.5,433.5 136.5,433.5 133.5,433.5C 132.167,433.5 130.833,433.5 129.5,433.5C 128.209,433.737 127.209,433.404 126.5,432.5C 132.565,432.739 138.565,432.239 144.5,431C 145.362,428.247 146.695,425.747 148.5,423.5C 143.198,422.671 137.864,422.171 132.5,422C 135.119,421.849 137.453,421.015 139.5,419.5C 141.028,413.415 142.861,407.415 145,401.5C 147.14,392.392 146.974,383.392 144.5,374.5 Z"/></g>
<g><path style="opacity:1" fill="#552f11" d="M 287.5,343.5 C 290.681,345.837 294.014,348.004 297.5,350C 300.656,356.491 305.656,360.824 312.5,363C 324.384,373.435 337.384,382.101 351.5,389C 357.005,391.963 362.672,392.297 368.5,390C 370.317,388.2 371.484,386.034 372,383.5C 373.371,381.959 374.871,380.625 376.5,379.5C 374.27,391.79 366.937,396.956 354.5,395C 348.44,393.136 342.774,390.47 337.5,387C 323.62,376.947 309.62,367.114 295.5,357.5C 291.579,354.72 287.913,351.72 284.5,348.5C 285.11,346.566 286.11,344.899 287.5,343.5 Z"/></g>
<g><path style="opacity:1" fill="#6e4729" d="M 374.5,320.5 C 376.355,335.595 377.689,350.761 378.5,366C 378.269,370.706 377.603,375.206 376.5,379.5C 374.871,380.625 373.371,381.959 372,383.5C 371.484,386.034 370.317,388.2 368.5,390C 362.672,392.297 357.005,391.963 351.5,389C 337.384,382.101 324.384,373.435 312.5,363C 305.656,360.824 300.656,356.491 297.5,350C 294.014,348.004 290.681,345.837 287.5,343.5C 287.427,341.973 288.094,340.973 289.5,340.5C 294.945,345.406 300.945,349.906 307.5,354C 309.453,358.283 312.786,360.617 317.5,361C 324.689,370.372 333.689,377.206 344.5,381.5C 345.749,383.136 347.416,384.303 349.5,385C 351.952,385.29 354.285,385.956 356.5,387C 365.115,389.234 370.782,386.068 373.5,377.5C 374.347,358.327 374.681,339.327 374.5,320.5 Z"/></g>
<g><path style="opacity:1" fill="#906b52" d="M 103.5,429.5 C 103.833,429.5 104.167,429.5 104.5,429.5C 111.772,430.934 119.105,431.934 126.5,432.5C 127.209,433.404 128.209,433.737 129.5,433.5C 128.833,437.833 128.167,442.167 127.5,446.5C 118.5,446.5 109.5,446.5 100.5,446.5C 101.281,441.582 101.781,436.582 102,431.5C 102.278,430.584 102.778,429.918 103.5,429.5 Z"/></g>
<g><path style="opacity:1" fill="#7f593c" d="M 129.5,433.5 C 130.833,433.5 132.167,433.5 133.5,433.5C 134.209,434.404 135.209,434.737 136.5,434.5C 136.605,438.548 136.272,442.548 135.5,446.5C 132.833,446.5 130.167,446.5 127.5,446.5C 128.167,442.167 128.833,437.833 129.5,433.5 Z"/></g>
<g><path style="opacity:1" fill="#734c2e" d="M 96.5,426.5 C 99.0177,427.264 101.351,428.264 103.5,429.5C 102.778,429.918 102.278,430.584 102,431.5C 101.781,436.582 101.281,441.582 100.5,446.5C 98.5,446.5 96.5,446.5 94.5,446.5C 95.3184,439.867 95.985,433.2 96.5,426.5 Z"/></g>
<g><path style="opacity:1" fill="#633e23" d="M 133.5,433.5 C 136.5,433.5 139.5,433.5 142.5,433.5C 141.92,437.81 141.586,442.143 141.5,446.5C 139.5,446.5 137.5,446.5 135.5,446.5C 136.272,442.548 136.605,438.548 136.5,434.5C 135.209,434.737 134.209,434.404 133.5,433.5 Z"/></g>
</svg>
